%TF.GenerationSoftware,KiCad,Pcbnew,9.0.9-9.0.9~ubuntu24.04.1*%
%TF.CreationDate,2026-09-13T17:28:16+00:00*%
%TF.ProjectId,badge,62616467-652e-46b6-9963-61645f706362,rev?*%
%TF.SameCoordinates,Original*%
%TF.FileFunction,Drillmap*%
%TF.FilePolarity,Positive*%
%FSLAX45Y45*%
G04 Gerber Fmt 4.5, Leading zero omitted, Abs format (unit mm)*
G04 Created by KiCad (PCBNEW 9.0.9-9.0.9~ubuntu24.04.1) date 2026-09-13 17:28:16*
%MOMM*%
%LPD*%
G01*
G04 APERTURE LIST*
%ADD10C,0.100000*%
%ADD11C,0.200000*%
G04 APERTURE END LIST*
D10*
X0Y-200000D02*
G75*
G02*
X200000Y0I200000J0D01*
G01*
X0Y-8200000D02*
X0Y-200000D01*
X200000Y0D02*
X8900000Y0D01*
X200000Y-8400000D02*
G75*
G02*
X0Y-8200000I0J200000D01*
G01*
X2800000Y-7760000D02*
X5600000Y-7760000D01*
X2800000Y-7960000D02*
G75*
G02*
X2800000Y-7760000I0J100000D01*
G01*
X5600000Y-7760000D02*
G75*
G02*
X5600000Y-7960000I0J-100000D01*
G01*
X5600000Y-7960000D02*
X2800000Y-7960000D01*
X7032500Y-7795000D02*
X7032500Y-8400000D01*
X7032500Y-8400000D02*
X200000Y-8400000D01*
X7967500Y-7795000D02*
X7032500Y-7795000D01*
X7967500Y-8400000D02*
X7967500Y-7795000D01*
X8900000Y0D02*
G75*
G02*
X9100000Y-200000I0J-200000D01*
G01*
X8900000Y-8400000D02*
X7967500Y-8400000D01*
X9100000Y-200000D02*
X9100000Y-8200000D01*
X9100000Y-8200000D02*
G75*
G02*
X8900000Y-8400000I-200000J0D01*
G01*
D11*
D10*
X710500Y-6283770D02*
X740500Y-6313770D01*
X740500Y-6283770D02*
X710500Y-6313770D01*
X1004700Y-6217370D02*
X1034700Y-6247370D01*
X1034700Y-6217370D02*
X1004700Y-6247370D01*
X1799670Y-5354470D02*
X1829670Y-5384470D01*
X1829670Y-5354470D02*
X1799670Y-5384470D01*
X1832520Y-5644770D02*
X1862520Y-5674770D01*
X1862520Y-5644770D02*
X1832520Y-5674770D01*
X2079250Y-5339850D02*
X2109250Y-5369850D01*
X2109250Y-5339850D02*
X2079250Y-5369850D01*
X2758870Y-5593060D02*
X2788870Y-5623060D01*
X2788870Y-5593060D02*
X2758870Y-5623060D01*
X2782060Y-5905600D02*
X2812060Y-5935600D01*
X2812060Y-5905600D02*
X2782060Y-5935600D01*
X3273540Y-6714270D02*
X3303540Y-6744270D01*
X3303540Y-6714270D02*
X3273540Y-6744270D01*
X3335000Y-6052940D02*
X3365000Y-6082940D01*
X3365000Y-6052940D02*
X3335000Y-6082940D01*
X3443060Y-6714270D02*
X3473060Y-6744270D01*
X3473060Y-6714270D02*
X3443060Y-6744270D01*
X3561380Y-6304120D02*
X3591380Y-6334120D01*
X3591380Y-6304120D02*
X3561380Y-6334120D01*
X3599230Y-7263980D02*
X3629230Y-7293980D01*
X3629230Y-7263980D02*
X3599230Y-7293980D01*
X3689300Y-5393570D02*
X3719300Y-5423570D01*
X3719300Y-5393570D02*
X3689300Y-5423570D01*
X3698430Y-6798070D02*
X3728430Y-6828070D01*
X3728430Y-6798070D02*
X3698430Y-6828070D01*
X3765180Y-5905540D02*
X3795180Y-5935540D01*
X3795180Y-5905540D02*
X3765180Y-5935540D01*
X3882420Y-6113640D02*
X3912420Y-6143640D01*
X3912420Y-6113640D02*
X3882420Y-6143640D01*
X3952080Y-6879980D02*
X3982080Y-6909980D01*
X3982080Y-6879980D02*
X3952080Y-6909980D01*
X4093760Y-6744790D02*
X4123760Y-6774790D01*
X4123760Y-6744790D02*
X4093760Y-6774790D01*
X4177490Y-6885650D02*
X4207490Y-6915650D01*
X4207490Y-6885650D02*
X4177490Y-6915650D01*
X4195400Y-6650420D02*
X4225400Y-6680420D01*
X4225400Y-6650420D02*
X4195400Y-6680420D01*
X4263580Y-5905210D02*
X4293580Y-5935210D01*
X4293580Y-5905210D02*
X4263580Y-5935210D01*
X4301180Y-6899630D02*
X4331180Y-6929630D01*
X4331180Y-6899630D02*
X4301180Y-6929630D01*
X4561150Y-5892120D02*
X4591150Y-5922120D01*
X4591150Y-5892120D02*
X4561150Y-5922120D01*
X4623170Y-6430230D02*
X4653170Y-6460230D01*
X4653170Y-6430230D02*
X4623170Y-6460230D01*
X4662690Y-6773180D02*
X4692690Y-6803180D01*
X4692690Y-6773180D02*
X4662690Y-6803180D01*
X4814120Y-5393250D02*
X4844120Y-5423250D01*
X4844120Y-5393250D02*
X4814120Y-5423250D01*
X4829080Y-5636730D02*
X4859080Y-5666730D01*
X4859080Y-5636730D02*
X4829080Y-5666730D01*
X4978280Y-5836150D02*
X5008280Y-5866150D01*
X5008280Y-5836150D02*
X4978280Y-5866150D01*
X5000140Y-5927030D02*
X5030140Y-5957030D01*
X5030140Y-5927030D02*
X5000140Y-5957030D01*
X5118010Y-6075170D02*
X5148010Y-6105170D01*
X5148010Y-6075170D02*
X5118010Y-6105170D01*
X5123340Y-5926860D02*
X5153340Y-5956860D01*
X5153340Y-5926860D02*
X5123340Y-5956860D01*
X5135000Y-5255680D02*
X5165000Y-5285680D01*
X5165000Y-5255680D02*
X5135000Y-5285680D01*
X5504900Y-5381540D02*
X5534900Y-5411540D01*
X5534900Y-5381540D02*
X5504900Y-5411540D01*
X5509190Y-5746570D02*
X5539190Y-5776570D01*
X5539190Y-5746570D02*
X5509190Y-5776570D01*
X5551680Y-5298720D02*
X5581680Y-5328720D01*
X5581680Y-5298720D02*
X5551680Y-5328720D01*
X5564260Y-5215900D02*
X5594260Y-5245900D01*
X5594260Y-5215900D02*
X5564260Y-5245900D01*
X5615680Y-4799450D02*
X5645680Y-4829450D01*
X5645680Y-4799450D02*
X5615680Y-4829450D01*
X5619020Y-5628790D02*
X5649020Y-5658790D01*
X5649020Y-5628790D02*
X5619020Y-5658790D01*
X5623120Y-5071130D02*
X5653120Y-5101130D01*
X5653120Y-5071130D02*
X5623120Y-5101130D01*
X5636610Y-5444350D02*
X5666610Y-5474350D01*
X5666610Y-5444350D02*
X5636610Y-5474350D01*
X5912710Y-4774120D02*
X5942710Y-4804120D01*
X5942710Y-4774120D02*
X5912710Y-4804120D01*
X6006100Y-7728180D02*
X6036100Y-7758180D01*
X6036100Y-7728180D02*
X6006100Y-7758180D01*
X6006140Y-4765820D02*
X6036140Y-4795820D01*
X6036140Y-4765820D02*
X6006140Y-4795820D01*
X6062750Y-5021430D02*
X6092750Y-5051430D01*
X6092750Y-5021430D02*
X6062750Y-5051430D01*
X6199260Y-5074920D02*
X6229260Y-5104920D01*
X6229260Y-5074920D02*
X6199260Y-5104920D01*
X6275080Y-7704650D02*
X6305080Y-7734650D01*
X6305080Y-7704650D02*
X6275080Y-7734650D01*
X6404970Y-5427300D02*
X6434970Y-5457300D01*
X6434970Y-5427300D02*
X6404970Y-5457300D01*
X6441280Y-5149400D02*
X6471280Y-5179400D01*
X6471280Y-5149400D02*
X6441280Y-5179400D01*
X6594660Y-4765620D02*
X6624660Y-4795620D01*
X6624660Y-4765620D02*
X6594660Y-4795620D01*
X6670190Y-5743420D02*
X6700190Y-5773420D01*
X6700190Y-5743420D02*
X6670190Y-5773420D01*
X6680190Y-5874210D02*
X6710190Y-5904210D01*
X6710190Y-5874210D02*
X6680190Y-5904210D01*
X6715220Y-5509330D02*
X6745220Y-5539330D01*
X6745220Y-5509330D02*
X6715220Y-5539330D01*
X6755370Y-5705130D02*
X6785370Y-5735130D01*
X6785370Y-5705130D02*
X6755370Y-5735130D01*
X6783670Y-7590230D02*
X6813670Y-7620230D01*
X6813670Y-7590230D02*
X6783670Y-7620230D01*
X6789130Y-5330850D02*
X6819130Y-5360850D01*
X6819130Y-5330850D02*
X6789130Y-5360850D01*
X6948890Y-4883900D02*
X6978890Y-4913900D01*
X6978890Y-4883900D02*
X6948890Y-4913900D01*
X6981430Y-5585380D02*
X7011430Y-5615380D01*
X7011430Y-5585380D02*
X6981430Y-5615380D01*
X7098570Y-4847530D02*
X7128570Y-4877530D01*
X7128570Y-4847530D02*
X7098570Y-4877530D01*
X7117980Y-6029700D02*
X7147980Y-6059700D01*
X7147980Y-6029700D02*
X7117980Y-6059700D01*
X7162900Y-7461360D02*
X7192900Y-7491360D01*
X7192900Y-7461360D02*
X7162900Y-7491360D01*
X7182900Y-4765620D02*
X7212900Y-4795620D01*
X7212900Y-4765620D02*
X7182900Y-4795620D01*
X7182900Y-6219800D02*
X7212900Y-6249800D01*
X7212900Y-6219800D02*
X7182900Y-6249800D01*
X7186960Y-5424470D02*
X7216960Y-5454470D01*
X7216960Y-5424470D02*
X7186960Y-5454470D01*
X7230440Y-6431240D02*
X7260440Y-6461240D01*
X7260440Y-6431240D02*
X7230440Y-6461240D01*
X7288750Y-7187450D02*
X7318750Y-7217450D01*
X7318750Y-7187450D02*
X7288750Y-7217450D01*
X7395870Y-6824580D02*
X7425870Y-6854580D01*
X7425870Y-6824580D02*
X7395870Y-6854580D01*
X7472500Y-5203450D02*
X7502500Y-5233450D01*
X7502500Y-5203450D02*
X7472500Y-5233450D01*
X7485880Y-6856650D02*
X7515880Y-6886650D01*
X7515880Y-6856650D02*
X7485880Y-6886650D01*
X7608210Y-7333340D02*
X7638210Y-7363340D01*
X7638210Y-7333340D02*
X7608210Y-7363340D01*
X7788850Y-7403120D02*
X7818850Y-7433120D01*
X7818850Y-7403120D02*
X7788850Y-7433120D01*
X7808540Y-5274310D02*
X7838540Y-5304310D01*
X7838540Y-5274310D02*
X7808540Y-5304310D01*
X7855750Y-5418220D02*
X7885750Y-5448220D01*
X7885750Y-5418220D02*
X7855750Y-5448220D01*
X7945950Y-4995440D02*
X7975950Y-5025440D01*
X7975950Y-4995440D02*
X7945950Y-5025440D01*
X8048540Y-7577380D02*
X8078540Y-7607380D01*
X8078540Y-7577380D02*
X8048540Y-7607380D01*
X8072730Y-5364500D02*
X8102730Y-5394500D01*
X8102730Y-5364500D02*
X8072730Y-5394500D01*
X8359700Y-7088420D02*
X8389700Y-7118420D01*
X8389700Y-7088420D02*
X8359700Y-7118420D01*
X8450040Y-4978870D02*
X8480040Y-5008870D01*
X8480040Y-4978870D02*
X8450040Y-5008870D01*
X8733850Y-7590620D02*
X8763850Y-7620620D01*
X8763850Y-7590620D02*
X8733850Y-7620620D01*
X7715000Y-3400000D02*
G75*
G02*
X7685000Y-3400000I-15000J0D01*
G01*
X7685000Y-3400000D02*
G75*
G02*
X7715000Y-3400000I15000J0D01*
G01*
X7715000Y-4660000D02*
G75*
G02*
X7685000Y-4660000I-15000J0D01*
G01*
X7685000Y-4660000D02*
G75*
G02*
X7715000Y-4660000I15000J0D01*
G01*
X6942000Y-7741000D02*
X6942000Y-7791000D01*
X6917000Y-7766000D02*
X6967000Y-7766000D01*
X6967000Y-7823500D02*
X6967000Y-7708500D01*
X6917000Y-7708500D02*
G75*
G02*
X6967000Y-7708500I25000J0D01*
G01*
X6917000Y-7708500D02*
X6917000Y-7823500D01*
X6917000Y-7823500D02*
G75*
G03*
X6967000Y-7823500I25000J0D01*
G01*
X6942000Y-8205000D02*
X6942000Y-8255000D01*
X6917000Y-8230000D02*
X6967000Y-8230000D01*
X6967000Y-8287500D02*
X6967000Y-8172500D01*
X6917000Y-8172500D02*
G75*
G02*
X6967000Y-8172500I25000J0D01*
G01*
X6917000Y-8172500D02*
X6917000Y-8287500D01*
X6917000Y-8287500D02*
G75*
G03*
X6967000Y-8287500I25000J0D01*
G01*
X8058000Y-7741000D02*
X8058000Y-7791000D01*
X8033000Y-7766000D02*
X8083000Y-7766000D01*
X8083000Y-7823500D02*
X8083000Y-7708500D01*
X8033000Y-7708500D02*
G75*
G02*
X8083000Y-7708500I25000J0D01*
G01*
X8033000Y-7708500D02*
X8033000Y-7823500D01*
X8033000Y-7823500D02*
G75*
G03*
X8083000Y-7823500I25000J0D01*
G01*
X8058000Y-8205000D02*
X8058000Y-8255000D01*
X8033000Y-8230000D02*
X8083000Y-8230000D01*
X8083000Y-8287500D02*
X8083000Y-8172500D01*
X8033000Y-8172500D02*
G75*
G02*
X8083000Y-8172500I25000J0D01*
G01*
X8033000Y-8172500D02*
X8033000Y-8287500D01*
X8033000Y-8287500D02*
G75*
G03*
X8083000Y-8287500I25000J0D01*
G01*
D11*
X255777Y-8716484D02*
X255777Y-8516484D01*
X255777Y-8516484D02*
X303396Y-8516484D01*
X303396Y-8516484D02*
X331967Y-8526008D01*
X331967Y-8526008D02*
X351015Y-8545055D01*
X351015Y-8545055D02*
X360539Y-8564103D01*
X360539Y-8564103D02*
X370062Y-8602198D01*
X370062Y-8602198D02*
X370062Y-8630770D01*
X370062Y-8630770D02*
X360539Y-8668865D01*
X360539Y-8668865D02*
X351015Y-8687912D01*
X351015Y-8687912D02*
X331967Y-8706960D01*
X331967Y-8706960D02*
X303396Y-8716484D01*
X303396Y-8716484D02*
X255777Y-8716484D01*
X455777Y-8716484D02*
X455777Y-8583150D01*
X455777Y-8621246D02*
X465301Y-8602198D01*
X465301Y-8602198D02*
X474824Y-8592674D01*
X474824Y-8592674D02*
X493872Y-8583150D01*
X493872Y-8583150D02*
X512920Y-8583150D01*
X579586Y-8716484D02*
X579586Y-8583150D01*
X579586Y-8516484D02*
X570063Y-8526008D01*
X570063Y-8526008D02*
X579586Y-8535531D01*
X579586Y-8535531D02*
X589110Y-8526008D01*
X589110Y-8526008D02*
X579586Y-8516484D01*
X579586Y-8516484D02*
X579586Y-8535531D01*
X703396Y-8716484D02*
X684348Y-8706960D01*
X684348Y-8706960D02*
X674824Y-8687912D01*
X674824Y-8687912D02*
X674824Y-8516484D01*
X808158Y-8716484D02*
X789110Y-8706960D01*
X789110Y-8706960D02*
X779586Y-8687912D01*
X779586Y-8687912D02*
X779586Y-8516484D01*
X1036729Y-8716484D02*
X1036729Y-8516484D01*
X1036729Y-8516484D02*
X1103396Y-8659341D01*
X1103396Y-8659341D02*
X1170063Y-8516484D01*
X1170063Y-8516484D02*
X1170063Y-8716484D01*
X1351015Y-8716484D02*
X1351015Y-8611722D01*
X1351015Y-8611722D02*
X1341491Y-8592674D01*
X1341491Y-8592674D02*
X1322444Y-8583150D01*
X1322444Y-8583150D02*
X1284348Y-8583150D01*
X1284348Y-8583150D02*
X1265301Y-8592674D01*
X1351015Y-8706960D02*
X1331967Y-8716484D01*
X1331967Y-8716484D02*
X1284348Y-8716484D01*
X1284348Y-8716484D02*
X1265301Y-8706960D01*
X1265301Y-8706960D02*
X1255777Y-8687912D01*
X1255777Y-8687912D02*
X1255777Y-8668865D01*
X1255777Y-8668865D02*
X1265301Y-8649817D01*
X1265301Y-8649817D02*
X1284348Y-8640293D01*
X1284348Y-8640293D02*
X1331967Y-8640293D01*
X1331967Y-8640293D02*
X1351015Y-8630770D01*
X1446253Y-8583150D02*
X1446253Y-8783150D01*
X1446253Y-8592674D02*
X1465301Y-8583150D01*
X1465301Y-8583150D02*
X1503396Y-8583150D01*
X1503396Y-8583150D02*
X1522443Y-8592674D01*
X1522443Y-8592674D02*
X1531967Y-8602198D01*
X1531967Y-8602198D02*
X1541491Y-8621246D01*
X1541491Y-8621246D02*
X1541491Y-8678389D01*
X1541491Y-8678389D02*
X1531967Y-8697436D01*
X1531967Y-8697436D02*
X1522443Y-8706960D01*
X1522443Y-8706960D02*
X1503396Y-8716484D01*
X1503396Y-8716484D02*
X1465301Y-8716484D01*
X1465301Y-8716484D02*
X1446253Y-8706960D01*
X1627205Y-8697436D02*
X1636729Y-8706960D01*
X1636729Y-8706960D02*
X1627205Y-8716484D01*
X1627205Y-8716484D02*
X1617682Y-8706960D01*
X1617682Y-8706960D02*
X1627205Y-8697436D01*
X1627205Y-8697436D02*
X1627205Y-8716484D01*
X1627205Y-8592674D02*
X1636729Y-8602198D01*
X1636729Y-8602198D02*
X1627205Y-8611722D01*
X1627205Y-8611722D02*
X1617682Y-8602198D01*
X1617682Y-8602198D02*
X1627205Y-8592674D01*
X1627205Y-8592674D02*
X1627205Y-8611722D01*
D10*
X-35000Y-9030000D02*
X-5000Y-9060000D01*
X-5000Y-9030000D02*
X-35000Y-9060000D01*
D11*
X293872Y-8936484D02*
X312920Y-8936484D01*
X312920Y-8936484D02*
X331967Y-8946008D01*
X331967Y-8946008D02*
X341491Y-8955531D01*
X341491Y-8955531D02*
X351015Y-8974579D01*
X351015Y-8974579D02*
X360539Y-9012674D01*
X360539Y-9012674D02*
X360539Y-9060293D01*
X360539Y-9060293D02*
X351015Y-9098389D01*
X351015Y-9098389D02*
X341491Y-9117436D01*
X341491Y-9117436D02*
X331967Y-9126960D01*
X331967Y-9126960D02*
X312920Y-9136484D01*
X312920Y-9136484D02*
X293872Y-9136484D01*
X293872Y-9136484D02*
X274824Y-9126960D01*
X274824Y-9126960D02*
X265301Y-9117436D01*
X265301Y-9117436D02*
X255777Y-9098389D01*
X255777Y-9098389D02*
X246253Y-9060293D01*
X246253Y-9060293D02*
X246253Y-9012674D01*
X246253Y-9012674D02*
X255777Y-8974579D01*
X255777Y-8974579D02*
X265301Y-8955531D01*
X265301Y-8955531D02*
X274824Y-8946008D01*
X274824Y-8946008D02*
X293872Y-8936484D01*
X446253Y-9117436D02*
X455777Y-9126960D01*
X455777Y-9126960D02*
X446253Y-9136484D01*
X446253Y-9136484D02*
X436729Y-9126960D01*
X436729Y-9126960D02*
X446253Y-9117436D01*
X446253Y-9117436D02*
X446253Y-9136484D01*
X522443Y-8936484D02*
X646253Y-8936484D01*
X646253Y-8936484D02*
X579586Y-9012674D01*
X579586Y-9012674D02*
X608158Y-9012674D01*
X608158Y-9012674D02*
X627205Y-9022198D01*
X627205Y-9022198D02*
X636729Y-9031722D01*
X636729Y-9031722D02*
X646253Y-9050770D01*
X646253Y-9050770D02*
X646253Y-9098389D01*
X646253Y-9098389D02*
X636729Y-9117436D01*
X636729Y-9117436D02*
X627205Y-9126960D01*
X627205Y-9126960D02*
X608158Y-9136484D01*
X608158Y-9136484D02*
X551015Y-9136484D01*
X551015Y-9136484D02*
X531967Y-9126960D01*
X531967Y-9126960D02*
X522443Y-9117436D01*
X770062Y-8936484D02*
X789110Y-8936484D01*
X789110Y-8936484D02*
X808158Y-8946008D01*
X808158Y-8946008D02*
X817682Y-8955531D01*
X817682Y-8955531D02*
X827205Y-8974579D01*
X827205Y-8974579D02*
X836729Y-9012674D01*
X836729Y-9012674D02*
X836729Y-9060293D01*
X836729Y-9060293D02*
X827205Y-9098389D01*
X827205Y-9098389D02*
X817682Y-9117436D01*
X817682Y-9117436D02*
X808158Y-9126960D01*
X808158Y-9126960D02*
X789110Y-9136484D01*
X789110Y-9136484D02*
X770062Y-9136484D01*
X770062Y-9136484D02*
X751015Y-9126960D01*
X751015Y-9126960D02*
X741491Y-9117436D01*
X741491Y-9117436D02*
X731967Y-9098389D01*
X731967Y-9098389D02*
X722443Y-9060293D01*
X722443Y-9060293D02*
X722443Y-9012674D01*
X722443Y-9012674D02*
X731967Y-8974579D01*
X731967Y-8974579D02*
X741491Y-8955531D01*
X741491Y-8955531D02*
X751015Y-8946008D01*
X751015Y-8946008D02*
X770062Y-8936484D01*
X960539Y-8936484D02*
X979586Y-8936484D01*
X979586Y-8936484D02*
X998634Y-8946008D01*
X998634Y-8946008D02*
X1008158Y-8955531D01*
X1008158Y-8955531D02*
X1017682Y-8974579D01*
X1017682Y-8974579D02*
X1027205Y-9012674D01*
X1027205Y-9012674D02*
X1027205Y-9060293D01*
X1027205Y-9060293D02*
X1017682Y-9098389D01*
X1017682Y-9098389D02*
X1008158Y-9117436D01*
X1008158Y-9117436D02*
X998634Y-9126960D01*
X998634Y-9126960D02*
X979586Y-9136484D01*
X979586Y-9136484D02*
X960539Y-9136484D01*
X960539Y-9136484D02*
X941491Y-9126960D01*
X941491Y-9126960D02*
X931967Y-9117436D01*
X931967Y-9117436D02*
X922443Y-9098389D01*
X922443Y-9098389D02*
X912920Y-9060293D01*
X912920Y-9060293D02*
X912920Y-9012674D01*
X912920Y-9012674D02*
X922443Y-8974579D01*
X922443Y-8974579D02*
X931967Y-8955531D01*
X931967Y-8955531D02*
X941491Y-8946008D01*
X941491Y-8946008D02*
X960539Y-8936484D01*
X1112920Y-9136484D02*
X1112920Y-9003150D01*
X1112920Y-9022198D02*
X1122444Y-9012674D01*
X1122444Y-9012674D02*
X1141491Y-9003150D01*
X1141491Y-9003150D02*
X1170063Y-9003150D01*
X1170063Y-9003150D02*
X1189110Y-9012674D01*
X1189110Y-9012674D02*
X1198634Y-9031722D01*
X1198634Y-9031722D02*
X1198634Y-9136484D01*
X1198634Y-9031722D02*
X1208158Y-9012674D01*
X1208158Y-9012674D02*
X1227205Y-9003150D01*
X1227205Y-9003150D02*
X1255777Y-9003150D01*
X1255777Y-9003150D02*
X1274825Y-9012674D01*
X1274825Y-9012674D02*
X1284348Y-9031722D01*
X1284348Y-9031722D02*
X1284348Y-9136484D01*
X1379586Y-9136484D02*
X1379586Y-9003150D01*
X1379586Y-9022198D02*
X1389110Y-9012674D01*
X1389110Y-9012674D02*
X1408158Y-9003150D01*
X1408158Y-9003150D02*
X1436729Y-9003150D01*
X1436729Y-9003150D02*
X1455777Y-9012674D01*
X1455777Y-9012674D02*
X1465301Y-9031722D01*
X1465301Y-9031722D02*
X1465301Y-9136484D01*
X1465301Y-9031722D02*
X1474824Y-9012674D01*
X1474824Y-9012674D02*
X1493872Y-9003150D01*
X1493872Y-9003150D02*
X1522443Y-9003150D01*
X1522443Y-9003150D02*
X1541491Y-9012674D01*
X1541491Y-9012674D02*
X1551015Y-9031722D01*
X1551015Y-9031722D02*
X1551015Y-9136484D01*
X1941491Y-8926960D02*
X1770063Y-9184103D01*
X2198634Y-8936484D02*
X2217682Y-8936484D01*
X2217682Y-8936484D02*
X2236729Y-8946008D01*
X2236729Y-8946008D02*
X2246253Y-8955531D01*
X2246253Y-8955531D02*
X2255777Y-8974579D01*
X2255777Y-8974579D02*
X2265301Y-9012674D01*
X2265301Y-9012674D02*
X2265301Y-9060293D01*
X2265301Y-9060293D02*
X2255777Y-9098389D01*
X2255777Y-9098389D02*
X2246253Y-9117436D01*
X2246253Y-9117436D02*
X2236729Y-9126960D01*
X2236729Y-9126960D02*
X2217682Y-9136484D01*
X2217682Y-9136484D02*
X2198634Y-9136484D01*
X2198634Y-9136484D02*
X2179587Y-9126960D01*
X2179587Y-9126960D02*
X2170063Y-9117436D01*
X2170063Y-9117436D02*
X2160539Y-9098389D01*
X2160539Y-9098389D02*
X2151015Y-9060293D01*
X2151015Y-9060293D02*
X2151015Y-9012674D01*
X2151015Y-9012674D02*
X2160539Y-8974579D01*
X2160539Y-8974579D02*
X2170063Y-8955531D01*
X2170063Y-8955531D02*
X2179587Y-8946008D01*
X2179587Y-8946008D02*
X2198634Y-8936484D01*
X2351015Y-9117436D02*
X2360539Y-9126960D01*
X2360539Y-9126960D02*
X2351015Y-9136484D01*
X2351015Y-9136484D02*
X2341491Y-9126960D01*
X2341491Y-9126960D02*
X2351015Y-9117436D01*
X2351015Y-9117436D02*
X2351015Y-9136484D01*
X2484348Y-8936484D02*
X2503396Y-8936484D01*
X2503396Y-8936484D02*
X2522444Y-8946008D01*
X2522444Y-8946008D02*
X2531968Y-8955531D01*
X2531968Y-8955531D02*
X2541491Y-8974579D01*
X2541491Y-8974579D02*
X2551015Y-9012674D01*
X2551015Y-9012674D02*
X2551015Y-9060293D01*
X2551015Y-9060293D02*
X2541491Y-9098389D01*
X2541491Y-9098389D02*
X2531968Y-9117436D01*
X2531968Y-9117436D02*
X2522444Y-9126960D01*
X2522444Y-9126960D02*
X2503396Y-9136484D01*
X2503396Y-9136484D02*
X2484348Y-9136484D01*
X2484348Y-9136484D02*
X2465301Y-9126960D01*
X2465301Y-9126960D02*
X2455777Y-9117436D01*
X2455777Y-9117436D02*
X2446253Y-9098389D01*
X2446253Y-9098389D02*
X2436729Y-9060293D01*
X2436729Y-9060293D02*
X2436729Y-9012674D01*
X2436729Y-9012674D02*
X2446253Y-8974579D01*
X2446253Y-8974579D02*
X2455777Y-8955531D01*
X2455777Y-8955531D02*
X2465301Y-8946008D01*
X2465301Y-8946008D02*
X2484348Y-8936484D01*
X2741491Y-9136484D02*
X2627206Y-9136484D01*
X2684348Y-9136484D02*
X2684348Y-8936484D01*
X2684348Y-8936484D02*
X2665301Y-8965055D01*
X2665301Y-8965055D02*
X2646253Y-8984103D01*
X2646253Y-8984103D02*
X2627206Y-8993627D01*
X2931967Y-9136484D02*
X2817682Y-9136484D01*
X2874825Y-9136484D02*
X2874825Y-8936484D01*
X2874825Y-8936484D02*
X2855777Y-8965055D01*
X2855777Y-8965055D02*
X2836729Y-8984103D01*
X2836729Y-8984103D02*
X2817682Y-8993627D01*
X3046253Y-9022198D02*
X3027206Y-9012674D01*
X3027206Y-9012674D02*
X3017682Y-9003150D01*
X3017682Y-9003150D02*
X3008158Y-8984103D01*
X3008158Y-8984103D02*
X3008158Y-8974579D01*
X3008158Y-8974579D02*
X3017682Y-8955531D01*
X3017682Y-8955531D02*
X3027206Y-8946008D01*
X3027206Y-8946008D02*
X3046253Y-8936484D01*
X3046253Y-8936484D02*
X3084348Y-8936484D01*
X3084348Y-8936484D02*
X3103396Y-8946008D01*
X3103396Y-8946008D02*
X3112920Y-8955531D01*
X3112920Y-8955531D02*
X3122444Y-8974579D01*
X3122444Y-8974579D02*
X3122444Y-8984103D01*
X3122444Y-8984103D02*
X3112920Y-9003150D01*
X3112920Y-9003150D02*
X3103396Y-9012674D01*
X3103396Y-9012674D02*
X3084348Y-9022198D01*
X3084348Y-9022198D02*
X3046253Y-9022198D01*
X3046253Y-9022198D02*
X3027206Y-9031722D01*
X3027206Y-9031722D02*
X3017682Y-9041246D01*
X3017682Y-9041246D02*
X3008158Y-9060293D01*
X3008158Y-9060293D02*
X3008158Y-9098389D01*
X3008158Y-9098389D02*
X3017682Y-9117436D01*
X3017682Y-9117436D02*
X3027206Y-9126960D01*
X3027206Y-9126960D02*
X3046253Y-9136484D01*
X3046253Y-9136484D02*
X3084348Y-9136484D01*
X3084348Y-9136484D02*
X3103396Y-9126960D01*
X3103396Y-9126960D02*
X3112920Y-9117436D01*
X3112920Y-9117436D02*
X3122444Y-9098389D01*
X3122444Y-9098389D02*
X3122444Y-9060293D01*
X3122444Y-9060293D02*
X3112920Y-9041246D01*
X3112920Y-9041246D02*
X3103396Y-9031722D01*
X3103396Y-9031722D02*
X3084348Y-9022198D01*
X3198634Y-8936484D02*
X3198634Y-8974579D01*
X3274825Y-8936484D02*
X3274825Y-8974579D01*
X3570063Y-9212674D02*
X3560539Y-9203150D01*
X3560539Y-9203150D02*
X3541491Y-9174579D01*
X3541491Y-9174579D02*
X3531968Y-9155531D01*
X3531968Y-9155531D02*
X3522444Y-9126960D01*
X3522444Y-9126960D02*
X3512920Y-9079341D01*
X3512920Y-9079341D02*
X3512920Y-9041246D01*
X3512920Y-9041246D02*
X3522444Y-8993627D01*
X3522444Y-8993627D02*
X3531968Y-8965055D01*
X3531968Y-8965055D02*
X3541491Y-8946008D01*
X3541491Y-8946008D02*
X3560539Y-8917436D01*
X3560539Y-8917436D02*
X3570063Y-8907912D01*
X3627206Y-8936484D02*
X3760539Y-8936484D01*
X3760539Y-8936484D02*
X3674825Y-9136484D01*
X3865301Y-9022198D02*
X3846253Y-9012674D01*
X3846253Y-9012674D02*
X3836729Y-9003150D01*
X3836729Y-9003150D02*
X3827206Y-8984103D01*
X3827206Y-8984103D02*
X3827206Y-8974579D01*
X3827206Y-8974579D02*
X3836729Y-8955531D01*
X3836729Y-8955531D02*
X3846253Y-8946008D01*
X3846253Y-8946008D02*
X3865301Y-8936484D01*
X3865301Y-8936484D02*
X3903396Y-8936484D01*
X3903396Y-8936484D02*
X3922444Y-8946008D01*
X3922444Y-8946008D02*
X3931968Y-8955531D01*
X3931968Y-8955531D02*
X3941491Y-8974579D01*
X3941491Y-8974579D02*
X3941491Y-8984103D01*
X3941491Y-8984103D02*
X3931968Y-9003150D01*
X3931968Y-9003150D02*
X3922444Y-9012674D01*
X3922444Y-9012674D02*
X3903396Y-9022198D01*
X3903396Y-9022198D02*
X3865301Y-9022198D01*
X3865301Y-9022198D02*
X3846253Y-9031722D01*
X3846253Y-9031722D02*
X3836729Y-9041246D01*
X3836729Y-9041246D02*
X3827206Y-9060293D01*
X3827206Y-9060293D02*
X3827206Y-9098389D01*
X3827206Y-9098389D02*
X3836729Y-9117436D01*
X3836729Y-9117436D02*
X3846253Y-9126960D01*
X3846253Y-9126960D02*
X3865301Y-9136484D01*
X3865301Y-9136484D02*
X3903396Y-9136484D01*
X3903396Y-9136484D02*
X3922444Y-9126960D01*
X3922444Y-9126960D02*
X3931968Y-9117436D01*
X3931968Y-9117436D02*
X3941491Y-9098389D01*
X3941491Y-9098389D02*
X3941491Y-9060293D01*
X3941491Y-9060293D02*
X3931968Y-9041246D01*
X3931968Y-9041246D02*
X3922444Y-9031722D01*
X3922444Y-9031722D02*
X3903396Y-9022198D01*
X4179587Y-9136484D02*
X4179587Y-8936484D01*
X4265301Y-9136484D02*
X4265301Y-9031722D01*
X4265301Y-9031722D02*
X4255777Y-9012674D01*
X4255777Y-9012674D02*
X4236730Y-9003150D01*
X4236730Y-9003150D02*
X4208158Y-9003150D01*
X4208158Y-9003150D02*
X4189110Y-9012674D01*
X4189110Y-9012674D02*
X4179587Y-9022198D01*
X4389111Y-9136484D02*
X4370063Y-9126960D01*
X4370063Y-9126960D02*
X4360539Y-9117436D01*
X4360539Y-9117436D02*
X4351015Y-9098389D01*
X4351015Y-9098389D02*
X4351015Y-9041246D01*
X4351015Y-9041246D02*
X4360539Y-9022198D01*
X4360539Y-9022198D02*
X4370063Y-9012674D01*
X4370063Y-9012674D02*
X4389111Y-9003150D01*
X4389111Y-9003150D02*
X4417682Y-9003150D01*
X4417682Y-9003150D02*
X4436730Y-9012674D01*
X4436730Y-9012674D02*
X4446253Y-9022198D01*
X4446253Y-9022198D02*
X4455777Y-9041246D01*
X4455777Y-9041246D02*
X4455777Y-9098389D01*
X4455777Y-9098389D02*
X4446253Y-9117436D01*
X4446253Y-9117436D02*
X4436730Y-9126960D01*
X4436730Y-9126960D02*
X4417682Y-9136484D01*
X4417682Y-9136484D02*
X4389111Y-9136484D01*
X4570063Y-9136484D02*
X4551015Y-9126960D01*
X4551015Y-9126960D02*
X4541492Y-9107912D01*
X4541492Y-9107912D02*
X4541492Y-8936484D01*
X4722444Y-9126960D02*
X4703396Y-9136484D01*
X4703396Y-9136484D02*
X4665301Y-9136484D01*
X4665301Y-9136484D02*
X4646253Y-9126960D01*
X4646253Y-9126960D02*
X4636730Y-9107912D01*
X4636730Y-9107912D02*
X4636730Y-9031722D01*
X4636730Y-9031722D02*
X4646253Y-9012674D01*
X4646253Y-9012674D02*
X4665301Y-9003150D01*
X4665301Y-9003150D02*
X4703396Y-9003150D01*
X4703396Y-9003150D02*
X4722444Y-9012674D01*
X4722444Y-9012674D02*
X4731968Y-9031722D01*
X4731968Y-9031722D02*
X4731968Y-9050770D01*
X4731968Y-9050770D02*
X4636730Y-9069817D01*
X4808158Y-9126960D02*
X4827206Y-9136484D01*
X4827206Y-9136484D02*
X4865301Y-9136484D01*
X4865301Y-9136484D02*
X4884349Y-9126960D01*
X4884349Y-9126960D02*
X4893873Y-9107912D01*
X4893873Y-9107912D02*
X4893873Y-9098389D01*
X4893873Y-9098389D02*
X4884349Y-9079341D01*
X4884349Y-9079341D02*
X4865301Y-9069817D01*
X4865301Y-9069817D02*
X4836730Y-9069817D01*
X4836730Y-9069817D02*
X4817682Y-9060293D01*
X4817682Y-9060293D02*
X4808158Y-9041246D01*
X4808158Y-9041246D02*
X4808158Y-9031722D01*
X4808158Y-9031722D02*
X4817682Y-9012674D01*
X4817682Y-9012674D02*
X4836730Y-9003150D01*
X4836730Y-9003150D02*
X4865301Y-9003150D01*
X4865301Y-9003150D02*
X4884349Y-9012674D01*
X4960539Y-9212674D02*
X4970063Y-9203150D01*
X4970063Y-9203150D02*
X4989111Y-9174579D01*
X4989111Y-9174579D02*
X4998634Y-9155531D01*
X4998634Y-9155531D02*
X5008158Y-9126960D01*
X5008158Y-9126960D02*
X5017682Y-9079341D01*
X5017682Y-9079341D02*
X5017682Y-9041246D01*
X5017682Y-9041246D02*
X5008158Y-8993627D01*
X5008158Y-8993627D02*
X4998634Y-8965055D01*
X4998634Y-8965055D02*
X4989111Y-8946008D01*
X4989111Y-8946008D02*
X4970063Y-8917436D01*
X4970063Y-8917436D02*
X4960539Y-8907912D01*
D10*
X-5000Y-9309000D02*
G75*
G02*
X-35000Y-9309000I-15000J0D01*
G01*
X-35000Y-9309000D02*
G75*
G02*
X-5000Y-9309000I15000J0D01*
G01*
D11*
X293872Y-9200484D02*
X312920Y-9200484D01*
X312920Y-9200484D02*
X331967Y-9210008D01*
X331967Y-9210008D02*
X341491Y-9219531D01*
X341491Y-9219531D02*
X351015Y-9238579D01*
X351015Y-9238579D02*
X360539Y-9276674D01*
X360539Y-9276674D02*
X360539Y-9324293D01*
X360539Y-9324293D02*
X351015Y-9362389D01*
X351015Y-9362389D02*
X341491Y-9381436D01*
X341491Y-9381436D02*
X331967Y-9390960D01*
X331967Y-9390960D02*
X312920Y-9400484D01*
X312920Y-9400484D02*
X293872Y-9400484D01*
X293872Y-9400484D02*
X274824Y-9390960D01*
X274824Y-9390960D02*
X265301Y-9381436D01*
X265301Y-9381436D02*
X255777Y-9362389D01*
X255777Y-9362389D02*
X246253Y-9324293D01*
X246253Y-9324293D02*
X246253Y-9276674D01*
X246253Y-9276674D02*
X255777Y-9238579D01*
X255777Y-9238579D02*
X265301Y-9219531D01*
X265301Y-9219531D02*
X274824Y-9210008D01*
X274824Y-9210008D02*
X293872Y-9200484D01*
X446253Y-9381436D02*
X455777Y-9390960D01*
X455777Y-9390960D02*
X446253Y-9400484D01*
X446253Y-9400484D02*
X436729Y-9390960D01*
X436729Y-9390960D02*
X446253Y-9381436D01*
X446253Y-9381436D02*
X446253Y-9400484D01*
X522443Y-9200484D02*
X646253Y-9200484D01*
X646253Y-9200484D02*
X579586Y-9276674D01*
X579586Y-9276674D02*
X608158Y-9276674D01*
X608158Y-9276674D02*
X627205Y-9286198D01*
X627205Y-9286198D02*
X636729Y-9295722D01*
X636729Y-9295722D02*
X646253Y-9314770D01*
X646253Y-9314770D02*
X646253Y-9362389D01*
X646253Y-9362389D02*
X636729Y-9381436D01*
X636729Y-9381436D02*
X627205Y-9390960D01*
X627205Y-9390960D02*
X608158Y-9400484D01*
X608158Y-9400484D02*
X551015Y-9400484D01*
X551015Y-9400484D02*
X531967Y-9390960D01*
X531967Y-9390960D02*
X522443Y-9381436D01*
X770062Y-9200484D02*
X789110Y-9200484D01*
X789110Y-9200484D02*
X808158Y-9210008D01*
X808158Y-9210008D02*
X817682Y-9219531D01*
X817682Y-9219531D02*
X827205Y-9238579D01*
X827205Y-9238579D02*
X836729Y-9276674D01*
X836729Y-9276674D02*
X836729Y-9324293D01*
X836729Y-9324293D02*
X827205Y-9362389D01*
X827205Y-9362389D02*
X817682Y-9381436D01*
X817682Y-9381436D02*
X808158Y-9390960D01*
X808158Y-9390960D02*
X789110Y-9400484D01*
X789110Y-9400484D02*
X770062Y-9400484D01*
X770062Y-9400484D02*
X751015Y-9390960D01*
X751015Y-9390960D02*
X741491Y-9381436D01*
X741491Y-9381436D02*
X731967Y-9362389D01*
X731967Y-9362389D02*
X722443Y-9324293D01*
X722443Y-9324293D02*
X722443Y-9276674D01*
X722443Y-9276674D02*
X731967Y-9238579D01*
X731967Y-9238579D02*
X741491Y-9219531D01*
X741491Y-9219531D02*
X751015Y-9210008D01*
X751015Y-9210008D02*
X770062Y-9200484D01*
X960539Y-9200484D02*
X979586Y-9200484D01*
X979586Y-9200484D02*
X998634Y-9210008D01*
X998634Y-9210008D02*
X1008158Y-9219531D01*
X1008158Y-9219531D02*
X1017682Y-9238579D01*
X1017682Y-9238579D02*
X1027205Y-9276674D01*
X1027205Y-9276674D02*
X1027205Y-9324293D01*
X1027205Y-9324293D02*
X1017682Y-9362389D01*
X1017682Y-9362389D02*
X1008158Y-9381436D01*
X1008158Y-9381436D02*
X998634Y-9390960D01*
X998634Y-9390960D02*
X979586Y-9400484D01*
X979586Y-9400484D02*
X960539Y-9400484D01*
X960539Y-9400484D02*
X941491Y-9390960D01*
X941491Y-9390960D02*
X931967Y-9381436D01*
X931967Y-9381436D02*
X922443Y-9362389D01*
X922443Y-9362389D02*
X912920Y-9324293D01*
X912920Y-9324293D02*
X912920Y-9276674D01*
X912920Y-9276674D02*
X922443Y-9238579D01*
X922443Y-9238579D02*
X931967Y-9219531D01*
X931967Y-9219531D02*
X941491Y-9210008D01*
X941491Y-9210008D02*
X960539Y-9200484D01*
X1112920Y-9400484D02*
X1112920Y-9267150D01*
X1112920Y-9286198D02*
X1122444Y-9276674D01*
X1122444Y-9276674D02*
X1141491Y-9267150D01*
X1141491Y-9267150D02*
X1170063Y-9267150D01*
X1170063Y-9267150D02*
X1189110Y-9276674D01*
X1189110Y-9276674D02*
X1198634Y-9295722D01*
X1198634Y-9295722D02*
X1198634Y-9400484D01*
X1198634Y-9295722D02*
X1208158Y-9276674D01*
X1208158Y-9276674D02*
X1227205Y-9267150D01*
X1227205Y-9267150D02*
X1255777Y-9267150D01*
X1255777Y-9267150D02*
X1274825Y-9276674D01*
X1274825Y-9276674D02*
X1284348Y-9295722D01*
X1284348Y-9295722D02*
X1284348Y-9400484D01*
X1379586Y-9400484D02*
X1379586Y-9267150D01*
X1379586Y-9286198D02*
X1389110Y-9276674D01*
X1389110Y-9276674D02*
X1408158Y-9267150D01*
X1408158Y-9267150D02*
X1436729Y-9267150D01*
X1436729Y-9267150D02*
X1455777Y-9276674D01*
X1455777Y-9276674D02*
X1465301Y-9295722D01*
X1465301Y-9295722D02*
X1465301Y-9400484D01*
X1465301Y-9295722D02*
X1474824Y-9276674D01*
X1474824Y-9276674D02*
X1493872Y-9267150D01*
X1493872Y-9267150D02*
X1522443Y-9267150D01*
X1522443Y-9267150D02*
X1541491Y-9276674D01*
X1541491Y-9276674D02*
X1551015Y-9295722D01*
X1551015Y-9295722D02*
X1551015Y-9400484D01*
X1941491Y-9190960D02*
X1770063Y-9448103D01*
X2198634Y-9200484D02*
X2217682Y-9200484D01*
X2217682Y-9200484D02*
X2236729Y-9210008D01*
X2236729Y-9210008D02*
X2246253Y-9219531D01*
X2246253Y-9219531D02*
X2255777Y-9238579D01*
X2255777Y-9238579D02*
X2265301Y-9276674D01*
X2265301Y-9276674D02*
X2265301Y-9324293D01*
X2265301Y-9324293D02*
X2255777Y-9362389D01*
X2255777Y-9362389D02*
X2246253Y-9381436D01*
X2246253Y-9381436D02*
X2236729Y-9390960D01*
X2236729Y-9390960D02*
X2217682Y-9400484D01*
X2217682Y-9400484D02*
X2198634Y-9400484D01*
X2198634Y-9400484D02*
X2179587Y-9390960D01*
X2179587Y-9390960D02*
X2170063Y-9381436D01*
X2170063Y-9381436D02*
X2160539Y-9362389D01*
X2160539Y-9362389D02*
X2151015Y-9324293D01*
X2151015Y-9324293D02*
X2151015Y-9276674D01*
X2151015Y-9276674D02*
X2160539Y-9238579D01*
X2160539Y-9238579D02*
X2170063Y-9219531D01*
X2170063Y-9219531D02*
X2179587Y-9210008D01*
X2179587Y-9210008D02*
X2198634Y-9200484D01*
X2351015Y-9381436D02*
X2360539Y-9390960D01*
X2360539Y-9390960D02*
X2351015Y-9400484D01*
X2351015Y-9400484D02*
X2341491Y-9390960D01*
X2341491Y-9390960D02*
X2351015Y-9381436D01*
X2351015Y-9381436D02*
X2351015Y-9400484D01*
X2484348Y-9200484D02*
X2503396Y-9200484D01*
X2503396Y-9200484D02*
X2522444Y-9210008D01*
X2522444Y-9210008D02*
X2531968Y-9219531D01*
X2531968Y-9219531D02*
X2541491Y-9238579D01*
X2541491Y-9238579D02*
X2551015Y-9276674D01*
X2551015Y-9276674D02*
X2551015Y-9324293D01*
X2551015Y-9324293D02*
X2541491Y-9362389D01*
X2541491Y-9362389D02*
X2531968Y-9381436D01*
X2531968Y-9381436D02*
X2522444Y-9390960D01*
X2522444Y-9390960D02*
X2503396Y-9400484D01*
X2503396Y-9400484D02*
X2484348Y-9400484D01*
X2484348Y-9400484D02*
X2465301Y-9390960D01*
X2465301Y-9390960D02*
X2455777Y-9381436D01*
X2455777Y-9381436D02*
X2446253Y-9362389D01*
X2446253Y-9362389D02*
X2436729Y-9324293D01*
X2436729Y-9324293D02*
X2436729Y-9276674D01*
X2436729Y-9276674D02*
X2446253Y-9238579D01*
X2446253Y-9238579D02*
X2455777Y-9219531D01*
X2455777Y-9219531D02*
X2465301Y-9210008D01*
X2465301Y-9210008D02*
X2484348Y-9200484D01*
X2741491Y-9400484D02*
X2627206Y-9400484D01*
X2684348Y-9400484D02*
X2684348Y-9200484D01*
X2684348Y-9200484D02*
X2665301Y-9229055D01*
X2665301Y-9229055D02*
X2646253Y-9248103D01*
X2646253Y-9248103D02*
X2627206Y-9257627D01*
X2931967Y-9400484D02*
X2817682Y-9400484D01*
X2874825Y-9400484D02*
X2874825Y-9200484D01*
X2874825Y-9200484D02*
X2855777Y-9229055D01*
X2855777Y-9229055D02*
X2836729Y-9248103D01*
X2836729Y-9248103D02*
X2817682Y-9257627D01*
X3046253Y-9286198D02*
X3027206Y-9276674D01*
X3027206Y-9276674D02*
X3017682Y-9267150D01*
X3017682Y-9267150D02*
X3008158Y-9248103D01*
X3008158Y-9248103D02*
X3008158Y-9238579D01*
X3008158Y-9238579D02*
X3017682Y-9219531D01*
X3017682Y-9219531D02*
X3027206Y-9210008D01*
X3027206Y-9210008D02*
X3046253Y-9200484D01*
X3046253Y-9200484D02*
X3084348Y-9200484D01*
X3084348Y-9200484D02*
X3103396Y-9210008D01*
X3103396Y-9210008D02*
X3112920Y-9219531D01*
X3112920Y-9219531D02*
X3122444Y-9238579D01*
X3122444Y-9238579D02*
X3122444Y-9248103D01*
X3122444Y-9248103D02*
X3112920Y-9267150D01*
X3112920Y-9267150D02*
X3103396Y-9276674D01*
X3103396Y-9276674D02*
X3084348Y-9286198D01*
X3084348Y-9286198D02*
X3046253Y-9286198D01*
X3046253Y-9286198D02*
X3027206Y-9295722D01*
X3027206Y-9295722D02*
X3017682Y-9305246D01*
X3017682Y-9305246D02*
X3008158Y-9324293D01*
X3008158Y-9324293D02*
X3008158Y-9362389D01*
X3008158Y-9362389D02*
X3017682Y-9381436D01*
X3017682Y-9381436D02*
X3027206Y-9390960D01*
X3027206Y-9390960D02*
X3046253Y-9400484D01*
X3046253Y-9400484D02*
X3084348Y-9400484D01*
X3084348Y-9400484D02*
X3103396Y-9390960D01*
X3103396Y-9390960D02*
X3112920Y-9381436D01*
X3112920Y-9381436D02*
X3122444Y-9362389D01*
X3122444Y-9362389D02*
X3122444Y-9324293D01*
X3122444Y-9324293D02*
X3112920Y-9305246D01*
X3112920Y-9305246D02*
X3103396Y-9295722D01*
X3103396Y-9295722D02*
X3084348Y-9286198D01*
X3198634Y-9200484D02*
X3198634Y-9238579D01*
X3274825Y-9200484D02*
X3274825Y-9238579D01*
X3570063Y-9476674D02*
X3560539Y-9467150D01*
X3560539Y-9467150D02*
X3541491Y-9438579D01*
X3541491Y-9438579D02*
X3531968Y-9419531D01*
X3531968Y-9419531D02*
X3522444Y-9390960D01*
X3522444Y-9390960D02*
X3512920Y-9343341D01*
X3512920Y-9343341D02*
X3512920Y-9305246D01*
X3512920Y-9305246D02*
X3522444Y-9257627D01*
X3522444Y-9257627D02*
X3531968Y-9229055D01*
X3531968Y-9229055D02*
X3541491Y-9210008D01*
X3541491Y-9210008D02*
X3560539Y-9181436D01*
X3560539Y-9181436D02*
X3570063Y-9171912D01*
X3636729Y-9219531D02*
X3646253Y-9210008D01*
X3646253Y-9210008D02*
X3665301Y-9200484D01*
X3665301Y-9200484D02*
X3712920Y-9200484D01*
X3712920Y-9200484D02*
X3731968Y-9210008D01*
X3731968Y-9210008D02*
X3741491Y-9219531D01*
X3741491Y-9219531D02*
X3751015Y-9238579D01*
X3751015Y-9238579D02*
X3751015Y-9257627D01*
X3751015Y-9257627D02*
X3741491Y-9286198D01*
X3741491Y-9286198D02*
X3627206Y-9400484D01*
X3627206Y-9400484D02*
X3751015Y-9400484D01*
X3989110Y-9400484D02*
X3989110Y-9200484D01*
X4074825Y-9400484D02*
X4074825Y-9295722D01*
X4074825Y-9295722D02*
X4065301Y-9276674D01*
X4065301Y-9276674D02*
X4046253Y-9267150D01*
X4046253Y-9267150D02*
X4017682Y-9267150D01*
X4017682Y-9267150D02*
X3998634Y-9276674D01*
X3998634Y-9276674D02*
X3989110Y-9286198D01*
X4198634Y-9400484D02*
X4179587Y-9390960D01*
X4179587Y-9390960D02*
X4170063Y-9381436D01*
X4170063Y-9381436D02*
X4160539Y-9362389D01*
X4160539Y-9362389D02*
X4160539Y-9305246D01*
X4160539Y-9305246D02*
X4170063Y-9286198D01*
X4170063Y-9286198D02*
X4179587Y-9276674D01*
X4179587Y-9276674D02*
X4198634Y-9267150D01*
X4198634Y-9267150D02*
X4227206Y-9267150D01*
X4227206Y-9267150D02*
X4246253Y-9276674D01*
X4246253Y-9276674D02*
X4255777Y-9286198D01*
X4255777Y-9286198D02*
X4265301Y-9305246D01*
X4265301Y-9305246D02*
X4265301Y-9362389D01*
X4265301Y-9362389D02*
X4255777Y-9381436D01*
X4255777Y-9381436D02*
X4246253Y-9390960D01*
X4246253Y-9390960D02*
X4227206Y-9400484D01*
X4227206Y-9400484D02*
X4198634Y-9400484D01*
X4379587Y-9400484D02*
X4360539Y-9390960D01*
X4360539Y-9390960D02*
X4351015Y-9371912D01*
X4351015Y-9371912D02*
X4351015Y-9200484D01*
X4531968Y-9390960D02*
X4512920Y-9400484D01*
X4512920Y-9400484D02*
X4474825Y-9400484D01*
X4474825Y-9400484D02*
X4455777Y-9390960D01*
X4455777Y-9390960D02*
X4446253Y-9371912D01*
X4446253Y-9371912D02*
X4446253Y-9295722D01*
X4446253Y-9295722D02*
X4455777Y-9276674D01*
X4455777Y-9276674D02*
X4474825Y-9267150D01*
X4474825Y-9267150D02*
X4512920Y-9267150D01*
X4512920Y-9267150D02*
X4531968Y-9276674D01*
X4531968Y-9276674D02*
X4541492Y-9295722D01*
X4541492Y-9295722D02*
X4541492Y-9314770D01*
X4541492Y-9314770D02*
X4446253Y-9333817D01*
X4617682Y-9390960D02*
X4636730Y-9400484D01*
X4636730Y-9400484D02*
X4674825Y-9400484D01*
X4674825Y-9400484D02*
X4693873Y-9390960D01*
X4693873Y-9390960D02*
X4703396Y-9371912D01*
X4703396Y-9371912D02*
X4703396Y-9362389D01*
X4703396Y-9362389D02*
X4693873Y-9343341D01*
X4693873Y-9343341D02*
X4674825Y-9333817D01*
X4674825Y-9333817D02*
X4646253Y-9333817D01*
X4646253Y-9333817D02*
X4627206Y-9324293D01*
X4627206Y-9324293D02*
X4617682Y-9305246D01*
X4617682Y-9305246D02*
X4617682Y-9295722D01*
X4617682Y-9295722D02*
X4627206Y-9276674D01*
X4627206Y-9276674D02*
X4646253Y-9267150D01*
X4646253Y-9267150D02*
X4674825Y-9267150D01*
X4674825Y-9267150D02*
X4693873Y-9276674D01*
X4770063Y-9476674D02*
X4779587Y-9467150D01*
X4779587Y-9467150D02*
X4798634Y-9438579D01*
X4798634Y-9438579D02*
X4808158Y-9419531D01*
X4808158Y-9419531D02*
X4817682Y-9390960D01*
X4817682Y-9390960D02*
X4827206Y-9343341D01*
X4827206Y-9343341D02*
X4827206Y-9305246D01*
X4827206Y-9305246D02*
X4817682Y-9257627D01*
X4817682Y-9257627D02*
X4808158Y-9229055D01*
X4808158Y-9229055D02*
X4798634Y-9210008D01*
X4798634Y-9210008D02*
X4779587Y-9181436D01*
X4779587Y-9181436D02*
X4770063Y-9171912D01*
D10*
X-30000Y-9548000D02*
X-30000Y-9598000D01*
X-55000Y-9573000D02*
X-5000Y-9573000D01*
D11*
X293872Y-9464484D02*
X312920Y-9464484D01*
X312920Y-9464484D02*
X331967Y-9474008D01*
X331967Y-9474008D02*
X341491Y-9483531D01*
X341491Y-9483531D02*
X351015Y-9502579D01*
X351015Y-9502579D02*
X360539Y-9540674D01*
X360539Y-9540674D02*
X360539Y-9588293D01*
X360539Y-9588293D02*
X351015Y-9626389D01*
X351015Y-9626389D02*
X341491Y-9645436D01*
X341491Y-9645436D02*
X331967Y-9654960D01*
X331967Y-9654960D02*
X312920Y-9664484D01*
X312920Y-9664484D02*
X293872Y-9664484D01*
X293872Y-9664484D02*
X274824Y-9654960D01*
X274824Y-9654960D02*
X265301Y-9645436D01*
X265301Y-9645436D02*
X255777Y-9626389D01*
X255777Y-9626389D02*
X246253Y-9588293D01*
X246253Y-9588293D02*
X246253Y-9540674D01*
X246253Y-9540674D02*
X255777Y-9502579D01*
X255777Y-9502579D02*
X265301Y-9483531D01*
X265301Y-9483531D02*
X274824Y-9474008D01*
X274824Y-9474008D02*
X293872Y-9464484D01*
X446253Y-9645436D02*
X455777Y-9654960D01*
X455777Y-9654960D02*
X446253Y-9664484D01*
X446253Y-9664484D02*
X436729Y-9654960D01*
X436729Y-9654960D02*
X446253Y-9645436D01*
X446253Y-9645436D02*
X446253Y-9664484D01*
X636729Y-9464484D02*
X541491Y-9464484D01*
X541491Y-9464484D02*
X531967Y-9559722D01*
X531967Y-9559722D02*
X541491Y-9550198D01*
X541491Y-9550198D02*
X560539Y-9540674D01*
X560539Y-9540674D02*
X608158Y-9540674D01*
X608158Y-9540674D02*
X627205Y-9550198D01*
X627205Y-9550198D02*
X636729Y-9559722D01*
X636729Y-9559722D02*
X646253Y-9578770D01*
X646253Y-9578770D02*
X646253Y-9626389D01*
X646253Y-9626389D02*
X636729Y-9645436D01*
X636729Y-9645436D02*
X627205Y-9654960D01*
X627205Y-9654960D02*
X608158Y-9664484D01*
X608158Y-9664484D02*
X560539Y-9664484D01*
X560539Y-9664484D02*
X541491Y-9654960D01*
X541491Y-9654960D02*
X531967Y-9645436D01*
X770062Y-9464484D02*
X789110Y-9464484D01*
X789110Y-9464484D02*
X808158Y-9474008D01*
X808158Y-9474008D02*
X817682Y-9483531D01*
X817682Y-9483531D02*
X827205Y-9502579D01*
X827205Y-9502579D02*
X836729Y-9540674D01*
X836729Y-9540674D02*
X836729Y-9588293D01*
X836729Y-9588293D02*
X827205Y-9626389D01*
X827205Y-9626389D02*
X817682Y-9645436D01*
X817682Y-9645436D02*
X808158Y-9654960D01*
X808158Y-9654960D02*
X789110Y-9664484D01*
X789110Y-9664484D02*
X770062Y-9664484D01*
X770062Y-9664484D02*
X751015Y-9654960D01*
X751015Y-9654960D02*
X741491Y-9645436D01*
X741491Y-9645436D02*
X731967Y-9626389D01*
X731967Y-9626389D02*
X722443Y-9588293D01*
X722443Y-9588293D02*
X722443Y-9540674D01*
X722443Y-9540674D02*
X731967Y-9502579D01*
X731967Y-9502579D02*
X741491Y-9483531D01*
X741491Y-9483531D02*
X751015Y-9474008D01*
X751015Y-9474008D02*
X770062Y-9464484D01*
X960539Y-9464484D02*
X979586Y-9464484D01*
X979586Y-9464484D02*
X998634Y-9474008D01*
X998634Y-9474008D02*
X1008158Y-9483531D01*
X1008158Y-9483531D02*
X1017682Y-9502579D01*
X1017682Y-9502579D02*
X1027205Y-9540674D01*
X1027205Y-9540674D02*
X1027205Y-9588293D01*
X1027205Y-9588293D02*
X1017682Y-9626389D01*
X1017682Y-9626389D02*
X1008158Y-9645436D01*
X1008158Y-9645436D02*
X998634Y-9654960D01*
X998634Y-9654960D02*
X979586Y-9664484D01*
X979586Y-9664484D02*
X960539Y-9664484D01*
X960539Y-9664484D02*
X941491Y-9654960D01*
X941491Y-9654960D02*
X931967Y-9645436D01*
X931967Y-9645436D02*
X922443Y-9626389D01*
X922443Y-9626389D02*
X912920Y-9588293D01*
X912920Y-9588293D02*
X912920Y-9540674D01*
X912920Y-9540674D02*
X922443Y-9502579D01*
X922443Y-9502579D02*
X931967Y-9483531D01*
X931967Y-9483531D02*
X941491Y-9474008D01*
X941491Y-9474008D02*
X960539Y-9464484D01*
X1112920Y-9664484D02*
X1112920Y-9531150D01*
X1112920Y-9550198D02*
X1122444Y-9540674D01*
X1122444Y-9540674D02*
X1141491Y-9531150D01*
X1141491Y-9531150D02*
X1170063Y-9531150D01*
X1170063Y-9531150D02*
X1189110Y-9540674D01*
X1189110Y-9540674D02*
X1198634Y-9559722D01*
X1198634Y-9559722D02*
X1198634Y-9664484D01*
X1198634Y-9559722D02*
X1208158Y-9540674D01*
X1208158Y-9540674D02*
X1227205Y-9531150D01*
X1227205Y-9531150D02*
X1255777Y-9531150D01*
X1255777Y-9531150D02*
X1274825Y-9540674D01*
X1274825Y-9540674D02*
X1284348Y-9559722D01*
X1284348Y-9559722D02*
X1284348Y-9664484D01*
X1379586Y-9664484D02*
X1379586Y-9531150D01*
X1379586Y-9550198D02*
X1389110Y-9540674D01*
X1389110Y-9540674D02*
X1408158Y-9531150D01*
X1408158Y-9531150D02*
X1436729Y-9531150D01*
X1436729Y-9531150D02*
X1455777Y-9540674D01*
X1455777Y-9540674D02*
X1465301Y-9559722D01*
X1465301Y-9559722D02*
X1465301Y-9664484D01*
X1465301Y-9559722D02*
X1474824Y-9540674D01*
X1474824Y-9540674D02*
X1493872Y-9531150D01*
X1493872Y-9531150D02*
X1522443Y-9531150D01*
X1522443Y-9531150D02*
X1541491Y-9540674D01*
X1541491Y-9540674D02*
X1551015Y-9559722D01*
X1551015Y-9559722D02*
X1551015Y-9664484D01*
X1941491Y-9454960D02*
X1770063Y-9712103D01*
X2198634Y-9464484D02*
X2217682Y-9464484D01*
X2217682Y-9464484D02*
X2236729Y-9474008D01*
X2236729Y-9474008D02*
X2246253Y-9483531D01*
X2246253Y-9483531D02*
X2255777Y-9502579D01*
X2255777Y-9502579D02*
X2265301Y-9540674D01*
X2265301Y-9540674D02*
X2265301Y-9588293D01*
X2265301Y-9588293D02*
X2255777Y-9626389D01*
X2255777Y-9626389D02*
X2246253Y-9645436D01*
X2246253Y-9645436D02*
X2236729Y-9654960D01*
X2236729Y-9654960D02*
X2217682Y-9664484D01*
X2217682Y-9664484D02*
X2198634Y-9664484D01*
X2198634Y-9664484D02*
X2179587Y-9654960D01*
X2179587Y-9654960D02*
X2170063Y-9645436D01*
X2170063Y-9645436D02*
X2160539Y-9626389D01*
X2160539Y-9626389D02*
X2151015Y-9588293D01*
X2151015Y-9588293D02*
X2151015Y-9540674D01*
X2151015Y-9540674D02*
X2160539Y-9502579D01*
X2160539Y-9502579D02*
X2170063Y-9483531D01*
X2170063Y-9483531D02*
X2179587Y-9474008D01*
X2179587Y-9474008D02*
X2198634Y-9464484D01*
X2351015Y-9645436D02*
X2360539Y-9654960D01*
X2360539Y-9654960D02*
X2351015Y-9664484D01*
X2351015Y-9664484D02*
X2341491Y-9654960D01*
X2341491Y-9654960D02*
X2351015Y-9645436D01*
X2351015Y-9645436D02*
X2351015Y-9664484D01*
X2484348Y-9464484D02*
X2503396Y-9464484D01*
X2503396Y-9464484D02*
X2522444Y-9474008D01*
X2522444Y-9474008D02*
X2531968Y-9483531D01*
X2531968Y-9483531D02*
X2541491Y-9502579D01*
X2541491Y-9502579D02*
X2551015Y-9540674D01*
X2551015Y-9540674D02*
X2551015Y-9588293D01*
X2551015Y-9588293D02*
X2541491Y-9626389D01*
X2541491Y-9626389D02*
X2531968Y-9645436D01*
X2531968Y-9645436D02*
X2522444Y-9654960D01*
X2522444Y-9654960D02*
X2503396Y-9664484D01*
X2503396Y-9664484D02*
X2484348Y-9664484D01*
X2484348Y-9664484D02*
X2465301Y-9654960D01*
X2465301Y-9654960D02*
X2455777Y-9645436D01*
X2455777Y-9645436D02*
X2446253Y-9626389D01*
X2446253Y-9626389D02*
X2436729Y-9588293D01*
X2436729Y-9588293D02*
X2436729Y-9540674D01*
X2436729Y-9540674D02*
X2446253Y-9502579D01*
X2446253Y-9502579D02*
X2455777Y-9483531D01*
X2455777Y-9483531D02*
X2465301Y-9474008D01*
X2465301Y-9474008D02*
X2484348Y-9464484D01*
X2741491Y-9664484D02*
X2627206Y-9664484D01*
X2684348Y-9664484D02*
X2684348Y-9464484D01*
X2684348Y-9464484D02*
X2665301Y-9493055D01*
X2665301Y-9493055D02*
X2646253Y-9512103D01*
X2646253Y-9512103D02*
X2627206Y-9521627D01*
X2836729Y-9664484D02*
X2874825Y-9664484D01*
X2874825Y-9664484D02*
X2893872Y-9654960D01*
X2893872Y-9654960D02*
X2903396Y-9645436D01*
X2903396Y-9645436D02*
X2922444Y-9616865D01*
X2922444Y-9616865D02*
X2931967Y-9578770D01*
X2931967Y-9578770D02*
X2931967Y-9502579D01*
X2931967Y-9502579D02*
X2922444Y-9483531D01*
X2922444Y-9483531D02*
X2912920Y-9474008D01*
X2912920Y-9474008D02*
X2893872Y-9464484D01*
X2893872Y-9464484D02*
X2855777Y-9464484D01*
X2855777Y-9464484D02*
X2836729Y-9474008D01*
X2836729Y-9474008D02*
X2827206Y-9483531D01*
X2827206Y-9483531D02*
X2817682Y-9502579D01*
X2817682Y-9502579D02*
X2817682Y-9550198D01*
X2817682Y-9550198D02*
X2827206Y-9569246D01*
X2827206Y-9569246D02*
X2836729Y-9578770D01*
X2836729Y-9578770D02*
X2855777Y-9588293D01*
X2855777Y-9588293D02*
X2893872Y-9588293D01*
X2893872Y-9588293D02*
X2912920Y-9578770D01*
X2912920Y-9578770D02*
X2922444Y-9569246D01*
X2922444Y-9569246D02*
X2931967Y-9550198D01*
X2998634Y-9464484D02*
X3131967Y-9464484D01*
X3131967Y-9464484D02*
X3046253Y-9664484D01*
X3198634Y-9464484D02*
X3198634Y-9502579D01*
X3274825Y-9464484D02*
X3274825Y-9502579D01*
X3570063Y-9740674D02*
X3560539Y-9731150D01*
X3560539Y-9731150D02*
X3541491Y-9702579D01*
X3541491Y-9702579D02*
X3531968Y-9683531D01*
X3531968Y-9683531D02*
X3522444Y-9654960D01*
X3522444Y-9654960D02*
X3512920Y-9607341D01*
X3512920Y-9607341D02*
X3512920Y-9569246D01*
X3512920Y-9569246D02*
X3522444Y-9521627D01*
X3522444Y-9521627D02*
X3531968Y-9493055D01*
X3531968Y-9493055D02*
X3541491Y-9474008D01*
X3541491Y-9474008D02*
X3560539Y-9445436D01*
X3560539Y-9445436D02*
X3570063Y-9435912D01*
X3684348Y-9464484D02*
X3703396Y-9464484D01*
X3703396Y-9464484D02*
X3722444Y-9474008D01*
X3722444Y-9474008D02*
X3731968Y-9483531D01*
X3731968Y-9483531D02*
X3741491Y-9502579D01*
X3741491Y-9502579D02*
X3751015Y-9540674D01*
X3751015Y-9540674D02*
X3751015Y-9588293D01*
X3751015Y-9588293D02*
X3741491Y-9626389D01*
X3741491Y-9626389D02*
X3731968Y-9645436D01*
X3731968Y-9645436D02*
X3722444Y-9654960D01*
X3722444Y-9654960D02*
X3703396Y-9664484D01*
X3703396Y-9664484D02*
X3684348Y-9664484D01*
X3684348Y-9664484D02*
X3665301Y-9654960D01*
X3665301Y-9654960D02*
X3655777Y-9645436D01*
X3655777Y-9645436D02*
X3646253Y-9626389D01*
X3646253Y-9626389D02*
X3636729Y-9588293D01*
X3636729Y-9588293D02*
X3636729Y-9540674D01*
X3636729Y-9540674D02*
X3646253Y-9502579D01*
X3646253Y-9502579D02*
X3655777Y-9483531D01*
X3655777Y-9483531D02*
X3665301Y-9474008D01*
X3665301Y-9474008D02*
X3684348Y-9464484D01*
X3989110Y-9664484D02*
X3989110Y-9464484D01*
X4074825Y-9664484D02*
X4074825Y-9559722D01*
X4074825Y-9559722D02*
X4065301Y-9540674D01*
X4065301Y-9540674D02*
X4046253Y-9531150D01*
X4046253Y-9531150D02*
X4017682Y-9531150D01*
X4017682Y-9531150D02*
X3998634Y-9540674D01*
X3998634Y-9540674D02*
X3989110Y-9550198D01*
X4198634Y-9664484D02*
X4179587Y-9654960D01*
X4179587Y-9654960D02*
X4170063Y-9645436D01*
X4170063Y-9645436D02*
X4160539Y-9626389D01*
X4160539Y-9626389D02*
X4160539Y-9569246D01*
X4160539Y-9569246D02*
X4170063Y-9550198D01*
X4170063Y-9550198D02*
X4179587Y-9540674D01*
X4179587Y-9540674D02*
X4198634Y-9531150D01*
X4198634Y-9531150D02*
X4227206Y-9531150D01*
X4227206Y-9531150D02*
X4246253Y-9540674D01*
X4246253Y-9540674D02*
X4255777Y-9550198D01*
X4255777Y-9550198D02*
X4265301Y-9569246D01*
X4265301Y-9569246D02*
X4265301Y-9626389D01*
X4265301Y-9626389D02*
X4255777Y-9645436D01*
X4255777Y-9645436D02*
X4246253Y-9654960D01*
X4246253Y-9654960D02*
X4227206Y-9664484D01*
X4227206Y-9664484D02*
X4198634Y-9664484D01*
X4379587Y-9664484D02*
X4360539Y-9654960D01*
X4360539Y-9654960D02*
X4351015Y-9635912D01*
X4351015Y-9635912D02*
X4351015Y-9464484D01*
X4531968Y-9654960D02*
X4512920Y-9664484D01*
X4512920Y-9664484D02*
X4474825Y-9664484D01*
X4474825Y-9664484D02*
X4455777Y-9654960D01*
X4455777Y-9654960D02*
X4446253Y-9635912D01*
X4446253Y-9635912D02*
X4446253Y-9559722D01*
X4446253Y-9559722D02*
X4455777Y-9540674D01*
X4455777Y-9540674D02*
X4474825Y-9531150D01*
X4474825Y-9531150D02*
X4512920Y-9531150D01*
X4512920Y-9531150D02*
X4531968Y-9540674D01*
X4531968Y-9540674D02*
X4541492Y-9559722D01*
X4541492Y-9559722D02*
X4541492Y-9578770D01*
X4541492Y-9578770D02*
X4446253Y-9597817D01*
X4617682Y-9654960D02*
X4636730Y-9664484D01*
X4636730Y-9664484D02*
X4674825Y-9664484D01*
X4674825Y-9664484D02*
X4693873Y-9654960D01*
X4693873Y-9654960D02*
X4703396Y-9635912D01*
X4703396Y-9635912D02*
X4703396Y-9626389D01*
X4703396Y-9626389D02*
X4693873Y-9607341D01*
X4693873Y-9607341D02*
X4674825Y-9597817D01*
X4674825Y-9597817D02*
X4646253Y-9597817D01*
X4646253Y-9597817D02*
X4627206Y-9588293D01*
X4627206Y-9588293D02*
X4617682Y-9569246D01*
X4617682Y-9569246D02*
X4617682Y-9559722D01*
X4617682Y-9559722D02*
X4627206Y-9540674D01*
X4627206Y-9540674D02*
X4646253Y-9531150D01*
X4646253Y-9531150D02*
X4674825Y-9531150D01*
X4674825Y-9531150D02*
X4693873Y-9540674D01*
X4941492Y-9588293D02*
X5093873Y-9588293D01*
X5017682Y-9664484D02*
X5017682Y-9512103D01*
X5427206Y-9531150D02*
X5427206Y-9664484D01*
X5379587Y-9454960D02*
X5331968Y-9597817D01*
X5331968Y-9597817D02*
X5455777Y-9597817D01*
X5674825Y-9654960D02*
X5693873Y-9664484D01*
X5693873Y-9664484D02*
X5731968Y-9664484D01*
X5731968Y-9664484D02*
X5751015Y-9654960D01*
X5751015Y-9654960D02*
X5760539Y-9635912D01*
X5760539Y-9635912D02*
X5760539Y-9626389D01*
X5760539Y-9626389D02*
X5751015Y-9607341D01*
X5751015Y-9607341D02*
X5731968Y-9597817D01*
X5731968Y-9597817D02*
X5703396Y-9597817D01*
X5703396Y-9597817D02*
X5684349Y-9588293D01*
X5684349Y-9588293D02*
X5674825Y-9569246D01*
X5674825Y-9569246D02*
X5674825Y-9559722D01*
X5674825Y-9559722D02*
X5684349Y-9540674D01*
X5684349Y-9540674D02*
X5703396Y-9531150D01*
X5703396Y-9531150D02*
X5731968Y-9531150D01*
X5731968Y-9531150D02*
X5751015Y-9540674D01*
X5874825Y-9664484D02*
X5855777Y-9654960D01*
X5855777Y-9654960D02*
X5846254Y-9635912D01*
X5846254Y-9635912D02*
X5846254Y-9464484D01*
X5979587Y-9664484D02*
X5960539Y-9654960D01*
X5960539Y-9654960D02*
X5951015Y-9645436D01*
X5951015Y-9645436D02*
X5941492Y-9626389D01*
X5941492Y-9626389D02*
X5941492Y-9569246D01*
X5941492Y-9569246D02*
X5951015Y-9550198D01*
X5951015Y-9550198D02*
X5960539Y-9540674D01*
X5960539Y-9540674D02*
X5979587Y-9531150D01*
X5979587Y-9531150D02*
X6008158Y-9531150D01*
X6008158Y-9531150D02*
X6027206Y-9540674D01*
X6027206Y-9540674D02*
X6036730Y-9550198D01*
X6036730Y-9550198D02*
X6046254Y-9569246D01*
X6046254Y-9569246D02*
X6046254Y-9626389D01*
X6046254Y-9626389D02*
X6036730Y-9645436D01*
X6036730Y-9645436D02*
X6027206Y-9654960D01*
X6027206Y-9654960D02*
X6008158Y-9664484D01*
X6008158Y-9664484D02*
X5979587Y-9664484D01*
X6103396Y-9531150D02*
X6179587Y-9531150D01*
X6131968Y-9464484D02*
X6131968Y-9635912D01*
X6131968Y-9635912D02*
X6141492Y-9654960D01*
X6141492Y-9654960D02*
X6160539Y-9664484D01*
X6160539Y-9664484D02*
X6179587Y-9664484D01*
X6236730Y-9654960D02*
X6255777Y-9664484D01*
X6255777Y-9664484D02*
X6293873Y-9664484D01*
X6293873Y-9664484D02*
X6312920Y-9654960D01*
X6312920Y-9654960D02*
X6322444Y-9635912D01*
X6322444Y-9635912D02*
X6322444Y-9626389D01*
X6322444Y-9626389D02*
X6312920Y-9607341D01*
X6312920Y-9607341D02*
X6293873Y-9597817D01*
X6293873Y-9597817D02*
X6265301Y-9597817D01*
X6265301Y-9597817D02*
X6246254Y-9588293D01*
X6246254Y-9588293D02*
X6236730Y-9569246D01*
X6236730Y-9569246D02*
X6236730Y-9559722D01*
X6236730Y-9559722D02*
X6246254Y-9540674D01*
X6246254Y-9540674D02*
X6265301Y-9531150D01*
X6265301Y-9531150D02*
X6293873Y-9531150D01*
X6293873Y-9531150D02*
X6312920Y-9540674D01*
X6389111Y-9740674D02*
X6398635Y-9731150D01*
X6398635Y-9731150D02*
X6417682Y-9702579D01*
X6417682Y-9702579D02*
X6427206Y-9683531D01*
X6427206Y-9683531D02*
X6436730Y-9654960D01*
X6436730Y-9654960D02*
X6446254Y-9607341D01*
X6446254Y-9607341D02*
X6446254Y-9569246D01*
X6446254Y-9569246D02*
X6436730Y-9521627D01*
X6436730Y-9521627D02*
X6427206Y-9493055D01*
X6427206Y-9493055D02*
X6417682Y-9474008D01*
X6417682Y-9474008D02*
X6398635Y-9445436D01*
X6398635Y-9445436D02*
X6389111Y-9435912D01*
M02*
