%TF.GenerationSoftware,KiCad,Pcbnew,9.0.9-9.0.9~ubuntu24.04.1*%
%TF.CreationDate,2026-09-13T17:28:16+00:00*%
%TF.ProjectId,badge,62616467-652e-46b6-9963-61645f706362,rev?*%
%TF.SameCoordinates,Original*%
%TF.FileFunction,Drillmap*%
%TF.FilePolarity,Positive*%
%FSLAX45Y45*%
G04 Gerber Fmt 4.5, Leading zero omitted, Abs format (unit mm)*
G04 Created by KiCad (PCBNEW 9.0.9-9.0.9~ubuntu24.04.1) date 2026-09-13 17:28:16*
%MOMM*%
%LPD*%
G01*
G04 APERTURE LIST*
%ADD10C,0.100000*%
%ADD11C,0.200000*%
G04 APERTURE END LIST*
D10*
X0Y-200000D02*
G75*
G02*
X200000Y0I200000J0D01*
G01*
X0Y-8200000D02*
X0Y-200000D01*
X200000Y0D02*
X8900000Y0D01*
X200000Y-8400000D02*
G75*
G02*
X0Y-8200000I0J200000D01*
G01*
X2800000Y-7760000D02*
X5600000Y-7760000D01*
X2800000Y-7960000D02*
G75*
G02*
X2800000Y-7760000I0J100000D01*
G01*
X5600000Y-7760000D02*
G75*
G02*
X5600000Y-7960000I0J-100000D01*
G01*
X5600000Y-7960000D02*
X2800000Y-7960000D01*
X7032500Y-7795000D02*
X7032500Y-8400000D01*
X7032500Y-8400000D02*
X200000Y-8400000D01*
X7967500Y-7795000D02*
X7032500Y-7795000D01*
X7967500Y-8400000D02*
X7967500Y-7795000D01*
X8900000Y0D02*
G75*
G02*
X9100000Y-200000I0J-200000D01*
G01*
X8900000Y-8400000D02*
X7967500Y-8400000D01*
X9100000Y-200000D02*
X9100000Y-8200000D01*
X9100000Y-8200000D02*
G75*
G02*
X8900000Y-8400000I-200000J0D01*
G01*
D11*
D10*
X7092500Y-7725000D02*
X7157500Y-7790000D01*
X7157500Y-7725000D02*
X7092500Y-7790000D01*
X7842500Y-7725000D02*
X7907500Y-7790000D01*
X7907500Y-7725000D02*
X7842500Y-7790000D01*
D11*
X255777Y-8716484D02*
X255777Y-8516484D01*
X255777Y-8516484D02*
X303396Y-8516484D01*
X303396Y-8516484D02*
X331967Y-8526008D01*
X331967Y-8526008D02*
X351015Y-8545055D01*
X351015Y-8545055D02*
X360539Y-8564103D01*
X360539Y-8564103D02*
X370062Y-8602198D01*
X370062Y-8602198D02*
X370062Y-8630770D01*
X370062Y-8630770D02*
X360539Y-8668865D01*
X360539Y-8668865D02*
X351015Y-8687912D01*
X351015Y-8687912D02*
X331967Y-8706960D01*
X331967Y-8706960D02*
X303396Y-8716484D01*
X303396Y-8716484D02*
X255777Y-8716484D01*
X455777Y-8716484D02*
X455777Y-8583150D01*
X455777Y-8621246D02*
X465301Y-8602198D01*
X465301Y-8602198D02*
X474824Y-8592674D01*
X474824Y-8592674D02*
X493872Y-8583150D01*
X493872Y-8583150D02*
X512920Y-8583150D01*
X579586Y-8716484D02*
X579586Y-8583150D01*
X579586Y-8516484D02*
X570063Y-8526008D01*
X570063Y-8526008D02*
X579586Y-8535531D01*
X579586Y-8535531D02*
X589110Y-8526008D01*
X589110Y-8526008D02*
X579586Y-8516484D01*
X579586Y-8516484D02*
X579586Y-8535531D01*
X703396Y-8716484D02*
X684348Y-8706960D01*
X684348Y-8706960D02*
X674824Y-8687912D01*
X674824Y-8687912D02*
X674824Y-8516484D01*
X808158Y-8716484D02*
X789110Y-8706960D01*
X789110Y-8706960D02*
X779586Y-8687912D01*
X779586Y-8687912D02*
X779586Y-8516484D01*
X1036729Y-8716484D02*
X1036729Y-8516484D01*
X1036729Y-8516484D02*
X1103396Y-8659341D01*
X1103396Y-8659341D02*
X1170063Y-8516484D01*
X1170063Y-8516484D02*
X1170063Y-8716484D01*
X1351015Y-8716484D02*
X1351015Y-8611722D01*
X1351015Y-8611722D02*
X1341491Y-8592674D01*
X1341491Y-8592674D02*
X1322444Y-8583150D01*
X1322444Y-8583150D02*
X1284348Y-8583150D01*
X1284348Y-8583150D02*
X1265301Y-8592674D01*
X1351015Y-8706960D02*
X1331967Y-8716484D01*
X1331967Y-8716484D02*
X1284348Y-8716484D01*
X1284348Y-8716484D02*
X1265301Y-8706960D01*
X1265301Y-8706960D02*
X1255777Y-8687912D01*
X1255777Y-8687912D02*
X1255777Y-8668865D01*
X1255777Y-8668865D02*
X1265301Y-8649817D01*
X1265301Y-8649817D02*
X1284348Y-8640293D01*
X1284348Y-8640293D02*
X1331967Y-8640293D01*
X1331967Y-8640293D02*
X1351015Y-8630770D01*
X1446253Y-8583150D02*
X1446253Y-8783150D01*
X1446253Y-8592674D02*
X1465301Y-8583150D01*
X1465301Y-8583150D02*
X1503396Y-8583150D01*
X1503396Y-8583150D02*
X1522443Y-8592674D01*
X1522443Y-8592674D02*
X1531967Y-8602198D01*
X1531967Y-8602198D02*
X1541491Y-8621246D01*
X1541491Y-8621246D02*
X1541491Y-8678389D01*
X1541491Y-8678389D02*
X1531967Y-8697436D01*
X1531967Y-8697436D02*
X1522443Y-8706960D01*
X1522443Y-8706960D02*
X1503396Y-8716484D01*
X1503396Y-8716484D02*
X1465301Y-8716484D01*
X1465301Y-8716484D02*
X1446253Y-8706960D01*
X1627205Y-8697436D02*
X1636729Y-8706960D01*
X1636729Y-8706960D02*
X1627205Y-8716484D01*
X1627205Y-8716484D02*
X1617682Y-8706960D01*
X1617682Y-8706960D02*
X1627205Y-8697436D01*
X1627205Y-8697436D02*
X1627205Y-8716484D01*
X1627205Y-8592674D02*
X1636729Y-8602198D01*
X1636729Y-8602198D02*
X1627205Y-8611722D01*
X1627205Y-8611722D02*
X1617682Y-8602198D01*
X1617682Y-8602198D02*
X1627205Y-8592674D01*
X1627205Y-8592674D02*
X1627205Y-8611722D01*
D10*
X-70000Y-9012500D02*
X-5000Y-9077500D01*
X-5000Y-9012500D02*
X-70000Y-9077500D01*
D11*
X293872Y-8936484D02*
X312920Y-8936484D01*
X312920Y-8936484D02*
X331967Y-8946008D01*
X331967Y-8946008D02*
X341491Y-8955531D01*
X341491Y-8955531D02*
X351015Y-8974579D01*
X351015Y-8974579D02*
X360539Y-9012674D01*
X360539Y-9012674D02*
X360539Y-9060293D01*
X360539Y-9060293D02*
X351015Y-9098389D01*
X351015Y-9098389D02*
X341491Y-9117436D01*
X341491Y-9117436D02*
X331967Y-9126960D01*
X331967Y-9126960D02*
X312920Y-9136484D01*
X312920Y-9136484D02*
X293872Y-9136484D01*
X293872Y-9136484D02*
X274824Y-9126960D01*
X274824Y-9126960D02*
X265301Y-9117436D01*
X265301Y-9117436D02*
X255777Y-9098389D01*
X255777Y-9098389D02*
X246253Y-9060293D01*
X246253Y-9060293D02*
X246253Y-9012674D01*
X246253Y-9012674D02*
X255777Y-8974579D01*
X255777Y-8974579D02*
X265301Y-8955531D01*
X265301Y-8955531D02*
X274824Y-8946008D01*
X274824Y-8946008D02*
X293872Y-8936484D01*
X446253Y-9117436D02*
X455777Y-9126960D01*
X455777Y-9126960D02*
X446253Y-9136484D01*
X446253Y-9136484D02*
X436729Y-9126960D01*
X436729Y-9126960D02*
X446253Y-9117436D01*
X446253Y-9117436D02*
X446253Y-9136484D01*
X627205Y-8936484D02*
X589110Y-8936484D01*
X589110Y-8936484D02*
X570063Y-8946008D01*
X570063Y-8946008D02*
X560539Y-8955531D01*
X560539Y-8955531D02*
X541491Y-8984103D01*
X541491Y-8984103D02*
X531967Y-9022198D01*
X531967Y-9022198D02*
X531967Y-9098389D01*
X531967Y-9098389D02*
X541491Y-9117436D01*
X541491Y-9117436D02*
X551015Y-9126960D01*
X551015Y-9126960D02*
X570063Y-9136484D01*
X570063Y-9136484D02*
X608158Y-9136484D01*
X608158Y-9136484D02*
X627205Y-9126960D01*
X627205Y-9126960D02*
X636729Y-9117436D01*
X636729Y-9117436D02*
X646253Y-9098389D01*
X646253Y-9098389D02*
X646253Y-9050770D01*
X646253Y-9050770D02*
X636729Y-9031722D01*
X636729Y-9031722D02*
X627205Y-9022198D01*
X627205Y-9022198D02*
X608158Y-9012674D01*
X608158Y-9012674D02*
X570063Y-9012674D01*
X570063Y-9012674D02*
X551015Y-9022198D01*
X551015Y-9022198D02*
X541491Y-9031722D01*
X541491Y-9031722D02*
X531967Y-9050770D01*
X827205Y-8936484D02*
X731967Y-8936484D01*
X731967Y-8936484D02*
X722443Y-9031722D01*
X722443Y-9031722D02*
X731967Y-9022198D01*
X731967Y-9022198D02*
X751015Y-9012674D01*
X751015Y-9012674D02*
X798634Y-9012674D01*
X798634Y-9012674D02*
X817682Y-9022198D01*
X817682Y-9022198D02*
X827205Y-9031722D01*
X827205Y-9031722D02*
X836729Y-9050770D01*
X836729Y-9050770D02*
X836729Y-9098389D01*
X836729Y-9098389D02*
X827205Y-9117436D01*
X827205Y-9117436D02*
X817682Y-9126960D01*
X817682Y-9126960D02*
X798634Y-9136484D01*
X798634Y-9136484D02*
X751015Y-9136484D01*
X751015Y-9136484D02*
X731967Y-9126960D01*
X731967Y-9126960D02*
X722443Y-9117436D01*
X960539Y-8936484D02*
X979586Y-8936484D01*
X979586Y-8936484D02*
X998634Y-8946008D01*
X998634Y-8946008D02*
X1008158Y-8955531D01*
X1008158Y-8955531D02*
X1017682Y-8974579D01*
X1017682Y-8974579D02*
X1027205Y-9012674D01*
X1027205Y-9012674D02*
X1027205Y-9060293D01*
X1027205Y-9060293D02*
X1017682Y-9098389D01*
X1017682Y-9098389D02*
X1008158Y-9117436D01*
X1008158Y-9117436D02*
X998634Y-9126960D01*
X998634Y-9126960D02*
X979586Y-9136484D01*
X979586Y-9136484D02*
X960539Y-9136484D01*
X960539Y-9136484D02*
X941491Y-9126960D01*
X941491Y-9126960D02*
X931967Y-9117436D01*
X931967Y-9117436D02*
X922443Y-9098389D01*
X922443Y-9098389D02*
X912920Y-9060293D01*
X912920Y-9060293D02*
X912920Y-9012674D01*
X912920Y-9012674D02*
X922443Y-8974579D01*
X922443Y-8974579D02*
X931967Y-8955531D01*
X931967Y-8955531D02*
X941491Y-8946008D01*
X941491Y-8946008D02*
X960539Y-8936484D01*
X1112920Y-9136484D02*
X1112920Y-9003150D01*
X1112920Y-9022198D02*
X1122444Y-9012674D01*
X1122444Y-9012674D02*
X1141491Y-9003150D01*
X1141491Y-9003150D02*
X1170063Y-9003150D01*
X1170063Y-9003150D02*
X1189110Y-9012674D01*
X1189110Y-9012674D02*
X1198634Y-9031722D01*
X1198634Y-9031722D02*
X1198634Y-9136484D01*
X1198634Y-9031722D02*
X1208158Y-9012674D01*
X1208158Y-9012674D02*
X1227205Y-9003150D01*
X1227205Y-9003150D02*
X1255777Y-9003150D01*
X1255777Y-9003150D02*
X1274825Y-9012674D01*
X1274825Y-9012674D02*
X1284348Y-9031722D01*
X1284348Y-9031722D02*
X1284348Y-9136484D01*
X1379586Y-9136484D02*
X1379586Y-9003150D01*
X1379586Y-9022198D02*
X1389110Y-9012674D01*
X1389110Y-9012674D02*
X1408158Y-9003150D01*
X1408158Y-9003150D02*
X1436729Y-9003150D01*
X1436729Y-9003150D02*
X1455777Y-9012674D01*
X1455777Y-9012674D02*
X1465301Y-9031722D01*
X1465301Y-9031722D02*
X1465301Y-9136484D01*
X1465301Y-9031722D02*
X1474824Y-9012674D01*
X1474824Y-9012674D02*
X1493872Y-9003150D01*
X1493872Y-9003150D02*
X1522443Y-9003150D01*
X1522443Y-9003150D02*
X1541491Y-9012674D01*
X1541491Y-9012674D02*
X1551015Y-9031722D01*
X1551015Y-9031722D02*
X1551015Y-9136484D01*
X1941491Y-8926960D02*
X1770063Y-9184103D01*
X2198634Y-8936484D02*
X2217682Y-8936484D01*
X2217682Y-8936484D02*
X2236729Y-8946008D01*
X2236729Y-8946008D02*
X2246253Y-8955531D01*
X2246253Y-8955531D02*
X2255777Y-8974579D01*
X2255777Y-8974579D02*
X2265301Y-9012674D01*
X2265301Y-9012674D02*
X2265301Y-9060293D01*
X2265301Y-9060293D02*
X2255777Y-9098389D01*
X2255777Y-9098389D02*
X2246253Y-9117436D01*
X2246253Y-9117436D02*
X2236729Y-9126960D01*
X2236729Y-9126960D02*
X2217682Y-9136484D01*
X2217682Y-9136484D02*
X2198634Y-9136484D01*
X2198634Y-9136484D02*
X2179587Y-9126960D01*
X2179587Y-9126960D02*
X2170063Y-9117436D01*
X2170063Y-9117436D02*
X2160539Y-9098389D01*
X2160539Y-9098389D02*
X2151015Y-9060293D01*
X2151015Y-9060293D02*
X2151015Y-9012674D01*
X2151015Y-9012674D02*
X2160539Y-8974579D01*
X2160539Y-8974579D02*
X2170063Y-8955531D01*
X2170063Y-8955531D02*
X2179587Y-8946008D01*
X2179587Y-8946008D02*
X2198634Y-8936484D01*
X2351015Y-9117436D02*
X2360539Y-9126960D01*
X2360539Y-9126960D02*
X2351015Y-9136484D01*
X2351015Y-9136484D02*
X2341491Y-9126960D01*
X2341491Y-9126960D02*
X2351015Y-9117436D01*
X2351015Y-9117436D02*
X2351015Y-9136484D01*
X2484348Y-8936484D02*
X2503396Y-8936484D01*
X2503396Y-8936484D02*
X2522444Y-8946008D01*
X2522444Y-8946008D02*
X2531968Y-8955531D01*
X2531968Y-8955531D02*
X2541491Y-8974579D01*
X2541491Y-8974579D02*
X2551015Y-9012674D01*
X2551015Y-9012674D02*
X2551015Y-9060293D01*
X2551015Y-9060293D02*
X2541491Y-9098389D01*
X2541491Y-9098389D02*
X2531968Y-9117436D01*
X2531968Y-9117436D02*
X2522444Y-9126960D01*
X2522444Y-9126960D02*
X2503396Y-9136484D01*
X2503396Y-9136484D02*
X2484348Y-9136484D01*
X2484348Y-9136484D02*
X2465301Y-9126960D01*
X2465301Y-9126960D02*
X2455777Y-9117436D01*
X2455777Y-9117436D02*
X2446253Y-9098389D01*
X2446253Y-9098389D02*
X2436729Y-9060293D01*
X2436729Y-9060293D02*
X2436729Y-9012674D01*
X2436729Y-9012674D02*
X2446253Y-8974579D01*
X2446253Y-8974579D02*
X2455777Y-8955531D01*
X2455777Y-8955531D02*
X2465301Y-8946008D01*
X2465301Y-8946008D02*
X2484348Y-8936484D01*
X2627206Y-8955531D02*
X2636729Y-8946008D01*
X2636729Y-8946008D02*
X2655777Y-8936484D01*
X2655777Y-8936484D02*
X2703396Y-8936484D01*
X2703396Y-8936484D02*
X2722444Y-8946008D01*
X2722444Y-8946008D02*
X2731968Y-8955531D01*
X2731968Y-8955531D02*
X2741491Y-8974579D01*
X2741491Y-8974579D02*
X2741491Y-8993627D01*
X2741491Y-8993627D02*
X2731968Y-9022198D01*
X2731968Y-9022198D02*
X2617682Y-9136484D01*
X2617682Y-9136484D02*
X2741491Y-9136484D01*
X2922444Y-8936484D02*
X2827206Y-8936484D01*
X2827206Y-8936484D02*
X2817682Y-9031722D01*
X2817682Y-9031722D02*
X2827206Y-9022198D01*
X2827206Y-9022198D02*
X2846253Y-9012674D01*
X2846253Y-9012674D02*
X2893872Y-9012674D01*
X2893872Y-9012674D02*
X2912920Y-9022198D01*
X2912920Y-9022198D02*
X2922444Y-9031722D01*
X2922444Y-9031722D02*
X2931967Y-9050770D01*
X2931967Y-9050770D02*
X2931967Y-9098389D01*
X2931967Y-9098389D02*
X2922444Y-9117436D01*
X2922444Y-9117436D02*
X2912920Y-9126960D01*
X2912920Y-9126960D02*
X2893872Y-9136484D01*
X2893872Y-9136484D02*
X2846253Y-9136484D01*
X2846253Y-9136484D02*
X2827206Y-9126960D01*
X2827206Y-9126960D02*
X2817682Y-9117436D01*
X3103396Y-8936484D02*
X3065301Y-8936484D01*
X3065301Y-8936484D02*
X3046253Y-8946008D01*
X3046253Y-8946008D02*
X3036729Y-8955531D01*
X3036729Y-8955531D02*
X3017682Y-8984103D01*
X3017682Y-8984103D02*
X3008158Y-9022198D01*
X3008158Y-9022198D02*
X3008158Y-9098389D01*
X3008158Y-9098389D02*
X3017682Y-9117436D01*
X3017682Y-9117436D02*
X3027206Y-9126960D01*
X3027206Y-9126960D02*
X3046253Y-9136484D01*
X3046253Y-9136484D02*
X3084348Y-9136484D01*
X3084348Y-9136484D02*
X3103396Y-9126960D01*
X3103396Y-9126960D02*
X3112920Y-9117436D01*
X3112920Y-9117436D02*
X3122444Y-9098389D01*
X3122444Y-9098389D02*
X3122444Y-9050770D01*
X3122444Y-9050770D02*
X3112920Y-9031722D01*
X3112920Y-9031722D02*
X3103396Y-9022198D01*
X3103396Y-9022198D02*
X3084348Y-9012674D01*
X3084348Y-9012674D02*
X3046253Y-9012674D01*
X3046253Y-9012674D02*
X3027206Y-9022198D01*
X3027206Y-9022198D02*
X3017682Y-9031722D01*
X3017682Y-9031722D02*
X3008158Y-9050770D01*
X3198634Y-8936484D02*
X3198634Y-8974579D01*
X3274825Y-8936484D02*
X3274825Y-8974579D01*
X3570063Y-9212674D02*
X3560539Y-9203150D01*
X3560539Y-9203150D02*
X3541491Y-9174579D01*
X3541491Y-9174579D02*
X3531968Y-9155531D01*
X3531968Y-9155531D02*
X3522444Y-9126960D01*
X3522444Y-9126960D02*
X3512920Y-9079341D01*
X3512920Y-9079341D02*
X3512920Y-9041246D01*
X3512920Y-9041246D02*
X3522444Y-8993627D01*
X3522444Y-8993627D02*
X3531968Y-8965055D01*
X3531968Y-8965055D02*
X3541491Y-8946008D01*
X3541491Y-8946008D02*
X3560539Y-8917436D01*
X3560539Y-8917436D02*
X3570063Y-8907912D01*
X3636729Y-8955531D02*
X3646253Y-8946008D01*
X3646253Y-8946008D02*
X3665301Y-8936484D01*
X3665301Y-8936484D02*
X3712920Y-8936484D01*
X3712920Y-8936484D02*
X3731968Y-8946008D01*
X3731968Y-8946008D02*
X3741491Y-8955531D01*
X3741491Y-8955531D02*
X3751015Y-8974579D01*
X3751015Y-8974579D02*
X3751015Y-8993627D01*
X3751015Y-8993627D02*
X3741491Y-9022198D01*
X3741491Y-9022198D02*
X3627206Y-9136484D01*
X3627206Y-9136484D02*
X3751015Y-9136484D01*
X3989110Y-9136484D02*
X3989110Y-8936484D01*
X4074825Y-9136484D02*
X4074825Y-9031722D01*
X4074825Y-9031722D02*
X4065301Y-9012674D01*
X4065301Y-9012674D02*
X4046253Y-9003150D01*
X4046253Y-9003150D02*
X4017682Y-9003150D01*
X4017682Y-9003150D02*
X3998634Y-9012674D01*
X3998634Y-9012674D02*
X3989110Y-9022198D01*
X4198634Y-9136484D02*
X4179587Y-9126960D01*
X4179587Y-9126960D02*
X4170063Y-9117436D01*
X4170063Y-9117436D02*
X4160539Y-9098389D01*
X4160539Y-9098389D02*
X4160539Y-9041246D01*
X4160539Y-9041246D02*
X4170063Y-9022198D01*
X4170063Y-9022198D02*
X4179587Y-9012674D01*
X4179587Y-9012674D02*
X4198634Y-9003150D01*
X4198634Y-9003150D02*
X4227206Y-9003150D01*
X4227206Y-9003150D02*
X4246253Y-9012674D01*
X4246253Y-9012674D02*
X4255777Y-9022198D01*
X4255777Y-9022198D02*
X4265301Y-9041246D01*
X4265301Y-9041246D02*
X4265301Y-9098389D01*
X4265301Y-9098389D02*
X4255777Y-9117436D01*
X4255777Y-9117436D02*
X4246253Y-9126960D01*
X4246253Y-9126960D02*
X4227206Y-9136484D01*
X4227206Y-9136484D02*
X4198634Y-9136484D01*
X4379587Y-9136484D02*
X4360539Y-9126960D01*
X4360539Y-9126960D02*
X4351015Y-9107912D01*
X4351015Y-9107912D02*
X4351015Y-8936484D01*
X4531968Y-9126960D02*
X4512920Y-9136484D01*
X4512920Y-9136484D02*
X4474825Y-9136484D01*
X4474825Y-9136484D02*
X4455777Y-9126960D01*
X4455777Y-9126960D02*
X4446253Y-9107912D01*
X4446253Y-9107912D02*
X4446253Y-9031722D01*
X4446253Y-9031722D02*
X4455777Y-9012674D01*
X4455777Y-9012674D02*
X4474825Y-9003150D01*
X4474825Y-9003150D02*
X4512920Y-9003150D01*
X4512920Y-9003150D02*
X4531968Y-9012674D01*
X4531968Y-9012674D02*
X4541492Y-9031722D01*
X4541492Y-9031722D02*
X4541492Y-9050770D01*
X4541492Y-9050770D02*
X4446253Y-9069817D01*
X4617682Y-9126960D02*
X4636730Y-9136484D01*
X4636730Y-9136484D02*
X4674825Y-9136484D01*
X4674825Y-9136484D02*
X4693873Y-9126960D01*
X4693873Y-9126960D02*
X4703396Y-9107912D01*
X4703396Y-9107912D02*
X4703396Y-9098389D01*
X4703396Y-9098389D02*
X4693873Y-9079341D01*
X4693873Y-9079341D02*
X4674825Y-9069817D01*
X4674825Y-9069817D02*
X4646253Y-9069817D01*
X4646253Y-9069817D02*
X4627206Y-9060293D01*
X4627206Y-9060293D02*
X4617682Y-9041246D01*
X4617682Y-9041246D02*
X4617682Y-9031722D01*
X4617682Y-9031722D02*
X4627206Y-9012674D01*
X4627206Y-9012674D02*
X4646253Y-9003150D01*
X4646253Y-9003150D02*
X4674825Y-9003150D01*
X4674825Y-9003150D02*
X4693873Y-9012674D01*
X4770063Y-9212674D02*
X4779587Y-9203150D01*
X4779587Y-9203150D02*
X4798634Y-9174579D01*
X4798634Y-9174579D02*
X4808158Y-9155531D01*
X4808158Y-9155531D02*
X4817682Y-9126960D01*
X4817682Y-9126960D02*
X4827206Y-9079341D01*
X4827206Y-9079341D02*
X4827206Y-9041246D01*
X4827206Y-9041246D02*
X4817682Y-8993627D01*
X4817682Y-8993627D02*
X4808158Y-8965055D01*
X4808158Y-8965055D02*
X4798634Y-8946008D01*
X4798634Y-8946008D02*
X4779587Y-8917436D01*
X4779587Y-8917436D02*
X4770063Y-8907912D01*
X5131968Y-9212674D02*
X5122444Y-9203150D01*
X5122444Y-9203150D02*
X5103396Y-9174579D01*
X5103396Y-9174579D02*
X5093873Y-9155531D01*
X5093873Y-9155531D02*
X5084349Y-9126960D01*
X5084349Y-9126960D02*
X5074825Y-9079341D01*
X5074825Y-9079341D02*
X5074825Y-9041246D01*
X5074825Y-9041246D02*
X5084349Y-8993627D01*
X5084349Y-8993627D02*
X5093873Y-8965055D01*
X5093873Y-8965055D02*
X5103396Y-8946008D01*
X5103396Y-8946008D02*
X5122444Y-8917436D01*
X5122444Y-8917436D02*
X5131968Y-8907912D01*
X5208158Y-9003150D02*
X5208158Y-9136484D01*
X5208158Y-9022198D02*
X5217682Y-9012674D01*
X5217682Y-9012674D02*
X5236730Y-9003150D01*
X5236730Y-9003150D02*
X5265301Y-9003150D01*
X5265301Y-9003150D02*
X5284349Y-9012674D01*
X5284349Y-9012674D02*
X5293873Y-9031722D01*
X5293873Y-9031722D02*
X5293873Y-9136484D01*
X5417682Y-9136484D02*
X5398634Y-9126960D01*
X5398634Y-9126960D02*
X5389111Y-9117436D01*
X5389111Y-9117436D02*
X5379587Y-9098389D01*
X5379587Y-9098389D02*
X5379587Y-9041246D01*
X5379587Y-9041246D02*
X5389111Y-9022198D01*
X5389111Y-9022198D02*
X5398634Y-9012674D01*
X5398634Y-9012674D02*
X5417682Y-9003150D01*
X5417682Y-9003150D02*
X5446254Y-9003150D01*
X5446254Y-9003150D02*
X5465301Y-9012674D01*
X5465301Y-9012674D02*
X5474825Y-9022198D01*
X5474825Y-9022198D02*
X5484349Y-9041246D01*
X5484349Y-9041246D02*
X5484349Y-9098389D01*
X5484349Y-9098389D02*
X5474825Y-9117436D01*
X5474825Y-9117436D02*
X5465301Y-9126960D01*
X5465301Y-9126960D02*
X5446254Y-9136484D01*
X5446254Y-9136484D02*
X5417682Y-9136484D01*
X5541492Y-9003150D02*
X5617682Y-9003150D01*
X5570063Y-8936484D02*
X5570063Y-9107912D01*
X5570063Y-9107912D02*
X5579587Y-9126960D01*
X5579587Y-9126960D02*
X5598634Y-9136484D01*
X5598634Y-9136484D02*
X5617682Y-9136484D01*
X5836730Y-9003150D02*
X5836730Y-9203150D01*
X5836730Y-9012674D02*
X5855777Y-9003150D01*
X5855777Y-9003150D02*
X5893873Y-9003150D01*
X5893873Y-9003150D02*
X5912920Y-9012674D01*
X5912920Y-9012674D02*
X5922444Y-9022198D01*
X5922444Y-9022198D02*
X5931968Y-9041246D01*
X5931968Y-9041246D02*
X5931968Y-9098389D01*
X5931968Y-9098389D02*
X5922444Y-9117436D01*
X5922444Y-9117436D02*
X5912920Y-9126960D01*
X5912920Y-9126960D02*
X5893873Y-9136484D01*
X5893873Y-9136484D02*
X5855777Y-9136484D01*
X5855777Y-9136484D02*
X5836730Y-9126960D01*
X6046253Y-9136484D02*
X6027206Y-9126960D01*
X6027206Y-9126960D02*
X6017682Y-9107912D01*
X6017682Y-9107912D02*
X6017682Y-8936484D01*
X6208158Y-9136484D02*
X6208158Y-9031722D01*
X6208158Y-9031722D02*
X6198634Y-9012674D01*
X6198634Y-9012674D02*
X6179587Y-9003150D01*
X6179587Y-9003150D02*
X6141492Y-9003150D01*
X6141492Y-9003150D02*
X6122444Y-9012674D01*
X6208158Y-9126960D02*
X6189111Y-9136484D01*
X6189111Y-9136484D02*
X6141492Y-9136484D01*
X6141492Y-9136484D02*
X6122444Y-9126960D01*
X6122444Y-9126960D02*
X6112920Y-9107912D01*
X6112920Y-9107912D02*
X6112920Y-9088865D01*
X6112920Y-9088865D02*
X6122444Y-9069817D01*
X6122444Y-9069817D02*
X6141492Y-9060293D01*
X6141492Y-9060293D02*
X6189111Y-9060293D01*
X6189111Y-9060293D02*
X6208158Y-9050770D01*
X6274825Y-9003150D02*
X6351015Y-9003150D01*
X6303396Y-8936484D02*
X6303396Y-9107912D01*
X6303396Y-9107912D02*
X6312920Y-9126960D01*
X6312920Y-9126960D02*
X6331968Y-9136484D01*
X6331968Y-9136484D02*
X6351015Y-9136484D01*
X6493873Y-9126960D02*
X6474825Y-9136484D01*
X6474825Y-9136484D02*
X6436730Y-9136484D01*
X6436730Y-9136484D02*
X6417682Y-9126960D01*
X6417682Y-9126960D02*
X6408158Y-9107912D01*
X6408158Y-9107912D02*
X6408158Y-9031722D01*
X6408158Y-9031722D02*
X6417682Y-9012674D01*
X6417682Y-9012674D02*
X6436730Y-9003150D01*
X6436730Y-9003150D02*
X6474825Y-9003150D01*
X6474825Y-9003150D02*
X6493873Y-9012674D01*
X6493873Y-9012674D02*
X6503396Y-9031722D01*
X6503396Y-9031722D02*
X6503396Y-9050770D01*
X6503396Y-9050770D02*
X6408158Y-9069817D01*
X6674825Y-9136484D02*
X6674825Y-8936484D01*
X6674825Y-9126960D02*
X6655777Y-9136484D01*
X6655777Y-9136484D02*
X6617682Y-9136484D01*
X6617682Y-9136484D02*
X6598634Y-9126960D01*
X6598634Y-9126960D02*
X6589111Y-9117436D01*
X6589111Y-9117436D02*
X6579587Y-9098389D01*
X6579587Y-9098389D02*
X6579587Y-9041246D01*
X6579587Y-9041246D02*
X6589111Y-9022198D01*
X6589111Y-9022198D02*
X6598634Y-9012674D01*
X6598634Y-9012674D02*
X6617682Y-9003150D01*
X6617682Y-9003150D02*
X6655777Y-9003150D01*
X6655777Y-9003150D02*
X6674825Y-9012674D01*
X6751015Y-9212674D02*
X6760539Y-9203150D01*
X6760539Y-9203150D02*
X6779587Y-9174579D01*
X6779587Y-9174579D02*
X6789111Y-9155531D01*
X6789111Y-9155531D02*
X6798634Y-9126960D01*
X6798634Y-9126960D02*
X6808158Y-9079341D01*
X6808158Y-9079341D02*
X6808158Y-9041246D01*
X6808158Y-9041246D02*
X6798634Y-8993627D01*
X6798634Y-8993627D02*
X6789111Y-8965055D01*
X6789111Y-8965055D02*
X6779587Y-8946008D01*
X6779587Y-8946008D02*
X6760539Y-8917436D01*
X6760539Y-8917436D02*
X6751015Y-8907912D01*
M02*
