M48
; DRILL file {KiCad 9.0.8} date 2026-09-14T04:08:33+0800
; FORMAT={-:-/ absolute / metric / decimal}
; #@! TF.CreationDate,2026-09-14T04:08:33+08:00
; #@! TF.GenerationSoftware,Kicad,Pcbnew,9.0.8
; #@! TF.FileFunction,Plated,1,2,PTH
FMAT,2
METRIC
; #@! TA.AperFunction,Plated,PTH,ViaDrill
T1C0.200
; #@! TA.AperFunction,Plated,PTH,ViaDrill
T2C0.300
; #@! TA.AperFunction,Plated,PTH,ComponentDrill
T3C0.300
; #@! TA.AperFunction,Plated,PTH,ComponentDrill
T4C0.500
%
G90
G05
T1
X38.831Y-68.927
X42.35Y-71.15
X51.449Y-54.496
X52.986Y-53.438
X68.307Y-49.746
T2
X7.255Y-62.988
X8.0Y-8.0
X8.0Y-16.0
X8.0Y-24.0
X8.0Y-32.0
X8.0Y-40.0
X8.0Y-48.0
X10.197Y-62.324
X16.0Y-8.0
X16.0Y-16.0
X16.0Y-24.0
X16.0Y-32.0
X16.0Y-40.0
X16.0Y-48.0
X18.147Y-53.695
X18.475Y-56.598
X20.942Y-53.548
X24.0Y-8.0
X24.0Y-16.0
X24.0Y-24.0
X24.0Y-32.0
X24.0Y-40.0
X27.739Y-56.081
X27.971Y-59.206
X30.725Y-64.5
X32.0Y-8.0
X32.0Y-16.0
X32.0Y-24.0
X32.0Y-32.0
X32.0Y-40.0
X32.885Y-67.293
X33.5Y-60.679
X34.581Y-67.293
X35.764Y-63.191
X36.142Y-72.79
X37.043Y-54.086
X37.134Y-68.131
X37.802Y-59.205
X38.193Y-67.723
X38.974Y-61.286
X39.671Y-68.95
X40.0Y-8.0
X40.0Y-16.0
X40.0Y-24.0
X40.0Y-32.0
X40.0Y-40.0
X41.088Y-67.598
X41.191Y-57.191
X41.925Y-69.007
X42.05Y-60.6
X42.104Y-66.654
X42.786Y-59.202
X43.162Y-69.146
X44.743Y-57.461
X45.761Y-59.071
X45.85Y-60.6
X46.382Y-64.452
X46.777Y-67.882
X48.291Y-54.082
X48.441Y-56.517
X49.933Y-58.511
X50.151Y-59.42
X51.33Y-60.902
X51.383Y-59.419
X51.5Y-52.707
X51.5Y-57.775
X52.951Y-57.282
X55.199Y-53.965
X55.242Y-57.616
X55.667Y-53.137
X55.793Y-52.309
X56.307Y-48.145
X56.34Y-56.438
X56.381Y-50.861
X56.516Y-54.593
X57.578Y-51.215
X58.0Y-59.2
X59.277Y-47.891
X60.211Y-77.432
X60.211Y-47.808
X60.777Y-50.364
X62.143Y-50.899
X62.901Y-77.197
X64.2Y-54.423
X64.563Y-51.644
X65.135Y-48.396
X66.097Y-47.806
X66.852Y-57.584
X66.952Y-58.892
X67.302Y-55.243
X67.333Y-79.08
X67.704Y-57.201
X67.987Y-76.052
X68.041Y-53.459
X68.5Y-51.88
X69.035Y-58.188
X69.639Y-48.989
X69.964Y-56.004
X70.5Y-66.98
X71.136Y-48.625
X71.33Y-60.447
X71.779Y-74.764
X71.979Y-47.806
X71.979Y-62.348
X72.02Y-54.395
X72.454Y-64.462
X72.852Y-52.761
X73.037Y-72.025
X74.109Y-68.396
X74.875Y-52.184
X75.009Y-68.716
X76.232Y-73.483
X76.382Y-70.416
X78.038Y-74.181
X78.235Y-52.893
X78.707Y-54.332
X79.609Y-50.104
X80.635Y-75.924
X80.877Y-53.795
X81.285Y-71.956
X83.747Y-71.034
X84.65Y-49.939
X87.489Y-76.056
T3
X77.0Y-34.0
X77.0Y-46.6
T4
X69.42Y-78.235G85X69.42Y-77.085
G05
X69.42Y-82.875G85X69.42Y-81.725
G05
X80.58Y-78.235G85X80.58Y-77.085
G05
X80.58Y-82.875G85X80.58Y-81.725
G05
M30
