%TF.GenerationSoftware,KiCad,Pcbnew,9.0.9-9.0.9~ubuntu24.04.1*%
%TF.CreationDate,2026-09-13T17:28:16+00:00*%
%TF.ProjectId,badge,62616467-652e-46b6-9963-61645f706362,rev?*%
%TF.SameCoordinates,Original*%
%TF.FileFunction,Copper,L1,Top*%
%TF.FilePolarity,Positive*%
%FSLAX46Y46*%
G04 Gerber Fmt 4.6, Leading zero omitted, Abs format (unit mm)*
G04 Created by KiCad (PCBNEW 9.0.9-9.0.9~ubuntu24.04.1) date 2026-09-13 17:28:16*
%MOMM*%
%LPD*%
G01*
G04 APERTURE LIST*
G04 Aperture macros list*
%AMRoundRect*
0 Rectangle with rounded corners*
0 $1 Rounding radius*
0 $2 $3 $4 $5 $6 $7 $8 $9 X,Y pos of 4 corners*
0 Add a 4 corners polygon primitive as box body*
4,1,4,$2,$3,$4,$5,$6,$7,$8,$9,$2,$3,0*
0 Add four circle primitives for the rounded corners*
1,1,$1+$1,$2,$3*
1,1,$1+$1,$4,$5*
1,1,$1+$1,$6,$7*
1,1,$1+$1,$8,$9*
0 Add four rect primitives between the rounded corners*
20,1,$1+$1,$2,$3,$4,$5,0*
20,1,$1+$1,$4,$5,$6,$7,0*
20,1,$1+$1,$6,$7,$8,$9,0*
20,1,$1+$1,$8,$9,$2,$3,0*%
%AMFreePoly0*
4,1,33,0.172208,0.415746,0.273943,0.357009,0.357009,0.273943,0.415746,0.172208,0.446150,0.058737,0.446150,-0.058737,0.415746,-0.172208,0.357009,-0.273943,0.273943,-0.357009,0.250000,-0.370832,0.250000,-12.600000,0.245196,-12.648773,0.207867,-12.738893,0.138893,-12.807867,0.048773,-12.845196,-0.048773,-12.845196,-0.138893,-12.807867,-0.207867,-12.738893,-0.245196,-12.648773,-0.250000,-12.600000,
-0.250000,-0.370832,-0.273943,-0.357009,-0.357009,-0.273943,-0.415746,-0.172208,-0.446150,-0.058737,-0.446150,0.058737,-0.415746,0.172208,-0.357009,0.273943,-0.273943,0.357009,-0.172208,0.415746,-0.058737,0.446150,0.058737,0.446150,0.172208,0.415746,0.172208,0.415746,$1*%
G04 Aperture macros list end*
%TA.AperFunction,ComponentPad*%
%ADD10RoundRect,0.500000X0.000010X0.600000X-0.000010X0.600000X-0.000010X-0.600000X0.000010X-0.600000X0*%
%TD*%
%TA.AperFunction,ComponentPad*%
%ADD11C,0.900000*%
%TD*%
%TA.AperFunction,SMDPad,CuDef*%
%ADD12FreePoly0,180.000000*%
%TD*%
%TA.AperFunction,ComponentPad*%
%ADD13C,1.100000*%
%TD*%
%TA.AperFunction,ViaPad*%
%ADD14C,0.600000*%
%TD*%
%TA.AperFunction,Conductor*%
%ADD15C,0.200000*%
%TD*%
G04 APERTURE END LIST*
D10*
%TO.P,J3,S1*%
%TO.N,GND*%
X80580000Y-82300000D03*
X80580000Y-77660000D03*
X69420000Y-82300000D03*
X69420000Y-77660000D03*
%TD*%
D11*
%TO.P,ANT1,2*%
%TO.N,NFC_AC1*%
X77000000Y-46600000D03*
D12*
X77000000Y-46600000D03*
D13*
X77000000Y-34000000D03*
%TD*%
D14*
%TO.N,VBUS*%
X71779000Y-74763600D03*
X78038500Y-74181200D03*
%TO.N,CC1*%
X67986700Y-76052300D03*
X76232100Y-73483400D03*
%TO.N,CC2*%
X80635400Y-75923800D03*
X73037500Y-72024500D03*
%TO.N,USB_DP*%
X68041300Y-53458500D03*
X72454400Y-64462400D03*
X71329800Y-60447000D03*
X74108700Y-68395800D03*
%TO.N,USB_DN*%
X64562800Y-51644000D03*
X75008800Y-68716500D03*
%TO.N,CHRG_STAT*%
X83747000Y-71034200D03*
X87488500Y-76056200D03*
%TO.N,VBAT*%
X10197000Y-62323700D03*
X60211000Y-77431800D03*
%TO.N,+3V3*%
X7255000Y-62987700D03*
X69964300Y-56003800D03*
X62900800Y-77196500D03*
X71135700Y-48625300D03*
X78235400Y-52893100D03*
X71979000Y-62348000D03*
X51383400Y-59418600D03*
X50151400Y-59420300D03*
X38974200Y-61286400D03*
%TO.N,BAT_SENSE*%
X55792600Y-52309000D03*
X67703700Y-57201300D03*
%TO.N,EN*%
X51500000Y-52706800D03*
X18475200Y-56597700D03*
%TO.N,NFC_GPO*%
X69638900Y-48989000D03*
X80877300Y-53795000D03*
X56381200Y-50861300D03*
%TO.N,EPD_PWR_EN*%
X64199700Y-54423000D03*
X55199000Y-53965400D03*
X48440800Y-56517300D03*
X67302200Y-55243300D03*
%TO.N,I2C_SDA*%
X62142600Y-50899200D03*
X72019600Y-54394700D03*
%TO.N,I2C_SCL*%
X60777500Y-50364300D03*
X74875000Y-52184500D03*
X78707500Y-54332200D03*
%TO.N,EPD_SCK*%
X48291200Y-54082500D03*
X59277100Y-47891200D03*
%TO.N,EPD_MOSI*%
X36142300Y-72789800D03*
X56516100Y-54593500D03*
X46776900Y-67881800D03*
X49932800Y-58511500D03*
%TO.N,LED_STAT_n*%
X56340200Y-56437900D03*
X66951900Y-58892100D03*
X60211400Y-47808200D03*
X55666800Y-53137200D03*
%TO.N,BOOT_n*%
X18146700Y-53694700D03*
X66096600Y-47806200D03*
%TO.N,EPD_CS*%
X20942500Y-53548500D03*
X56306800Y-48144500D03*
%TO.N,EPD_DC*%
X51330100Y-60901700D03*
X55241900Y-57615700D03*
%TO.N,EPD_RST*%
X41087600Y-67597900D03*
X66851900Y-57584200D03*
%TO.N,NFC_VEH*%
X71979000Y-47806200D03*
X84650400Y-49938700D03*
%TO.N,NFC_AC1*%
X79609500Y-50104400D03*
%TO.N,EPD_GDR*%
X33500000Y-60679400D03*
X46381700Y-64452300D03*
%TO.N,EPD_RESE*%
X27970600Y-59206000D03*
X43161800Y-69146300D03*
%TO.N,EPD_VSH2*%
X41924900Y-69006500D03*
X32885400Y-67292700D03*
%TO.N,EPD_VCI*%
X42104000Y-66654200D03*
X27738700Y-56080600D03*
X39670800Y-68949800D03*
X37043000Y-54085700D03*
%TO.N,EPD_VGH*%
X37801800Y-59205400D03*
X37134300Y-68130700D03*
%TO.N,EPD_VGL*%
X34580600Y-67292700D03*
X35763800Y-63191200D03*
X45761500Y-59071200D03*
X42785800Y-59202100D03*
%TD*%
D15*
%TO.N,VBUS*%
X77456200Y-74763500D02*
X71779000Y-74763500D01*
X71779000Y-74763500D02*
X71779000Y-74763600D01*
X78038500Y-74181200D02*
X77456200Y-74763500D01*
%TO.N,CC1*%
X70555600Y-73483400D02*
X76232100Y-73483400D01*
X67986700Y-76052300D02*
X70555600Y-73483400D01*
%TO.N,CC2*%
X76736100Y-72024500D02*
X73037500Y-72024500D01*
X80635400Y-75923800D02*
X76736100Y-72024500D01*
%TO.N,USB_DP*%
X72454400Y-64462400D02*
X74108700Y-66116700D01*
X71329800Y-59610700D02*
X71329800Y-60447000D01*
X68041300Y-56322200D02*
X71329800Y-59610700D01*
X74108700Y-66116700D02*
X74108700Y-68395800D01*
X68041300Y-53458500D02*
X68041300Y-56322200D01*
%TO.N,USB_DN*%
X64562800Y-51644000D02*
X67091300Y-51644000D01*
X67091300Y-51644000D02*
X75008800Y-59561500D01*
X75008800Y-59561500D02*
X75008800Y-68716500D01*
%TO.N,CHRG_STAT*%
X83747000Y-72314700D02*
X83747000Y-71034200D01*
X87488500Y-76056200D02*
X83747000Y-72314700D01*
%TO.N,VBAT*%
X60211000Y-77431800D02*
X59179200Y-76400000D01*
X24273300Y-76400000D02*
X10197000Y-62323700D01*
X59179200Y-76400000D02*
X24273300Y-76400000D01*
%TO.N,+3V3*%
X50151400Y-59420300D02*
X48285300Y-61286400D01*
X71979000Y-62348000D02*
X71979000Y-58018500D01*
X38974200Y-61286400D02*
X38974200Y-58908300D01*
X51381700Y-59420300D02*
X51383400Y-59418600D01*
X12112100Y-58130600D02*
X7255000Y-62987700D01*
X38196500Y-58130600D02*
X12112100Y-58130600D01*
X50151400Y-59420300D02*
X51381700Y-59420300D01*
X73967600Y-48625300D02*
X78235400Y-52893100D01*
X71979000Y-58018500D02*
X69964300Y-56003800D01*
X71979000Y-62348000D02*
X67385000Y-66942000D01*
X67385000Y-66942000D02*
X67385000Y-76043100D01*
X67385000Y-76043100D02*
X66231600Y-77196500D01*
X71135700Y-48625300D02*
X73967600Y-48625300D01*
X48285300Y-61286400D02*
X38974200Y-61286400D01*
X66231600Y-77196500D02*
X62900800Y-77196500D01*
X38974200Y-58908300D02*
X38196500Y-58130600D01*
%TO.N,BAT_SENSE*%
X58508400Y-55024800D02*
X55792600Y-52309000D01*
X67703700Y-57201300D02*
X65527200Y-55024800D01*
X65527200Y-55024800D02*
X58508400Y-55024800D01*
%TO.N,EN*%
X56556000Y-48746200D02*
X56908500Y-48393700D01*
X51500000Y-52706800D02*
X53544000Y-50662800D01*
X54356500Y-50662800D02*
X56273100Y-48746200D01*
X53544000Y-50662800D02*
X54356500Y-50662800D01*
X26029600Y-47542800D02*
X18475200Y-55097200D01*
X56556000Y-47542800D02*
X26029600Y-47542800D01*
X56908500Y-47895300D02*
X56556000Y-47542800D01*
X56908500Y-48393700D02*
X56908500Y-47895300D01*
X56273100Y-48746200D02*
X56556000Y-48746200D01*
X18475200Y-55097200D02*
X18475200Y-56597700D01*
%TO.N,NFC_GPO*%
X58253500Y-48989000D02*
X69638900Y-48989000D01*
X80577700Y-53495400D02*
X80877300Y-53795000D01*
X69879800Y-49229900D02*
X73608200Y-49229900D01*
X56381200Y-50861300D02*
X58253500Y-48989000D01*
X69638900Y-48989000D02*
X69879800Y-49229900D01*
X77873700Y-53495400D02*
X80577700Y-53495400D01*
X73608200Y-49229900D02*
X77873700Y-53495400D01*
%TO.N,EPD_PWR_EN*%
X55199000Y-53965400D02*
X50992700Y-53965400D01*
X66481900Y-54423000D02*
X64199700Y-54423000D01*
X50992700Y-53965400D02*
X48440800Y-56517300D01*
X67302200Y-55243300D02*
X66481900Y-54423000D01*
%TO.N,I2C_SDA*%
X62142600Y-50899200D02*
X68524100Y-50899200D01*
X68524100Y-50899200D02*
X72019600Y-54394700D01*
%TO.N,I2C_SCL*%
X74875000Y-52184500D02*
X72984300Y-50293800D01*
X72984300Y-50293800D02*
X60848000Y-50293800D01*
X74875000Y-52184500D02*
X77022700Y-54332200D01*
X60848000Y-50293800D02*
X60777500Y-50364300D01*
X77022700Y-54332200D02*
X78707500Y-54332200D01*
%TO.N,EPD_SCK*%
X49065100Y-53308600D02*
X52278700Y-53308600D01*
X52278700Y-53308600D02*
X56439400Y-49147900D01*
X57895300Y-47891200D02*
X59277100Y-47891200D01*
X56439400Y-49147900D02*
X56722300Y-49147900D01*
X48291200Y-54082500D02*
X49065100Y-53308600D01*
X56722300Y-49147900D02*
X57310200Y-48560000D01*
X57310200Y-48560000D02*
X57310200Y-48476300D01*
X57310200Y-48476300D02*
X57895300Y-47891200D01*
%TO.N,EPD_MOSI*%
X36142300Y-72789800D02*
X41868900Y-72789800D01*
X49932800Y-58511500D02*
X53850800Y-54593500D01*
X53850800Y-54593500D02*
X56516100Y-54593500D01*
X41868900Y-72789800D02*
X46776900Y-67881800D01*
%TO.N,LED_STAT_n*%
X56888600Y-49549600D02*
X57897400Y-48540800D01*
X56792300Y-49549600D02*
X56888600Y-49549600D01*
X59478800Y-48540800D02*
X60211400Y-47808200D01*
X57897400Y-48540800D02*
X59478800Y-48540800D01*
X58794400Y-58892100D02*
X56340200Y-56437900D01*
X55190800Y-51151100D02*
X56792300Y-49549600D01*
X55190800Y-52661200D02*
X55190800Y-51151100D01*
X55666800Y-53137200D02*
X55190800Y-52661200D01*
X66951900Y-58892100D02*
X58794400Y-58892100D01*
%TO.N,BOOT_n*%
X24700300Y-47141100D02*
X18146700Y-53694700D01*
X66096600Y-47806200D02*
X65431500Y-47141100D01*
X65431500Y-47141100D02*
X24700300Y-47141100D01*
%TO.N,EPD_CS*%
X24229800Y-50261200D02*
X24229800Y-50261100D01*
X24229800Y-50261100D02*
X54190200Y-50261100D01*
X54190200Y-50261100D02*
X56306800Y-48144500D01*
X20942500Y-53548500D02*
X24229800Y-50261200D01*
%TO.N,EPD_DC*%
X51416000Y-60901700D02*
X54702000Y-57615700D01*
X54702000Y-57615700D02*
X55241900Y-57615700D01*
X51330100Y-60901700D02*
X51416000Y-60901700D01*
%TO.N,EPD_RST*%
X46658200Y-65058300D02*
X42768400Y-65058300D01*
X55892400Y-55785200D02*
X51408300Y-60269300D01*
X42768400Y-65058300D02*
X41087600Y-66739100D01*
X65052900Y-55785200D02*
X55892400Y-55785200D01*
X49634800Y-62081700D02*
X46658200Y-65058300D01*
X66851900Y-57584200D02*
X65052900Y-55785200D01*
X51064500Y-60269300D02*
X49634800Y-61699000D01*
X41087600Y-66739100D02*
X41087600Y-67597900D01*
X49634800Y-61699000D02*
X49634800Y-62081700D01*
X51408300Y-60269300D02*
X51064500Y-60269300D01*
%TO.N,NFC_VEH*%
X76345700Y-47806200D02*
X79282900Y-50743400D01*
X71979000Y-47806200D02*
X76345700Y-47806200D01*
X79282900Y-50743400D02*
X83845700Y-50743400D01*
X83845700Y-50743400D02*
X84650400Y-49938700D01*
%TO.N,NFC_AC1*%
X79609500Y-49019900D02*
X79609500Y-50104400D01*
X77000000Y-46600000D02*
X77189600Y-46600000D01*
X77189600Y-46600000D02*
X79609500Y-49019900D01*
%TO.N,EPD_GDR*%
X38052700Y-58593800D02*
X35585600Y-58593800D01*
X38369800Y-60518400D02*
X38439800Y-60448400D01*
X38439800Y-58980900D02*
X38052700Y-58593800D01*
X35585600Y-58593800D02*
X33500000Y-60679400D01*
X46381700Y-64452300D02*
X41248700Y-64452300D01*
X41248700Y-64452300D02*
X38369800Y-61573400D01*
X38439800Y-60448400D02*
X38439800Y-58980900D01*
X38369800Y-61573400D02*
X38369800Y-60518400D01*
%TO.N,EPD_RESE*%
X27970600Y-63296000D02*
X27970600Y-59206000D01*
X42332800Y-69975300D02*
X34649900Y-69975300D01*
X34649900Y-69975300D02*
X27970600Y-63296000D01*
X43161800Y-69146300D02*
X42332800Y-69975300D01*
%TO.N,EPD_VSH2*%
X41924900Y-69006500D02*
X41362600Y-69568800D01*
X41362600Y-69568800D02*
X35161500Y-69568800D01*
X35161500Y-69568800D02*
X32885400Y-67292700D01*
%TO.N,EPD_VCI*%
X37043000Y-54085700D02*
X29733600Y-54085700D01*
X39670800Y-68949800D02*
X40673000Y-68949800D01*
X29733600Y-54085700D02*
X27738700Y-56080600D01*
X40673000Y-68949800D02*
X42104000Y-67518800D01*
X42104000Y-67518800D02*
X42104000Y-66654200D01*
%TO.N,EPD_VGH*%
X37134300Y-68130700D02*
X37134300Y-59872900D01*
X37134300Y-59872900D02*
X37801800Y-59205400D01*
%TO.N,EPD_VGL*%
X34580600Y-64374400D02*
X35763800Y-63191200D01*
X42785800Y-59202100D02*
X45630600Y-59202100D01*
X45630600Y-59202100D02*
X45761500Y-59071200D01*
X34580600Y-67292700D02*
X34580600Y-64374400D01*
%TD*%
%TA.AperFunction,Conductor*%
%TO.N,GND*%
G36*
X90185225Y-518907D02*
G01*
X90192309Y-524568D01*
X90338266Y-652569D01*
X90347423Y-661725D01*
X90475433Y-807691D01*
X90499585Y-863906D01*
X90500000Y-872965D01*
X90500000Y-83127033D01*
X90481093Y-83185224D01*
X90475432Y-83192308D01*
X90347427Y-83338270D01*
X90338270Y-83347427D01*
X90192309Y-83475432D01*
X90136093Y-83499585D01*
X90127034Y-83500000D01*
X80499000Y-83500000D01*
X80440809Y-83481093D01*
X80404845Y-83431593D01*
X80400000Y-83401000D01*
X80400000Y-77550001D01*
X80400000Y-77550000D01*
X80399999Y-77550000D01*
X79415068Y-77550000D01*
X79356877Y-77531093D01*
X79320913Y-77481593D01*
X79319441Y-77476623D01*
X79286281Y-77352865D01*
X79286279Y-77352862D01*
X79286279Y-77352860D01*
X79210518Y-77221639D01*
X79210516Y-77221637D01*
X79210515Y-77221635D01*
X79103365Y-77114485D01*
X79103362Y-77114483D01*
X79103360Y-77114481D01*
X78972138Y-77038720D01*
X78972140Y-77038720D01*
X78915347Y-77023503D01*
X78825766Y-76999500D01*
X78674234Y-76999500D01*
X78584652Y-77023503D01*
X78527860Y-77038720D01*
X78396639Y-77114481D01*
X78289481Y-77221639D01*
X78213720Y-77352860D01*
X78180559Y-77476623D01*
X78147235Y-77527937D01*
X78090114Y-77549864D01*
X78084932Y-77550000D01*
X71915068Y-77550000D01*
X71856877Y-77531093D01*
X71820913Y-77481593D01*
X71819441Y-77476623D01*
X71786281Y-77352865D01*
X71786279Y-77352862D01*
X71786279Y-77352860D01*
X71710518Y-77221639D01*
X71710516Y-77221637D01*
X71710515Y-77221635D01*
X71603365Y-77114485D01*
X71603362Y-77114483D01*
X71603360Y-77114481D01*
X71472138Y-77038720D01*
X71472140Y-77038720D01*
X71415347Y-77023503D01*
X71325766Y-76999500D01*
X71174234Y-76999500D01*
X71084652Y-77023503D01*
X71027860Y-77038720D01*
X70896639Y-77114481D01*
X70789481Y-77221639D01*
X70713720Y-77352860D01*
X70680559Y-77476623D01*
X70647235Y-77527937D01*
X70590114Y-77549864D01*
X70584932Y-77550000D01*
X69650000Y-77550000D01*
X69603923Y-83401780D01*
X69584558Y-83459820D01*
X69534776Y-83495393D01*
X69504926Y-83500000D01*
X872966Y-83500000D01*
X868494Y-83498547D01*
X863907Y-83499585D01*
X839765Y-83489212D01*
X814775Y-83481093D01*
X807691Y-83475432D01*
X661729Y-83347427D01*
X652572Y-83338270D01*
X524568Y-83192309D01*
X500415Y-83136093D01*
X500000Y-83127034D01*
X500000Y-62915225D01*
X6704500Y-62915225D01*
X6704500Y-63060174D01*
X6742017Y-63200189D01*
X6814487Y-63325710D01*
X6814489Y-63325712D01*
X6814491Y-63325715D01*
X6916985Y-63428209D01*
X6916987Y-63428210D01*
X6916989Y-63428212D01*
X7042511Y-63500682D01*
X7042512Y-63500682D01*
X7042515Y-63500684D01*
X7182525Y-63538200D01*
X7182526Y-63538200D01*
X7327474Y-63538200D01*
X7327475Y-63538200D01*
X7467485Y-63500684D01*
X7467487Y-63500682D01*
X7467489Y-63500682D01*
X7593010Y-63428212D01*
X7593010Y-63428211D01*
X7593015Y-63428209D01*
X7695509Y-63325715D01*
X7695512Y-63325710D01*
X7767982Y-63200189D01*
X7767982Y-63200187D01*
X7767984Y-63200185D01*
X7805500Y-63060175D01*
X7805500Y-62973890D01*
X7824407Y-62915699D01*
X7834496Y-62903886D01*
X12228286Y-58510096D01*
X12282803Y-58482319D01*
X12298290Y-58481100D01*
X27797016Y-58481100D01*
X27855207Y-58500007D01*
X27891171Y-58549507D01*
X27891171Y-58610693D01*
X27855207Y-58660193D01*
X27822642Y-58675725D01*
X27758115Y-58693016D01*
X27758113Y-58693016D01*
X27758109Y-58693018D01*
X27632589Y-58765487D01*
X27530087Y-58867989D01*
X27457617Y-58993510D01*
X27427853Y-59104589D01*
X27420100Y-59133525D01*
X27420100Y-59278475D01*
X27449687Y-59388896D01*
X27457617Y-59418489D01*
X27530087Y-59544010D01*
X27530089Y-59544012D01*
X27530091Y-59544015D01*
X27591105Y-59605029D01*
X27618881Y-59659544D01*
X27620100Y-59675031D01*
X27620100Y-63342144D01*
X27625128Y-63360907D01*
X27643986Y-63431288D01*
X27690130Y-63511212D01*
X34434688Y-70255770D01*
X34514612Y-70301914D01*
X34603756Y-70325800D01*
X34603757Y-70325800D01*
X34603758Y-70325800D01*
X42378942Y-70325800D01*
X42378944Y-70325800D01*
X42468088Y-70301914D01*
X42548012Y-70255770D01*
X43077986Y-69725796D01*
X43132503Y-69698019D01*
X43147990Y-69696800D01*
X43234274Y-69696800D01*
X43234275Y-69696800D01*
X43374285Y-69659284D01*
X43374287Y-69659282D01*
X43374289Y-69659282D01*
X43499810Y-69586812D01*
X43499810Y-69586811D01*
X43499815Y-69586809D01*
X43602309Y-69484315D01*
X43674784Y-69358785D01*
X43712300Y-69218775D01*
X43712300Y-69073825D01*
X43674784Y-68933815D01*
X43674782Y-68933812D01*
X43674782Y-68933810D01*
X43602312Y-68808289D01*
X43602310Y-68808287D01*
X43602309Y-68808285D01*
X43499815Y-68705791D01*
X43499812Y-68705789D01*
X43499810Y-68705787D01*
X43374288Y-68633317D01*
X43374289Y-68633317D01*
X43293931Y-68611785D01*
X43234275Y-68595800D01*
X43089325Y-68595800D01*
X43042731Y-68608285D01*
X42949310Y-68633317D01*
X42823789Y-68705787D01*
X42721287Y-68808289D01*
X42649835Y-68932048D01*
X42604366Y-68972989D01*
X42543515Y-68979385D01*
X42490527Y-68948792D01*
X42468472Y-68908171D01*
X42466251Y-68899881D01*
X42437884Y-68794015D01*
X42437882Y-68794012D01*
X42437882Y-68794010D01*
X42365412Y-68668489D01*
X42365410Y-68668487D01*
X42365409Y-68668485D01*
X42262915Y-68565991D01*
X42262912Y-68565989D01*
X42262910Y-68565987D01*
X42137388Y-68493517D01*
X42137389Y-68493517D01*
X42044827Y-68468715D01*
X41997375Y-68456000D01*
X41901489Y-68456000D01*
X41843298Y-68437093D01*
X41807334Y-68387593D01*
X41807334Y-68326407D01*
X41831483Y-68286998D01*
X42384470Y-67734012D01*
X42430614Y-67654088D01*
X42454500Y-67564943D01*
X42454500Y-67472656D01*
X42454500Y-67123231D01*
X42473407Y-67065040D01*
X42483490Y-67053233D01*
X42544509Y-66992215D01*
X42556584Y-66971300D01*
X42616982Y-66866689D01*
X42616982Y-66866687D01*
X42616984Y-66866685D01*
X42654500Y-66726675D01*
X42654500Y-66581725D01*
X42616984Y-66441715D01*
X42616982Y-66441712D01*
X42616982Y-66441710D01*
X42544512Y-66316189D01*
X42544510Y-66316187D01*
X42544509Y-66316185D01*
X42442015Y-66213691D01*
X42442012Y-66213689D01*
X42342429Y-66156194D01*
X42301489Y-66110724D01*
X42295094Y-66049874D01*
X42321927Y-66000454D01*
X42884587Y-65437796D01*
X42939103Y-65410019D01*
X42954590Y-65408800D01*
X46704342Y-65408800D01*
X46704344Y-65408800D01*
X46793488Y-65384914D01*
X46873412Y-65338770D01*
X49915270Y-62296912D01*
X49961414Y-62216988D01*
X49969071Y-62188412D01*
X49985300Y-62127844D01*
X49985300Y-61885189D01*
X50004207Y-61826998D01*
X50014290Y-61815191D01*
X50688618Y-61140862D01*
X50743133Y-61113087D01*
X50803565Y-61122658D01*
X50844356Y-61161368D01*
X50889587Y-61239710D01*
X50889589Y-61239712D01*
X50889591Y-61239715D01*
X50992085Y-61342209D01*
X50992087Y-61342210D01*
X50992089Y-61342212D01*
X51117611Y-61414682D01*
X51117612Y-61414682D01*
X51117615Y-61414684D01*
X51257625Y-61452200D01*
X51257626Y-61452200D01*
X51402574Y-61452200D01*
X51402575Y-61452200D01*
X51542585Y-61414684D01*
X51542587Y-61414682D01*
X51542589Y-61414682D01*
X51668110Y-61342212D01*
X51668110Y-61342211D01*
X51668115Y-61342209D01*
X51770609Y-61239715D01*
X51839778Y-61119912D01*
X51843082Y-61114189D01*
X51843082Y-61114187D01*
X51843084Y-61114185D01*
X51880600Y-60974175D01*
X51880600Y-60973790D01*
X51880685Y-60973527D01*
X51881447Y-60967742D01*
X51882519Y-60967883D01*
X51899507Y-60915599D01*
X51909596Y-60903786D01*
X52830996Y-59982386D01*
X52885513Y-59954609D01*
X52945945Y-59964180D01*
X52989210Y-60007445D01*
X53000000Y-60052390D01*
X53000000Y-75950500D01*
X52981093Y-76008691D01*
X52931593Y-76044655D01*
X52901000Y-76049500D01*
X24459489Y-76049500D01*
X24401298Y-76030593D01*
X24389485Y-76020504D01*
X21149821Y-72780840D01*
X21086306Y-72717325D01*
X35591800Y-72717325D01*
X35591800Y-72862274D01*
X35629317Y-73002289D01*
X35701787Y-73127810D01*
X35701789Y-73127812D01*
X35701791Y-73127815D01*
X35804285Y-73230309D01*
X35804287Y-73230310D01*
X35804289Y-73230312D01*
X35929811Y-73302782D01*
X35929812Y-73302782D01*
X35929815Y-73302784D01*
X36069825Y-73340300D01*
X36069826Y-73340300D01*
X36214774Y-73340300D01*
X36214775Y-73340300D01*
X36354785Y-73302784D01*
X36354787Y-73302782D01*
X36354789Y-73302782D01*
X36480310Y-73230312D01*
X36480310Y-73230311D01*
X36480315Y-73230309D01*
X36510822Y-73199802D01*
X36541329Y-73169296D01*
X36595846Y-73141519D01*
X36611332Y-73140300D01*
X41915042Y-73140300D01*
X41915044Y-73140300D01*
X42004188Y-73116414D01*
X42014960Y-73110194D01*
X42014962Y-73110194D01*
X42033490Y-73099496D01*
X42084112Y-73070270D01*
X46693086Y-68461296D01*
X46747603Y-68433519D01*
X46763090Y-68432300D01*
X46849374Y-68432300D01*
X46849375Y-68432300D01*
X46989385Y-68394784D01*
X46989387Y-68394782D01*
X46989389Y-68394782D01*
X47114910Y-68322312D01*
X47114910Y-68322311D01*
X47114915Y-68322309D01*
X47217409Y-68219815D01*
X47227017Y-68203174D01*
X47289882Y-68094289D01*
X47289882Y-68094287D01*
X47289884Y-68094285D01*
X47327400Y-67954275D01*
X47327400Y-67809325D01*
X47289884Y-67669315D01*
X47289882Y-67669312D01*
X47289882Y-67669310D01*
X47217412Y-67543789D01*
X47217410Y-67543787D01*
X47217409Y-67543785D01*
X47114915Y-67441291D01*
X47114912Y-67441289D01*
X47114910Y-67441287D01*
X46989388Y-67368817D01*
X46989389Y-67368817D01*
X46959796Y-67360887D01*
X46849375Y-67331300D01*
X46704425Y-67331300D01*
X46643899Y-67347518D01*
X46564410Y-67368817D01*
X46438889Y-67441287D01*
X46336387Y-67543789D01*
X46263917Y-67669310D01*
X46226400Y-67809325D01*
X46226400Y-67895610D01*
X46207493Y-67953801D01*
X46197404Y-67965614D01*
X41752714Y-72410304D01*
X41698197Y-72438081D01*
X41682710Y-72439300D01*
X36611332Y-72439300D01*
X36553141Y-72420393D01*
X36541329Y-72410304D01*
X36480315Y-72349291D01*
X36480310Y-72349287D01*
X36354788Y-72276817D01*
X36354789Y-72276817D01*
X36325196Y-72268887D01*
X36214775Y-72239300D01*
X36069825Y-72239300D01*
X36008090Y-72255841D01*
X35929810Y-72276817D01*
X35804289Y-72349287D01*
X35701787Y-72451789D01*
X35629317Y-72577310D01*
X35591800Y-72717325D01*
X21086306Y-72717325D01*
X17571309Y-69202328D01*
X10776496Y-62407514D01*
X10748719Y-62352997D01*
X10747500Y-62337510D01*
X10747500Y-62251225D01*
X10730669Y-62188412D01*
X10709984Y-62111215D01*
X10709982Y-62111212D01*
X10709982Y-62111210D01*
X10637512Y-61985689D01*
X10637510Y-61985687D01*
X10637509Y-61985685D01*
X10535015Y-61883191D01*
X10535012Y-61883189D01*
X10535010Y-61883187D01*
X10409488Y-61810717D01*
X10409489Y-61810717D01*
X10367194Y-61799384D01*
X10269475Y-61773200D01*
X10124525Y-61773200D01*
X10067011Y-61788611D01*
X9984510Y-61810717D01*
X9858989Y-61883187D01*
X9756487Y-61985689D01*
X9684017Y-62111210D01*
X9663331Y-62188410D01*
X9646500Y-62251225D01*
X9646500Y-62396175D01*
X9649723Y-62408204D01*
X9684017Y-62536189D01*
X9756487Y-62661710D01*
X9756489Y-62661712D01*
X9756491Y-62661715D01*
X9858985Y-62764209D01*
X9858987Y-62764210D01*
X9858989Y-62764212D01*
X9984511Y-62836682D01*
X9984512Y-62836682D01*
X9984515Y-62836684D01*
X10124525Y-62874200D01*
X10210810Y-62874200D01*
X10269001Y-62893107D01*
X10280814Y-62903196D01*
X23992831Y-76615212D01*
X23992830Y-76615212D01*
X24058087Y-76680468D01*
X24058089Y-76680470D01*
X24063365Y-76683516D01*
X24138012Y-76726614D01*
X24227156Y-76750500D01*
X26101000Y-76750500D01*
X26159191Y-76769407D01*
X26195155Y-76818907D01*
X26200000Y-76849500D01*
X26200000Y-80399999D01*
X26200001Y-80399999D01*
X57799999Y-80399999D01*
X57800000Y-80399999D01*
X57800000Y-76849500D01*
X57818907Y-76791309D01*
X57868407Y-76755345D01*
X57899000Y-76750500D01*
X58993010Y-76750500D01*
X59051201Y-76769407D01*
X59063014Y-76779496D01*
X59631504Y-77347986D01*
X59659281Y-77402503D01*
X59660500Y-77417990D01*
X59660500Y-77504275D01*
X59679718Y-77575996D01*
X59698017Y-77644289D01*
X59770487Y-77769810D01*
X59770489Y-77769812D01*
X59770491Y-77769815D01*
X59872985Y-77872309D01*
X59872987Y-77872310D01*
X59872989Y-77872312D01*
X59998511Y-77944782D01*
X59998512Y-77944782D01*
X59998515Y-77944784D01*
X60138525Y-77982300D01*
X60138526Y-77982300D01*
X60283474Y-77982300D01*
X60283475Y-77982300D01*
X60423485Y-77944784D01*
X60423487Y-77944782D01*
X60423489Y-77944782D01*
X60549010Y-77872312D01*
X60549010Y-77872311D01*
X60549015Y-77872309D01*
X60651509Y-77769815D01*
X60686341Y-77709484D01*
X60723982Y-77644289D01*
X60723982Y-77644287D01*
X60723984Y-77644285D01*
X60761500Y-77504275D01*
X60761500Y-77359325D01*
X60723984Y-77219315D01*
X60723982Y-77219312D01*
X60723982Y-77219310D01*
X60651512Y-77093789D01*
X60651510Y-77093787D01*
X60651509Y-77093785D01*
X60549015Y-76991291D01*
X60549012Y-76991289D01*
X60549010Y-76991287D01*
X60423488Y-76918817D01*
X60423489Y-76918817D01*
X60393896Y-76910887D01*
X60283475Y-76881300D01*
X60283474Y-76881300D01*
X60197190Y-76881300D01*
X60138999Y-76862393D01*
X60127186Y-76852304D01*
X59840164Y-76565282D01*
X59443883Y-76169001D01*
X59416108Y-76114487D01*
X59425679Y-76054055D01*
X59468944Y-76010790D01*
X59513889Y-76000000D01*
X66693410Y-76000000D01*
X66751601Y-76018907D01*
X66787565Y-76068407D01*
X66787565Y-76129593D01*
X66763414Y-76169004D01*
X66115414Y-76817004D01*
X66060897Y-76844781D01*
X66045410Y-76846000D01*
X63369832Y-76846000D01*
X63311641Y-76827093D01*
X63299829Y-76817004D01*
X63238815Y-76755991D01*
X63238810Y-76755987D01*
X63113288Y-76683517D01*
X63113289Y-76683517D01*
X63083696Y-76675587D01*
X62973275Y-76646000D01*
X62828325Y-76646000D01*
X62766590Y-76662541D01*
X62688310Y-76683517D01*
X62562789Y-76755987D01*
X62460287Y-76858489D01*
X62387817Y-76984010D01*
X62358403Y-77093785D01*
X62350300Y-77124025D01*
X62350300Y-77268975D01*
X62379241Y-77376982D01*
X62387817Y-77408989D01*
X62460287Y-77534510D01*
X62460289Y-77534512D01*
X62460291Y-77534515D01*
X62562785Y-77637009D01*
X62562787Y-77637010D01*
X62562789Y-77637012D01*
X62688311Y-77709482D01*
X62688312Y-77709482D01*
X62688315Y-77709484D01*
X62828325Y-77747000D01*
X62828326Y-77747000D01*
X62973274Y-77747000D01*
X62973275Y-77747000D01*
X63113285Y-77709484D01*
X63113287Y-77709482D01*
X63113289Y-77709482D01*
X63238810Y-77637012D01*
X63238810Y-77637011D01*
X63238815Y-77637009D01*
X63269322Y-77606502D01*
X63299829Y-77575996D01*
X63354346Y-77548219D01*
X63369832Y-77547000D01*
X66277742Y-77547000D01*
X66277744Y-77547000D01*
X66366888Y-77523114D01*
X66381288Y-77514800D01*
X66446812Y-77476970D01*
X67469825Y-76453955D01*
X67524342Y-76426179D01*
X67584774Y-76435750D01*
X67609829Y-76453953D01*
X67648685Y-76492809D01*
X67648687Y-76492810D01*
X67648689Y-76492812D01*
X67774211Y-76565282D01*
X67774212Y-76565282D01*
X67774215Y-76565284D01*
X67914225Y-76602800D01*
X67914226Y-76602800D01*
X68059174Y-76602800D01*
X68059175Y-76602800D01*
X68199185Y-76565284D01*
X68199187Y-76565282D01*
X68199189Y-76565282D01*
X68324710Y-76492812D01*
X68324710Y-76492811D01*
X68324715Y-76492809D01*
X68427209Y-76390315D01*
X68427212Y-76390310D01*
X68499682Y-76264789D01*
X68499682Y-76264787D01*
X68499684Y-76264785D01*
X68537200Y-76124775D01*
X68537200Y-76038490D01*
X68556107Y-75980299D01*
X68566196Y-75968486D01*
X69843557Y-74691125D01*
X71228500Y-74691125D01*
X71228500Y-74836074D01*
X71266017Y-74976089D01*
X71338487Y-75101610D01*
X71338489Y-75101612D01*
X71338491Y-75101615D01*
X71440985Y-75204109D01*
X71440987Y-75204110D01*
X71440989Y-75204112D01*
X71566511Y-75276582D01*
X71566512Y-75276582D01*
X71566515Y-75276584D01*
X71706525Y-75314100D01*
X71706526Y-75314100D01*
X71851474Y-75314100D01*
X71851475Y-75314100D01*
X71991485Y-75276584D01*
X71991487Y-75276582D01*
X71991489Y-75276582D01*
X72117010Y-75204112D01*
X72117010Y-75204111D01*
X72117015Y-75204109D01*
X72147572Y-75173552D01*
X72178129Y-75142996D01*
X72232646Y-75115219D01*
X72248132Y-75114000D01*
X77502342Y-75114000D01*
X77502344Y-75114000D01*
X77591488Y-75090114D01*
X77601936Y-75084081D01*
X77601938Y-75084081D01*
X77622577Y-75072164D01*
X77671412Y-75043970D01*
X77879308Y-74836074D01*
X77954687Y-74760696D01*
X78009203Y-74732919D01*
X78024690Y-74731700D01*
X78110974Y-74731700D01*
X78110975Y-74731700D01*
X78250985Y-74694184D01*
X78250987Y-74694182D01*
X78250989Y-74694182D01*
X78376510Y-74621712D01*
X78376510Y-74621711D01*
X78376515Y-74621709D01*
X78479009Y-74519215D01*
X78508247Y-74468572D01*
X78553715Y-74427632D01*
X78614565Y-74421236D01*
X78663987Y-74448069D01*
X80055904Y-75839986D01*
X80083681Y-75894503D01*
X80084900Y-75909990D01*
X80084900Y-75996275D01*
X80097864Y-76044655D01*
X80122417Y-76136289D01*
X80194887Y-76261810D01*
X80194889Y-76261812D01*
X80194891Y-76261815D01*
X80297385Y-76364309D01*
X80297387Y-76364310D01*
X80297389Y-76364312D01*
X80422911Y-76436782D01*
X80422912Y-76436782D01*
X80422915Y-76436784D01*
X80562925Y-76474300D01*
X80562926Y-76474300D01*
X80707874Y-76474300D01*
X80707875Y-76474300D01*
X80847885Y-76436784D01*
X80847887Y-76436782D01*
X80847889Y-76436782D01*
X80973410Y-76364312D01*
X80973410Y-76364311D01*
X80973415Y-76364309D01*
X81075909Y-76261815D01*
X81148384Y-76136285D01*
X81185900Y-75996275D01*
X81185900Y-75851325D01*
X81148384Y-75711315D01*
X81148382Y-75711312D01*
X81148382Y-75711310D01*
X81075912Y-75585789D01*
X81075910Y-75585787D01*
X81075909Y-75585785D01*
X80973415Y-75483291D01*
X80973412Y-75483289D01*
X80973410Y-75483287D01*
X80847888Y-75410817D01*
X80847889Y-75410817D01*
X80818296Y-75402887D01*
X80707875Y-75373300D01*
X80707874Y-75373300D01*
X80621590Y-75373300D01*
X80563399Y-75354393D01*
X80551586Y-75344304D01*
X78762994Y-73555712D01*
X76951312Y-71744030D01*
X76871388Y-71697886D01*
X76782244Y-71674000D01*
X76782242Y-71674000D01*
X73506532Y-71674000D01*
X73448341Y-71655093D01*
X73436529Y-71645004D01*
X73375515Y-71583991D01*
X73375510Y-71583987D01*
X73249988Y-71511517D01*
X73249989Y-71511517D01*
X73219065Y-71503231D01*
X73109975Y-71474000D01*
X72965025Y-71474000D01*
X72913732Y-71487744D01*
X72825010Y-71511517D01*
X72699489Y-71583987D01*
X72596987Y-71686489D01*
X72524517Y-71812010D01*
X72487000Y-71952025D01*
X72487000Y-72096974D01*
X72524517Y-72236989D01*
X72596987Y-72362510D01*
X72596989Y-72362512D01*
X72596991Y-72362515D01*
X72699485Y-72465009D01*
X72699487Y-72465010D01*
X72699489Y-72465012D01*
X72825011Y-72537482D01*
X72825012Y-72537482D01*
X72825015Y-72537484D01*
X72965025Y-72575000D01*
X72965026Y-72575000D01*
X73109974Y-72575000D01*
X73109975Y-72575000D01*
X73249985Y-72537484D01*
X73249987Y-72537482D01*
X73249989Y-72537482D01*
X73375510Y-72465012D01*
X73375510Y-72465011D01*
X73375515Y-72465009D01*
X73420131Y-72420393D01*
X73436529Y-72403996D01*
X73491046Y-72376219D01*
X73506532Y-72375000D01*
X76549910Y-72375000D01*
X76608101Y-72393907D01*
X76619914Y-72403996D01*
X77771630Y-73555712D01*
X77799407Y-73610229D01*
X77789836Y-73670661D01*
X77751127Y-73711452D01*
X77700487Y-73740689D01*
X77597987Y-73843189D01*
X77525517Y-73968710D01*
X77488000Y-74108725D01*
X77488000Y-74195010D01*
X77485531Y-74202607D01*
X77486781Y-74210497D01*
X77476256Y-74231152D01*
X77469093Y-74253201D01*
X77459004Y-74265014D01*
X77340014Y-74384004D01*
X77285497Y-74411781D01*
X77270010Y-74413000D01*
X72247932Y-74413000D01*
X72189741Y-74394093D01*
X72177929Y-74384004D01*
X72117015Y-74323091D01*
X72117010Y-74323087D01*
X71991488Y-74250617D01*
X71991489Y-74250617D01*
X71918845Y-74231152D01*
X71851475Y-74213100D01*
X71706525Y-74213100D01*
X71644790Y-74229641D01*
X71566510Y-74250617D01*
X71440989Y-74323087D01*
X71338487Y-74425589D01*
X71266017Y-74551110D01*
X71228500Y-74691125D01*
X69843557Y-74691125D01*
X70671786Y-73862896D01*
X70726303Y-73835119D01*
X70741790Y-73833900D01*
X75763068Y-73833900D01*
X75821259Y-73852807D01*
X75833071Y-73862896D01*
X75894084Y-73923908D01*
X75894089Y-73923912D01*
X76019611Y-73996382D01*
X76019612Y-73996382D01*
X76019615Y-73996384D01*
X76159625Y-74033900D01*
X76159626Y-74033900D01*
X76304574Y-74033900D01*
X76304575Y-74033900D01*
X76444585Y-73996384D01*
X76444587Y-73996382D01*
X76444589Y-73996382D01*
X76570110Y-73923912D01*
X76570110Y-73923911D01*
X76570115Y-73923909D01*
X76672609Y-73821415D01*
X76719215Y-73740691D01*
X76745082Y-73695889D01*
X76745082Y-73695887D01*
X76745084Y-73695885D01*
X76782600Y-73555875D01*
X76782600Y-73410925D01*
X76745084Y-73270915D01*
X76745082Y-73270912D01*
X76745082Y-73270910D01*
X76672612Y-73145389D01*
X76672610Y-73145387D01*
X76672609Y-73145385D01*
X76570115Y-73042891D01*
X76570112Y-73042889D01*
X76570110Y-73042887D01*
X76444588Y-72970417D01*
X76444589Y-72970417D01*
X76414996Y-72962487D01*
X76304575Y-72932900D01*
X76159625Y-72932900D01*
X76097890Y-72949441D01*
X76019610Y-72970417D01*
X75894089Y-73042887D01*
X75894084Y-73042891D01*
X75833071Y-73103904D01*
X75778554Y-73131681D01*
X75763068Y-73132900D01*
X70509456Y-73132900D01*
X70420312Y-73156786D01*
X70340388Y-73202930D01*
X68070514Y-75472804D01*
X68068219Y-75473973D01*
X68066938Y-75476205D01*
X68054225Y-75481103D01*
X68015997Y-75500581D01*
X68011106Y-75501231D01*
X68005820Y-75501800D01*
X67914225Y-75501800D01*
X67852720Y-75518280D01*
X67845096Y-75519101D01*
X67822294Y-75514314D01*
X67799022Y-75513095D01*
X67792911Y-75508146D01*
X67785215Y-75506531D01*
X67769576Y-75489250D01*
X67751472Y-75474589D01*
X67749118Y-75466642D01*
X67744160Y-75461164D01*
X67742256Y-75443478D01*
X67735500Y-75420670D01*
X67735500Y-70961725D01*
X83196500Y-70961725D01*
X83196500Y-71106674D01*
X83234017Y-71246689D01*
X83306487Y-71372210D01*
X83306489Y-71372212D01*
X83306491Y-71372215D01*
X83367505Y-71433229D01*
X83395281Y-71487744D01*
X83396500Y-71503231D01*
X83396500Y-72360844D01*
X83396948Y-72362515D01*
X83411438Y-72416593D01*
X83411437Y-72416593D01*
X83417522Y-72439300D01*
X83420386Y-72449988D01*
X83466530Y-72529912D01*
X86909005Y-75972387D01*
X86936781Y-76026902D01*
X86938000Y-76042389D01*
X86938000Y-76128674D01*
X86975517Y-76268689D01*
X87047987Y-76394210D01*
X87047989Y-76394212D01*
X87047991Y-76394215D01*
X87150485Y-76496709D01*
X87150487Y-76496710D01*
X87150489Y-76496712D01*
X87276011Y-76569182D01*
X87276012Y-76569182D01*
X87276015Y-76569184D01*
X87416025Y-76606700D01*
X87416026Y-76606700D01*
X87560974Y-76606700D01*
X87560975Y-76606700D01*
X87700985Y-76569184D01*
X87700987Y-76569182D01*
X87700989Y-76569182D01*
X87826510Y-76496712D01*
X87826510Y-76496711D01*
X87826515Y-76496709D01*
X87929009Y-76394215D01*
X88001484Y-76268685D01*
X88039000Y-76128675D01*
X88039000Y-75983725D01*
X88001484Y-75843715D01*
X88001482Y-75843712D01*
X88001482Y-75843710D01*
X87929012Y-75718189D01*
X87929010Y-75718187D01*
X87929009Y-75718185D01*
X87826515Y-75615691D01*
X87826512Y-75615689D01*
X87826510Y-75615687D01*
X87700988Y-75543217D01*
X87700989Y-75543217D01*
X87671396Y-75535287D01*
X87560975Y-75505700D01*
X87560974Y-75505700D01*
X87474690Y-75505700D01*
X87416499Y-75486793D01*
X87404686Y-75476704D01*
X84126496Y-72198514D01*
X84098719Y-72143997D01*
X84097500Y-72128510D01*
X84097500Y-71503231D01*
X84116407Y-71445040D01*
X84126490Y-71433233D01*
X84187509Y-71372215D01*
X84259984Y-71246685D01*
X84297500Y-71106675D01*
X84297500Y-70961725D01*
X84259984Y-70821715D01*
X84259982Y-70821712D01*
X84259982Y-70821710D01*
X84187512Y-70696189D01*
X84187510Y-70696187D01*
X84187509Y-70696185D01*
X84085015Y-70593691D01*
X84085012Y-70593689D01*
X84085010Y-70593687D01*
X83959488Y-70521217D01*
X83959489Y-70521217D01*
X83929896Y-70513287D01*
X83819475Y-70483700D01*
X83674525Y-70483700D01*
X83612790Y-70500241D01*
X83534510Y-70521217D01*
X83408989Y-70593687D01*
X83306487Y-70696189D01*
X83234017Y-70821710D01*
X83196500Y-70961725D01*
X67735500Y-70961725D01*
X67735500Y-67128190D01*
X67754407Y-67069999D01*
X67764496Y-67058186D01*
X71895186Y-62927496D01*
X71949703Y-62899719D01*
X71965190Y-62898500D01*
X72051474Y-62898500D01*
X72051475Y-62898500D01*
X72191485Y-62860984D01*
X72191487Y-62860982D01*
X72191489Y-62860982D01*
X72317010Y-62788512D01*
X72317010Y-62788511D01*
X72317015Y-62788509D01*
X72419509Y-62686015D01*
X72491984Y-62560485D01*
X72529500Y-62420475D01*
X72529500Y-62275525D01*
X72491984Y-62135515D01*
X72491982Y-62135512D01*
X72491982Y-62135510D01*
X72419512Y-62009989D01*
X72419508Y-62009984D01*
X72358496Y-61948971D01*
X72330719Y-61894454D01*
X72329500Y-61878968D01*
X72329500Y-57972357D01*
X72326457Y-57961000D01*
X72305614Y-57883212D01*
X72293144Y-57861613D01*
X72293143Y-57861611D01*
X72293143Y-57861610D01*
X72259473Y-57803292D01*
X72259472Y-57803291D01*
X72259471Y-57803290D01*
X72259470Y-57803288D01*
X70543796Y-56087614D01*
X70516019Y-56033097D01*
X70514800Y-56017610D01*
X70514800Y-55931327D01*
X70514800Y-55931325D01*
X70477284Y-55791315D01*
X70477282Y-55791312D01*
X70475676Y-55785317D01*
X70478878Y-55724215D01*
X70517383Y-55676665D01*
X70576484Y-55660829D01*
X70633605Y-55682755D01*
X70641307Y-55689689D01*
X74629304Y-59677686D01*
X74657081Y-59732203D01*
X74658300Y-59747690D01*
X74658300Y-67927868D01*
X74651136Y-67949915D01*
X74647510Y-67972813D01*
X74641861Y-67978461D01*
X74639393Y-67986059D01*
X74620636Y-67999686D01*
X74604245Y-68016078D01*
X74596355Y-68017327D01*
X74589893Y-68022023D01*
X74566708Y-68022023D01*
X74543813Y-68025649D01*
X74536696Y-68022023D01*
X74528707Y-68022023D01*
X74489296Y-67997872D01*
X74488196Y-67996772D01*
X74460419Y-67942255D01*
X74459200Y-67926768D01*
X74459200Y-66070557D01*
X74440416Y-66000454D01*
X74435314Y-65981412D01*
X74435312Y-65981409D01*
X74435312Y-65981407D01*
X74389172Y-65901491D01*
X74389171Y-65901490D01*
X74389170Y-65901489D01*
X74389169Y-65901487D01*
X73033896Y-64546214D01*
X73006119Y-64491697D01*
X73004900Y-64476210D01*
X73004900Y-64389925D01*
X72988376Y-64328257D01*
X72967384Y-64249915D01*
X72967382Y-64249912D01*
X72967382Y-64249910D01*
X72894912Y-64124389D01*
X72894910Y-64124387D01*
X72894909Y-64124385D01*
X72792415Y-64021891D01*
X72792412Y-64021889D01*
X72792410Y-64021887D01*
X72666888Y-63949417D01*
X72666889Y-63949417D01*
X72629192Y-63939316D01*
X72526875Y-63911900D01*
X72381925Y-63911900D01*
X72320190Y-63928441D01*
X72241910Y-63949417D01*
X72116389Y-64021887D01*
X72013887Y-64124389D01*
X71941417Y-64249910D01*
X71941416Y-64249915D01*
X71903900Y-64389925D01*
X71903900Y-64534875D01*
X71933487Y-64645296D01*
X71941417Y-64674889D01*
X72013887Y-64800410D01*
X72013889Y-64800412D01*
X72013891Y-64800415D01*
X72116385Y-64902909D01*
X72116387Y-64902910D01*
X72116389Y-64902912D01*
X72241911Y-64975382D01*
X72241912Y-64975382D01*
X72241915Y-64975384D01*
X72381925Y-65012900D01*
X72468210Y-65012900D01*
X72526401Y-65031807D01*
X72538214Y-65041896D01*
X73729204Y-66232886D01*
X73756981Y-66287403D01*
X73758200Y-66302890D01*
X73758200Y-67926768D01*
X73739293Y-67984959D01*
X73729204Y-67996771D01*
X73668191Y-68057784D01*
X73668187Y-68057789D01*
X73595717Y-68183310D01*
X73567934Y-68286996D01*
X73558200Y-68323325D01*
X73558200Y-68468275D01*
X73564964Y-68493517D01*
X73595717Y-68608289D01*
X73668187Y-68733810D01*
X73668189Y-68733812D01*
X73668191Y-68733815D01*
X73770685Y-68836309D01*
X73770687Y-68836310D01*
X73770689Y-68836312D01*
X73896211Y-68908782D01*
X73896212Y-68908782D01*
X73896215Y-68908784D01*
X74036225Y-68946300D01*
X74036226Y-68946300D01*
X74181174Y-68946300D01*
X74181175Y-68946300D01*
X74321185Y-68908784D01*
X74357674Y-68887716D01*
X74417521Y-68874995D01*
X74473417Y-68899881D01*
X74492910Y-68923953D01*
X74568287Y-69054510D01*
X74568289Y-69054512D01*
X74568291Y-69054515D01*
X74670785Y-69157009D01*
X74670787Y-69157010D01*
X74670789Y-69157012D01*
X74796311Y-69229482D01*
X74796312Y-69229482D01*
X74796315Y-69229484D01*
X74936325Y-69267000D01*
X74936326Y-69267000D01*
X75081274Y-69267000D01*
X75081275Y-69267000D01*
X75221285Y-69229484D01*
X75221287Y-69229482D01*
X75221289Y-69229482D01*
X75346810Y-69157012D01*
X75346810Y-69157011D01*
X75346815Y-69157009D01*
X75449309Y-69054515D01*
X75467923Y-69022275D01*
X75521782Y-68928989D01*
X75521782Y-68928987D01*
X75521784Y-68928985D01*
X75559300Y-68788975D01*
X75559300Y-68644025D01*
X75521784Y-68504015D01*
X75521782Y-68504012D01*
X75521782Y-68504010D01*
X75449312Y-68378489D01*
X75449308Y-68378484D01*
X75388296Y-68317471D01*
X75360519Y-68262954D01*
X75359300Y-68247468D01*
X75359300Y-59515357D01*
X75359300Y-59515356D01*
X75335414Y-59426212D01*
X75330606Y-59417885D01*
X75330605Y-59417882D01*
X75289271Y-59346290D01*
X75289270Y-59346288D01*
X67361683Y-51418701D01*
X67333908Y-51364187D01*
X67343479Y-51303755D01*
X67386744Y-51260490D01*
X67431689Y-51249700D01*
X68337910Y-51249700D01*
X68396101Y-51268607D01*
X68407914Y-51278696D01*
X71440104Y-54310886D01*
X71467881Y-54365403D01*
X71469100Y-54380890D01*
X71469100Y-54467174D01*
X71506617Y-54607189D01*
X71579087Y-54732710D01*
X71579089Y-54732712D01*
X71579091Y-54732715D01*
X71681585Y-54835209D01*
X71681587Y-54835210D01*
X71681589Y-54835212D01*
X71807111Y-54907682D01*
X71807112Y-54907682D01*
X71807115Y-54907684D01*
X71947125Y-54945200D01*
X71947126Y-54945200D01*
X72092074Y-54945200D01*
X72092075Y-54945200D01*
X72232085Y-54907684D01*
X72232087Y-54907682D01*
X72232089Y-54907682D01*
X72357610Y-54835212D01*
X72357610Y-54835211D01*
X72357615Y-54835209D01*
X72460109Y-54732715D01*
X72460112Y-54732710D01*
X72532582Y-54607189D01*
X72532582Y-54607187D01*
X72532584Y-54607185D01*
X72570100Y-54467175D01*
X72570100Y-54322225D01*
X72532584Y-54182215D01*
X72532582Y-54182212D01*
X72532582Y-54182210D01*
X72460112Y-54056689D01*
X72460110Y-54056687D01*
X72460109Y-54056685D01*
X72357615Y-53954191D01*
X72357612Y-53954189D01*
X72357610Y-53954187D01*
X72232088Y-53881717D01*
X72232089Y-53881717D01*
X72141811Y-53857527D01*
X72092075Y-53844200D01*
X72092074Y-53844200D01*
X72005790Y-53844200D01*
X71947599Y-53825293D01*
X71935786Y-53815204D01*
X68933886Y-50813304D01*
X68906109Y-50758787D01*
X68915680Y-50698355D01*
X68958945Y-50655090D01*
X69003890Y-50644300D01*
X72798110Y-50644300D01*
X72856301Y-50663207D01*
X72868114Y-50673296D01*
X74295504Y-52100686D01*
X74323281Y-52155203D01*
X74324500Y-52170690D01*
X74324500Y-52256975D01*
X74339674Y-52313604D01*
X74362017Y-52396989D01*
X74434487Y-52522510D01*
X74434489Y-52522512D01*
X74434491Y-52522515D01*
X74536985Y-52625009D01*
X74536987Y-52625010D01*
X74536989Y-52625012D01*
X74662511Y-52697482D01*
X74662512Y-52697482D01*
X74662515Y-52697484D01*
X74802525Y-52735000D01*
X74888810Y-52735000D01*
X74947001Y-52753907D01*
X74958814Y-52763996D01*
X76807487Y-54612669D01*
X76865611Y-54646227D01*
X76887412Y-54658814D01*
X76976556Y-54682700D01*
X78238468Y-54682700D01*
X78296659Y-54701607D01*
X78308471Y-54711696D01*
X78369484Y-54772708D01*
X78369489Y-54772712D01*
X78495011Y-54845182D01*
X78495012Y-54845182D01*
X78495015Y-54845184D01*
X78635025Y-54882700D01*
X78635026Y-54882700D01*
X78779974Y-54882700D01*
X78779975Y-54882700D01*
X78919985Y-54845184D01*
X78919987Y-54845182D01*
X78919989Y-54845182D01*
X79045510Y-54772712D01*
X79045510Y-54772711D01*
X79045515Y-54772709D01*
X79148009Y-54670215D01*
X79150458Y-54665974D01*
X79220482Y-54544689D01*
X79220482Y-54544687D01*
X79220484Y-54544685D01*
X79258000Y-54404675D01*
X79258000Y-54259725D01*
X79220484Y-54119715D01*
X79220482Y-54119712D01*
X79220482Y-54119710D01*
X79148134Y-53994400D01*
X79135412Y-53934552D01*
X79160299Y-53878656D01*
X79213287Y-53848063D01*
X79233870Y-53845900D01*
X80245054Y-53845900D01*
X80303245Y-53864807D01*
X80339209Y-53914307D01*
X80340675Y-53919258D01*
X80352341Y-53962793D01*
X80364317Y-54007489D01*
X80436787Y-54133010D01*
X80436789Y-54133012D01*
X80436791Y-54133015D01*
X80539285Y-54235509D01*
X80539287Y-54235510D01*
X80539289Y-54235512D01*
X80664811Y-54307982D01*
X80664812Y-54307982D01*
X80664815Y-54307984D01*
X80804825Y-54345500D01*
X80804826Y-54345500D01*
X80949774Y-54345500D01*
X80949775Y-54345500D01*
X81089785Y-54307984D01*
X81089787Y-54307982D01*
X81089789Y-54307982D01*
X81215310Y-54235512D01*
X81215310Y-54235511D01*
X81215315Y-54235509D01*
X81317809Y-54133015D01*
X81348119Y-54080517D01*
X81390282Y-54007489D01*
X81390282Y-54007487D01*
X81390284Y-54007485D01*
X81427800Y-53867475D01*
X81427800Y-53722525D01*
X81390284Y-53582515D01*
X81390282Y-53582512D01*
X81390282Y-53582510D01*
X81317812Y-53456989D01*
X81317810Y-53456987D01*
X81317809Y-53456985D01*
X81215315Y-53354491D01*
X81215312Y-53354489D01*
X81215310Y-53354487D01*
X81089788Y-53282017D01*
X81089789Y-53282017D01*
X81060196Y-53274087D01*
X80949775Y-53244500D01*
X80949774Y-53244500D01*
X80863489Y-53244500D01*
X80805298Y-53225593D01*
X80793491Y-53215509D01*
X80792912Y-53214930D01*
X80712988Y-53168786D01*
X80623844Y-53144900D01*
X80623842Y-53144900D01*
X78866869Y-53144900D01*
X78808678Y-53125993D01*
X78772714Y-53076493D01*
X78771243Y-53020276D01*
X78780690Y-52985018D01*
X78785900Y-52965575D01*
X78785900Y-52820625D01*
X78748384Y-52680615D01*
X78748382Y-52680612D01*
X78748382Y-52680610D01*
X78675912Y-52555089D01*
X78675910Y-52555087D01*
X78675909Y-52555085D01*
X78573415Y-52452591D01*
X78573412Y-52452589D01*
X78573410Y-52452587D01*
X78447888Y-52380117D01*
X78447889Y-52380117D01*
X78418296Y-52372187D01*
X78307875Y-52342600D01*
X78307874Y-52342600D01*
X78221590Y-52342600D01*
X78163399Y-52323693D01*
X78151586Y-52313604D01*
X76201886Y-50363904D01*
X74182812Y-48344830D01*
X74176932Y-48341435D01*
X74135992Y-48295966D01*
X74129598Y-48235115D01*
X74160191Y-48182128D01*
X74216087Y-48157242D01*
X74226434Y-48156700D01*
X76159510Y-48156700D01*
X76217701Y-48175607D01*
X76229514Y-48185696D01*
X79067688Y-51023870D01*
X79147612Y-51070014D01*
X79236756Y-51093900D01*
X79236758Y-51093900D01*
X83891842Y-51093900D01*
X83891844Y-51093900D01*
X83980988Y-51070014D01*
X84060912Y-51023870D01*
X84566586Y-50518196D01*
X84621103Y-50490419D01*
X84636590Y-50489200D01*
X84722874Y-50489200D01*
X84722875Y-50489200D01*
X84862885Y-50451684D01*
X84862887Y-50451682D01*
X84862889Y-50451682D01*
X84988410Y-50379212D01*
X84988410Y-50379211D01*
X84988415Y-50379209D01*
X85090909Y-50276715D01*
X85148552Y-50176875D01*
X85163382Y-50151189D01*
X85163382Y-50151187D01*
X85163384Y-50151185D01*
X85200900Y-50011175D01*
X85200900Y-49866225D01*
X85163384Y-49726215D01*
X85163382Y-49726212D01*
X85163382Y-49726210D01*
X85090912Y-49600689D01*
X85090910Y-49600687D01*
X85090909Y-49600685D01*
X84988415Y-49498191D01*
X84988412Y-49498189D01*
X84988410Y-49498187D01*
X84862888Y-49425717D01*
X84862889Y-49425717D01*
X84833296Y-49417787D01*
X84722875Y-49388200D01*
X84577925Y-49388200D01*
X84516190Y-49404741D01*
X84437910Y-49425717D01*
X84312389Y-49498187D01*
X84209887Y-49600689D01*
X84137417Y-49726210D01*
X84099900Y-49866225D01*
X84099900Y-49952510D01*
X84080993Y-50010701D01*
X84070904Y-50022514D01*
X83729514Y-50363904D01*
X83674997Y-50391681D01*
X83659510Y-50392900D01*
X80231135Y-50392900D01*
X80172944Y-50373993D01*
X80136980Y-50324493D01*
X80135509Y-50268276D01*
X80159999Y-50176877D01*
X80160000Y-50176875D01*
X80160000Y-50031925D01*
X80142653Y-49967186D01*
X80122484Y-49891915D01*
X80122482Y-49891912D01*
X80122482Y-49891910D01*
X80050012Y-49766389D01*
X80050008Y-49766384D01*
X79988996Y-49705371D01*
X79961219Y-49650854D01*
X79960000Y-49635368D01*
X79960000Y-48973757D01*
X79960000Y-48973756D01*
X79936114Y-48884612D01*
X79896430Y-48815878D01*
X79889970Y-48804689D01*
X79889968Y-48804687D01*
X79824712Y-48739430D01*
X79824712Y-48739431D01*
X77734496Y-46649214D01*
X77706719Y-46594697D01*
X77705500Y-46579210D01*
X77705500Y-46540757D01*
X77705500Y-46540756D01*
X77696794Y-46474627D01*
X77666127Y-46360177D01*
X77640603Y-46298556D01*
X77581360Y-46195944D01*
X77553217Y-46159267D01*
X77532793Y-46101591D01*
X77550171Y-46042926D01*
X77598712Y-46005678D01*
X77631759Y-46000000D01*
X88999999Y-46000000D01*
X89000000Y-46000000D01*
X89000000Y-2500000D01*
X52000000Y-2500000D01*
X52000000Y-46000000D01*
X76368241Y-46000000D01*
X76426432Y-46018907D01*
X76462396Y-46068407D01*
X76462396Y-46129593D01*
X76446783Y-46159267D01*
X76418642Y-46195940D01*
X76418640Y-46195944D01*
X76359397Y-46298556D01*
X76333873Y-46360177D01*
X76333871Y-46360183D01*
X76333871Y-46360184D01*
X76303205Y-46474629D01*
X76303205Y-46474634D01*
X76294500Y-46540754D01*
X76294500Y-46659245D01*
X76303205Y-46725365D01*
X76303205Y-46725370D01*
X76303206Y-46725373D01*
X76333873Y-46839823D01*
X76359397Y-46901444D01*
X76418640Y-47004056D01*
X76418642Y-47004059D01*
X76459238Y-47056965D01*
X76459240Y-47056967D01*
X76459244Y-47056972D01*
X76543028Y-47140756D01*
X76543032Y-47140759D01*
X76543034Y-47140761D01*
X76595940Y-47181357D01*
X76595944Y-47181360D01*
X76698556Y-47240603D01*
X76760177Y-47266127D01*
X76874627Y-47296794D01*
X76940756Y-47305500D01*
X76940757Y-47305500D01*
X77059243Y-47305500D01*
X77059244Y-47305500D01*
X77125373Y-47296794D01*
X77239823Y-47266127D01*
X77263719Y-47256228D01*
X77324716Y-47251429D01*
X77371608Y-47277689D01*
X79230004Y-49136085D01*
X79257781Y-49190602D01*
X79259000Y-49206089D01*
X79259000Y-49635368D01*
X79240093Y-49693559D01*
X79230004Y-49705371D01*
X79168989Y-49766386D01*
X79099013Y-49887588D01*
X79053543Y-49928528D01*
X78992693Y-49934923D01*
X78943273Y-49908091D01*
X77774612Y-48739430D01*
X76560912Y-47525730D01*
X76480988Y-47479586D01*
X76391844Y-47455700D01*
X76391842Y-47455700D01*
X72448032Y-47455700D01*
X72389841Y-47436793D01*
X72378029Y-47426704D01*
X72317015Y-47365691D01*
X72317010Y-47365687D01*
X72191488Y-47293217D01*
X72191489Y-47293217D01*
X72090392Y-47266128D01*
X72051475Y-47255700D01*
X71906525Y-47255700D01*
X71867608Y-47266128D01*
X71766510Y-47293217D01*
X71640989Y-47365687D01*
X71538487Y-47468189D01*
X71466017Y-47593710D01*
X71431538Y-47722386D01*
X71428500Y-47733725D01*
X71428500Y-47878675D01*
X71440188Y-47922296D01*
X71457779Y-47987943D01*
X71454577Y-48049044D01*
X71416072Y-48096594D01*
X71356971Y-48112430D01*
X71336531Y-48109193D01*
X71208175Y-48074800D01*
X71063225Y-48074800D01*
X71001490Y-48091341D01*
X70923210Y-48112317D01*
X70797689Y-48184787D01*
X70695187Y-48287289D01*
X70622717Y-48412810D01*
X70585200Y-48552825D01*
X70585200Y-48697774D01*
X70600474Y-48754777D01*
X70597272Y-48815878D01*
X70558766Y-48863428D01*
X70504847Y-48879400D01*
X70255417Y-48879400D01*
X70197226Y-48860493D01*
X70161262Y-48810993D01*
X70159796Y-48806046D01*
X70151884Y-48776515D01*
X70151882Y-48776512D01*
X70151882Y-48776510D01*
X70079412Y-48650989D01*
X70079410Y-48650987D01*
X70079409Y-48650985D01*
X69976915Y-48548491D01*
X69976912Y-48548489D01*
X69976910Y-48548487D01*
X69851388Y-48476017D01*
X69851389Y-48476017D01*
X69821796Y-48468087D01*
X69711375Y-48438500D01*
X69566425Y-48438500D01*
X69504690Y-48455041D01*
X69426410Y-48476017D01*
X69300889Y-48548487D01*
X69300884Y-48548491D01*
X69239871Y-48609504D01*
X69185354Y-48637281D01*
X69169868Y-48638500D01*
X60115790Y-48638500D01*
X60093742Y-48631336D01*
X60070845Y-48627710D01*
X60065196Y-48622061D01*
X60057599Y-48619593D01*
X60043971Y-48600836D01*
X60027580Y-48584445D01*
X60026330Y-48576555D01*
X60021635Y-48570093D01*
X60021635Y-48546907D01*
X60018009Y-48524013D01*
X60021635Y-48516896D01*
X60021635Y-48508907D01*
X60045786Y-48469496D01*
X60127586Y-48387696D01*
X60182103Y-48359919D01*
X60197590Y-48358700D01*
X60283874Y-48358700D01*
X60283875Y-48358700D01*
X60423885Y-48321184D01*
X60423887Y-48321182D01*
X60423889Y-48321182D01*
X60549410Y-48248712D01*
X60549410Y-48248711D01*
X60549415Y-48248709D01*
X60651909Y-48146215D01*
X60708011Y-48049044D01*
X60724382Y-48020689D01*
X60724382Y-48020687D01*
X60724384Y-48020685D01*
X60761900Y-47880675D01*
X60761900Y-47735725D01*
X60729879Y-47616222D01*
X60733081Y-47555122D01*
X60771587Y-47507572D01*
X60825506Y-47491600D01*
X65245310Y-47491600D01*
X65303501Y-47510507D01*
X65315314Y-47520596D01*
X65517104Y-47722386D01*
X65544881Y-47776903D01*
X65546100Y-47792390D01*
X65546100Y-47878675D01*
X65560393Y-47932015D01*
X65583617Y-48018689D01*
X65656087Y-48144210D01*
X65656089Y-48144212D01*
X65656091Y-48144215D01*
X65758585Y-48246709D01*
X65758587Y-48246710D01*
X65758589Y-48246712D01*
X65884111Y-48319182D01*
X65884112Y-48319182D01*
X65884115Y-48319184D01*
X66024125Y-48356700D01*
X66024126Y-48356700D01*
X66169074Y-48356700D01*
X66169075Y-48356700D01*
X66309085Y-48319184D01*
X66309087Y-48319182D01*
X66309089Y-48319182D01*
X66434610Y-48246712D01*
X66434610Y-48246711D01*
X66434615Y-48246709D01*
X66537109Y-48144215D01*
X66555460Y-48112430D01*
X66609582Y-48018689D01*
X66609582Y-48018687D01*
X66609584Y-48018685D01*
X66647100Y-47878675D01*
X66647100Y-47733725D01*
X66609584Y-47593715D01*
X66609582Y-47593712D01*
X66609582Y-47593710D01*
X66537112Y-47468189D01*
X66537110Y-47468187D01*
X66537109Y-47468185D01*
X66434615Y-47365691D01*
X66434612Y-47365689D01*
X66434610Y-47365687D01*
X66309088Y-47293217D01*
X66309089Y-47293217D01*
X66207992Y-47266128D01*
X66169075Y-47255700D01*
X66169074Y-47255700D01*
X66082790Y-47255700D01*
X66024599Y-47236793D01*
X66012787Y-47226704D01*
X65646714Y-46860632D01*
X65646712Y-46860630D01*
X65566788Y-46814486D01*
X65477644Y-46790600D01*
X24654156Y-46790600D01*
X24565012Y-46814486D01*
X24485088Y-46860630D01*
X18230514Y-53115204D01*
X18175997Y-53142981D01*
X18160510Y-53144200D01*
X18074225Y-53144200D01*
X18012490Y-53160741D01*
X17934210Y-53181717D01*
X17808689Y-53254187D01*
X17706187Y-53356689D01*
X17633717Y-53482210D01*
X17610323Y-53569516D01*
X17596200Y-53622225D01*
X17596200Y-53767175D01*
X17610145Y-53819216D01*
X17633717Y-53907189D01*
X17706187Y-54032710D01*
X17706189Y-54032712D01*
X17706191Y-54032715D01*
X17808685Y-54135209D01*
X17808687Y-54135210D01*
X17808689Y-54135212D01*
X17934211Y-54207682D01*
X17934212Y-54207682D01*
X17934215Y-54207684D01*
X18074225Y-54245200D01*
X18074226Y-54245200D01*
X18219174Y-54245200D01*
X18219175Y-54245200D01*
X18359185Y-54207684D01*
X18359187Y-54207682D01*
X18359189Y-54207682D01*
X18484710Y-54135212D01*
X18484710Y-54135211D01*
X18484715Y-54135209D01*
X18587209Y-54032715D01*
X18598462Y-54013225D01*
X18659682Y-53907189D01*
X18659682Y-53907187D01*
X18659684Y-53907185D01*
X18697200Y-53767175D01*
X18697200Y-53680890D01*
X18716107Y-53622699D01*
X18726196Y-53610886D01*
X24816486Y-47520596D01*
X24871003Y-47492819D01*
X24886490Y-47491600D01*
X25346110Y-47491600D01*
X25404301Y-47510507D01*
X25440265Y-47560007D01*
X25440265Y-47621193D01*
X25416114Y-47660604D01*
X18194730Y-54881988D01*
X18158237Y-54945198D01*
X18158236Y-54945199D01*
X18158235Y-54945198D01*
X18148587Y-54961910D01*
X18148586Y-54961912D01*
X18148320Y-54962907D01*
X18124700Y-55051057D01*
X18124700Y-56128668D01*
X18105793Y-56186859D01*
X18095704Y-56198671D01*
X18034691Y-56259684D01*
X18034687Y-56259689D01*
X17962217Y-56385210D01*
X17924700Y-56525225D01*
X17924700Y-56670174D01*
X17962217Y-56810189D01*
X18034687Y-56935710D01*
X18034689Y-56935712D01*
X18034691Y-56935715D01*
X18137185Y-57038209D01*
X18137187Y-57038210D01*
X18137189Y-57038212D01*
X18262711Y-57110682D01*
X18262712Y-57110682D01*
X18262715Y-57110684D01*
X18402725Y-57148200D01*
X18402726Y-57148200D01*
X18547674Y-57148200D01*
X18547675Y-57148200D01*
X18687685Y-57110684D01*
X18687687Y-57110682D01*
X18687689Y-57110682D01*
X18813210Y-57038212D01*
X18813210Y-57038211D01*
X18813215Y-57038209D01*
X18915709Y-56935715D01*
X18988184Y-56810185D01*
X19025700Y-56670175D01*
X19025700Y-56525225D01*
X18988184Y-56385215D01*
X18988182Y-56385212D01*
X18988182Y-56385210D01*
X18915712Y-56259689D01*
X18915708Y-56259684D01*
X18854696Y-56198671D01*
X18851070Y-56191554D01*
X18844607Y-56186859D01*
X18837442Y-56164807D01*
X18826919Y-56144154D01*
X18825700Y-56128668D01*
X18825700Y-56008125D01*
X27188200Y-56008125D01*
X27188200Y-56153075D01*
X27194616Y-56177018D01*
X27225717Y-56293089D01*
X27298187Y-56418610D01*
X27298189Y-56418612D01*
X27298191Y-56418615D01*
X27400685Y-56521109D01*
X27400687Y-56521110D01*
X27400689Y-56521112D01*
X27526211Y-56593582D01*
X27526212Y-56593582D01*
X27526215Y-56593584D01*
X27666225Y-56631100D01*
X27666226Y-56631100D01*
X27811174Y-56631100D01*
X27811175Y-56631100D01*
X27951185Y-56593584D01*
X27951187Y-56593582D01*
X27951189Y-56593582D01*
X28076710Y-56521112D01*
X28076710Y-56521111D01*
X28076715Y-56521109D01*
X28179209Y-56418615D01*
X28198493Y-56385215D01*
X28251682Y-56293089D01*
X28251682Y-56293087D01*
X28251684Y-56293085D01*
X28289200Y-56153075D01*
X28289200Y-56066790D01*
X28308107Y-56008599D01*
X28318196Y-55996786D01*
X29849786Y-54465196D01*
X29904303Y-54437419D01*
X29919790Y-54436200D01*
X36573968Y-54436200D01*
X36632159Y-54455107D01*
X36643971Y-54465196D01*
X36704984Y-54526208D01*
X36704989Y-54526212D01*
X36830511Y-54598682D01*
X36830512Y-54598682D01*
X36830515Y-54598684D01*
X36970525Y-54636200D01*
X36970526Y-54636200D01*
X37115474Y-54636200D01*
X37115475Y-54636200D01*
X37255485Y-54598684D01*
X37255487Y-54598682D01*
X37255489Y-54598682D01*
X37381010Y-54526212D01*
X37381010Y-54526211D01*
X37381015Y-54526209D01*
X37483509Y-54423715D01*
X37485357Y-54420515D01*
X37555982Y-54298189D01*
X37555982Y-54298187D01*
X37555984Y-54298185D01*
X37593500Y-54158175D01*
X37593500Y-54013225D01*
X37555984Y-53873215D01*
X37555982Y-53873212D01*
X37555982Y-53873210D01*
X37483512Y-53747689D01*
X37483510Y-53747687D01*
X37483509Y-53747685D01*
X37381015Y-53645191D01*
X37381012Y-53645189D01*
X37381010Y-53645187D01*
X37255488Y-53572717D01*
X37255489Y-53572717D01*
X37225896Y-53564787D01*
X37115475Y-53535200D01*
X36970525Y-53535200D01*
X36908790Y-53551741D01*
X36830510Y-53572717D01*
X36704989Y-53645187D01*
X36704984Y-53645191D01*
X36643971Y-53706204D01*
X36589454Y-53733981D01*
X36573968Y-53735200D01*
X29687456Y-53735200D01*
X29661973Y-53742028D01*
X29636490Y-53748856D01*
X29636489Y-53748855D01*
X29598315Y-53759084D01*
X29518388Y-53805230D01*
X27822514Y-55501104D01*
X27767997Y-55528881D01*
X27752510Y-55530100D01*
X27666225Y-55530100D01*
X27604490Y-55546641D01*
X27526210Y-55567617D01*
X27400689Y-55640087D01*
X27298187Y-55742589D01*
X27225717Y-55868110D01*
X27225716Y-55868115D01*
X27188200Y-56008125D01*
X18825700Y-56008125D01*
X18825700Y-55283389D01*
X18844607Y-55225198D01*
X18854690Y-55213391D01*
X20293478Y-53774602D01*
X20347993Y-53746827D01*
X20408425Y-53756398D01*
X20449216Y-53795108D01*
X20501987Y-53886510D01*
X20501989Y-53886512D01*
X20501991Y-53886515D01*
X20604485Y-53989009D01*
X20604487Y-53989010D01*
X20604489Y-53989012D01*
X20730011Y-54061482D01*
X20730012Y-54061482D01*
X20730015Y-54061484D01*
X20870025Y-54099000D01*
X20870026Y-54099000D01*
X21014974Y-54099000D01*
X21014975Y-54099000D01*
X21154985Y-54061484D01*
X21154987Y-54061482D01*
X21154989Y-54061482D01*
X21280510Y-53989012D01*
X21280510Y-53989011D01*
X21280515Y-53989009D01*
X21383009Y-53886515D01*
X21385780Y-53881716D01*
X21455482Y-53760989D01*
X21455482Y-53760987D01*
X21455484Y-53760985D01*
X21493000Y-53620975D01*
X21493000Y-53534689D01*
X21511907Y-53476498D01*
X21521996Y-53464685D01*
X24346085Y-50640596D01*
X24400602Y-50612819D01*
X24416089Y-50611600D01*
X52860510Y-50611600D01*
X52918701Y-50630507D01*
X52954665Y-50680007D01*
X52954665Y-50741193D01*
X52930514Y-50780604D01*
X51583814Y-52127304D01*
X51529297Y-52155081D01*
X51513810Y-52156300D01*
X51427525Y-52156300D01*
X51365790Y-52172841D01*
X51287510Y-52193817D01*
X51161989Y-52266287D01*
X51059487Y-52368789D01*
X50987017Y-52494310D01*
X50950048Y-52632280D01*
X50949500Y-52634325D01*
X50949500Y-52779275D01*
X50964023Y-52833478D01*
X50960822Y-52894578D01*
X50922317Y-52942128D01*
X50868397Y-52958100D01*
X49018956Y-52958100D01*
X48929812Y-52981986D01*
X48867450Y-53017991D01*
X48849885Y-53028132D01*
X48375013Y-53503004D01*
X48320497Y-53530781D01*
X48305010Y-53532000D01*
X48218725Y-53532000D01*
X48208690Y-53534689D01*
X48078710Y-53569517D01*
X47953189Y-53641987D01*
X47850687Y-53744489D01*
X47778217Y-53870010D01*
X47766348Y-53914307D01*
X47740700Y-54010025D01*
X47740700Y-54154975D01*
X47755581Y-54210510D01*
X47778217Y-54294989D01*
X47850687Y-54420510D01*
X47850689Y-54420512D01*
X47850691Y-54420515D01*
X47953185Y-54523009D01*
X47953187Y-54523010D01*
X47953189Y-54523012D01*
X48078711Y-54595482D01*
X48078712Y-54595482D01*
X48078715Y-54595484D01*
X48218725Y-54633000D01*
X48218726Y-54633000D01*
X48363674Y-54633000D01*
X48363675Y-54633000D01*
X48503685Y-54595484D01*
X48503687Y-54595482D01*
X48503689Y-54595482D01*
X48629210Y-54523012D01*
X48629210Y-54523011D01*
X48629215Y-54523009D01*
X48731709Y-54420515D01*
X48752614Y-54384307D01*
X48804182Y-54294989D01*
X48804182Y-54294987D01*
X48804184Y-54294985D01*
X48841700Y-54154975D01*
X48841700Y-54068690D01*
X48860607Y-54010499D01*
X48870696Y-53998686D01*
X49181286Y-53688096D01*
X49235803Y-53660319D01*
X49251290Y-53659100D01*
X50564311Y-53659100D01*
X50622502Y-53678007D01*
X50658466Y-53727507D01*
X50658466Y-53788693D01*
X50634316Y-53828101D01*
X49574431Y-54887987D01*
X48524614Y-55937804D01*
X48470097Y-55965581D01*
X48454610Y-55966800D01*
X48368325Y-55966800D01*
X48306590Y-55983341D01*
X48228310Y-56004317D01*
X48102789Y-56076787D01*
X48000287Y-56179289D01*
X47927817Y-56304810D01*
X47897324Y-56418610D01*
X47890300Y-56444825D01*
X47890300Y-56589775D01*
X47906652Y-56650800D01*
X47927817Y-56729789D01*
X48000287Y-56855310D01*
X48000289Y-56855312D01*
X48000291Y-56855315D01*
X48102785Y-56957809D01*
X48102787Y-56957810D01*
X48102789Y-56957812D01*
X48228311Y-57030282D01*
X48228312Y-57030282D01*
X48228315Y-57030284D01*
X48368325Y-57067800D01*
X48368326Y-57067800D01*
X48513274Y-57067800D01*
X48513275Y-57067800D01*
X48653285Y-57030284D01*
X48653287Y-57030282D01*
X48653289Y-57030282D01*
X48778810Y-56957812D01*
X48778810Y-56957811D01*
X48778815Y-56957809D01*
X48881309Y-56855315D01*
X48953784Y-56729785D01*
X48991300Y-56589775D01*
X48991300Y-56503490D01*
X49010207Y-56445299D01*
X49020296Y-56433486D01*
X51108886Y-54344896D01*
X51163403Y-54317119D01*
X51178890Y-54315900D01*
X53393710Y-54315900D01*
X53451901Y-54334807D01*
X53487865Y-54384307D01*
X53487865Y-54445493D01*
X53463714Y-54484904D01*
X50016614Y-57932004D01*
X49962097Y-57959781D01*
X49946610Y-57961000D01*
X49860325Y-57961000D01*
X49817941Y-57972357D01*
X49720310Y-57998517D01*
X49594789Y-58070987D01*
X49492287Y-58173489D01*
X49419817Y-58299010D01*
X49419816Y-58299015D01*
X49382300Y-58439025D01*
X49382300Y-58583975D01*
X49400420Y-58651600D01*
X49419817Y-58723989D01*
X49492287Y-58849510D01*
X49492289Y-58849512D01*
X49492291Y-58849515D01*
X49594785Y-58952009D01*
X49652539Y-58985353D01*
X49693480Y-59030823D01*
X49699876Y-59091673D01*
X49688775Y-59120590D01*
X49638417Y-59207810D01*
X49600900Y-59347825D01*
X49600900Y-59434110D01*
X49581993Y-59492301D01*
X49571904Y-59504114D01*
X48169114Y-60906904D01*
X48114597Y-60934681D01*
X48099110Y-60935900D01*
X39443232Y-60935900D01*
X39435634Y-60933431D01*
X39427745Y-60934681D01*
X39407089Y-60924156D01*
X39385041Y-60916993D01*
X39373228Y-60906904D01*
X39353696Y-60887372D01*
X39325919Y-60832855D01*
X39324700Y-60817368D01*
X39324700Y-59129625D01*
X42235300Y-59129625D01*
X42235300Y-59274575D01*
X42250213Y-59330231D01*
X42272817Y-59414589D01*
X42345287Y-59540110D01*
X42345289Y-59540112D01*
X42345291Y-59540115D01*
X42447785Y-59642609D01*
X42447787Y-59642610D01*
X42447789Y-59642612D01*
X42573311Y-59715082D01*
X42573312Y-59715082D01*
X42573315Y-59715084D01*
X42713325Y-59752600D01*
X42713326Y-59752600D01*
X42858274Y-59752600D01*
X42858275Y-59752600D01*
X42998285Y-59715084D01*
X42998287Y-59715082D01*
X42998289Y-59715082D01*
X43123810Y-59642612D01*
X43123810Y-59642611D01*
X43123815Y-59642609D01*
X43161397Y-59605027D01*
X43184829Y-59581596D01*
X43239346Y-59553819D01*
X43254832Y-59552600D01*
X45467783Y-59552600D01*
X45517283Y-59565863D01*
X45549015Y-59584184D01*
X45689025Y-59621700D01*
X45689026Y-59621700D01*
X45833974Y-59621700D01*
X45833975Y-59621700D01*
X45973985Y-59584184D01*
X45973987Y-59584182D01*
X45973989Y-59584182D01*
X46099510Y-59511712D01*
X46099510Y-59511711D01*
X46099515Y-59511709D01*
X46202009Y-59409215D01*
X46247611Y-59330231D01*
X46274482Y-59283689D01*
X46274482Y-59283687D01*
X46274484Y-59283685D01*
X46312000Y-59143675D01*
X46312000Y-58998725D01*
X46274484Y-58858715D01*
X46274482Y-58858712D01*
X46274482Y-58858710D01*
X46202012Y-58733189D01*
X46202010Y-58733187D01*
X46202009Y-58733185D01*
X46099515Y-58630691D01*
X46099512Y-58630689D01*
X46099510Y-58630687D01*
X45973988Y-58558217D01*
X45973989Y-58558217D01*
X45911974Y-58541600D01*
X45833975Y-58520700D01*
X45689025Y-58520700D01*
X45668574Y-58526180D01*
X45549010Y-58558217D01*
X45423489Y-58630687D01*
X45423485Y-58630691D01*
X45320991Y-58733185D01*
X45281201Y-58802102D01*
X45235734Y-58843041D01*
X45195467Y-58851600D01*
X43254832Y-58851600D01*
X43196641Y-58832693D01*
X43184829Y-58822604D01*
X43123815Y-58761591D01*
X43123810Y-58761587D01*
X42998288Y-58689117D01*
X42998289Y-58689117D01*
X42962827Y-58679615D01*
X42858275Y-58651600D01*
X42713325Y-58651600D01*
X42681256Y-58660193D01*
X42573310Y-58689117D01*
X42447789Y-58761587D01*
X42345287Y-58864089D01*
X42272817Y-58989610D01*
X42242008Y-59104589D01*
X42235300Y-59129625D01*
X39324700Y-59129625D01*
X39324700Y-58862157D01*
X39323778Y-58858715D01*
X39300814Y-58773012D01*
X39291461Y-58756812D01*
X39291460Y-58756810D01*
X39291460Y-58756809D01*
X39270891Y-58721184D01*
X39254670Y-58693088D01*
X38411712Y-57850130D01*
X38331788Y-57803986D01*
X38331786Y-57803985D01*
X38331784Y-57803984D01*
X38329183Y-57803287D01*
X38329183Y-57803288D01*
X38242644Y-57780100D01*
X12065956Y-57780100D01*
X11979417Y-57803288D01*
X11979416Y-57803287D01*
X11976816Y-57803984D01*
X11976815Y-57803984D01*
X11896888Y-57850130D01*
X7338814Y-62408204D01*
X7284297Y-62435981D01*
X7268810Y-62437200D01*
X7182525Y-62437200D01*
X7120790Y-62453741D01*
X7042510Y-62474717D01*
X6916989Y-62547187D01*
X6814487Y-62649689D01*
X6742017Y-62775210D01*
X6704500Y-62915225D01*
X500000Y-62915225D01*
X500000Y-872963D01*
X501452Y-868491D01*
X500415Y-863905D01*
X510786Y-839765D01*
X518907Y-814772D01*
X524558Y-807699D01*
X652580Y-661718D01*
X661718Y-652580D01*
X807689Y-524567D01*
X863906Y-500415D01*
X872964Y-500000D01*
X90127034Y-500000D01*
X90185225Y-518907D01*
G37*
%TD.AperFunction*%
%TD*%
M02*
